SplineFontDB: 3.0
FontName: Crimson-Italic
FullName: Crimson Italic
FamilyName: Crimson
Weight: Italic
Copyright: Copyright (c) 2010, Sebastian Kosch (sebastian@aldusleaf.org),\nwith Reserved Font Name "Crimson".\nThis Font Software is licensed under the SIL Open Font License, Version 1.1.\nThis license is available with a FAQ at: http://scripts.sil.org/OFL
UComments: "2010-5-9: Created." 
Version: 0.12
ItalicAngle: -11
UnderlinePosition: -102
UnderlineWidth: 51
Ascent: 717
Descent: 307
LayerCount: 2
Layer: 0 0 "Back"  1
Layer: 1 0 "Fore"  0
NeedsXUIDChange: 1
XUID: [1021 85 519305545 10852408]
FSType: 0
OS2Version: 0
OS2_WeightWidthSlopeOnly: 0
OS2_UseTypoMetrics: 1
CreationTime: 1273443993
ModificationTime: 1313559726
PfmFamily: 17
TTFWeight: 400
TTFWidth: 5
LineGap: 0
VLineGap: 0
OS2TypoAscent: 939
OS2TypoAOffset: 0
OS2TypoDescent: -269
OS2TypoDOffset: 0
OS2TypoLinegap: 0
OS2WinAscent: 939
OS2WinAOffset: 0
OS2WinDescent: 269
OS2WinDOffset: 0
HheadAscent: 939
HheadAOffset: 0
HheadDescent: -269
HheadDOffset: 0
OS2Vendor: 'PfEd'
Lookup: 1 0 0 "'onum' Oldstyle Figures in Latin lookup 5"  {"'onum' Oldstyle Figures in Latin lookup 5-1" ("onum" ) } ['onum' ('DFLT' <'dflt' > 'latn' <'dflt' > ) ]
Lookup: 1 0 0 "Ordinals"  {"Ordinals-1" ("ordn" ) } ['ordn' ('DFLT' <'dflt' > 'latn' <'dflt' > ) ]
Lookup: 1 0 0 "'smcp' Lowercase to Small Capitals in Latin lookup 3"  {"'smcp' Lowercase to Small Capitals in Latin lookup 3-1" ("sc" ) } ['smcp' ('DFLT' <'dflt' > 'latn' <'dflt' > ) ]
Lookup: 258 0 0 "Crimson-Italic-'kern' Horizontal Kerning in Latin lookup 0"  {"Crimson-Italic-'kern' Horizontal Kerning in Latin lookup 0 per glyph data 0"  "Crimson-Italic-'kern' Horizontal Kerning in Latin lookup 0 kerning class 1"  } ['kern' ('latn' <'dflt' > ) ]
MarkAttachClasses: 1
DEI: 91125
KernClass2: 73+ 59 "Crimson-Italic-'kern' Horizontal Kerning in Latin lookup 0 kerning class 1" 
 20 quotedbl quotesingle
 8 asterisk
 20 hyphen endash emdash
 40 comma period quotesinglbase quotedblbase

StartChar: exclam
Encoding: 33 33 0
Width: 228
VWidth: 0
Flags: W
HStem: -14 116<33.9533 108.814>
VStem: 17 109<3.29198 85.0467> 130 90<492.709 614.186>
LayerCount: 2
Fore
SplineSet
17 36 m 27
 17 73 46 102 83 102 c 27
 107 102 126 80 126 56 c 27
 126 18 99 -14 61 -14 c 27
 35 -14 17 10 17 36 c 27
189 631 m 3
 210 631 220 609 220 588 c 3
 220 561 157 352 111 170 c 0
 108 156 87 148 83 148 c 3
 78 148 77 159 77 166 c 3
 77 170 109 429 130 577 c 0
 133 596 157 631 189 631 c 3
EndSplineSet
Validated: 1
Substitution2: "Ordinals-1" exclam.ordn
Substitution2: "'smcp' Lowercase to Small Capitals in Latin lookup 3-1" exclam.sc
EndChar

StartChar: quotedbl
Encoding: 34 34 1
Width: 328
VWidth: 0
Flags: W
HStem: 434 264<137.076 143.886 287.076 293.886>
VStem: 106.076 95<556.545 674.219> 256.076 95<556.545 674.219>
LayerCount: 2
Fore
SplineSet
173.076 698 m 31
 201.076 698 212.076 692 201.076 633 c 4
 190.076 577 161.076 516 142.076 449 c 4
 139.076 439 128.076 434 121.076 434 c 4
 114.076 434 105.076 439 106.076 447 c 4
 115.076 537 106.076 590 106.076 636 c 5
 109.076 654 137.076 698 173.076 698 c 31
323.076 698 m 27
 351.076 698 362.076 692 351.076 633 c 0
 340.076 577 311.076 516 292.076 449 c 0
 289.076 439 278.076 434 271.076 434 c 0
 264.076 434 255.076 439 256.076 447 c 0
 265.076 537 256.076 590 256.076 636 c 1
 259.076 654 287.076 698 323.076 698 c 27
EndSplineSet
Validated: 33
Substitution2: "'smcp' Lowercase to Small Capitals in Latin lookup 3-1" quotedbl.sc
EndChar

StartChar: numbersign
Encoding: 35 35 2
Width: 443
VWidth: 0
Flags: W
HStem: 178 50<18.3572 97 162 237 302 379.643> 320 50<66.3572 144 209 284 349 427.229>
LayerCount: 2
Fore
SplineSet
349 370 m 1
 429 370 l 0
 434 370 434 370 434 368 c 0
 434 352 419 320 411 320 c 0
 332 320 l 1
 302 228 l 1
 381 228 l 0
 385 228 386 228 386 225 c 0
 386 209 371 178 363 178 c 0
 284 178 l 1
 233 25 l 0
 233 24 230 18 202 18 c 0
 194 18 185 20 183 21 c 1
 185 30 235 173 235 174 c 0
 237 178 l 1
 144 178 l 1
 93 25 l 0
 93 24 90 18 62 18 c 0
 54 18 45 20 43 21 c 1
 45 30 95 173 95 174 c 0
 97 178 l 1
 17 178 l 0
 13 178 12 178 12 181 c 0
 12 197 27 228 35 228 c 0
 114 228 l 1
 144 320 l 1
 65 320 l 0
 61 320 60 320 60 323 c 0
 60 339 75 370 83 370 c 0
 162 370 l 1
 213 523 l 0
 213 524 216 530 244 530 c 0
 252 530 261 527 263 526 c 1
 261 519 211 375 211 374 c 0
 209 370 l 1
 302 370 l 1
 353 523 l 0
 353 524 356 530 384 530 c 0
 392 530 401 527 403 526 c 1
 401 519 351 375 351 374 c 0
 349 370 l 1
284 320 m 1
 192 320 l 1
 162 228 l 1
 254 228 l 1
 284 320 l 1
EndSplineSet
Validated: 1
Substitution2: "'smcp' Lowercase to Small Capitals in Latin lookup 3-1" numbersign.sc
EndChar

StartChar: dollar
Encoding: 36 36 3
Width: 436
Flags: W
HStem: -8 39<140.647 243.083> 602 42<208.694 317.078>
VStem: 15.834 37<88.5478 173.986> 378.834 30<477.016 547.479>
LayerCount: 2
Fore
SplineSet
116.834 -52 m 17
 108.834 -52 84.834 -50 85.834 -43 c 9
 338.834 683 l 17
 345.834 683 370.834 683 369.834 676 c 9
 116.834 -52 l 17
163.834 -8 m 0
 107.834 -8 47.834 8 12.834 15 c 1
 7.83398 50 9.83398 124 15.834 166 c 0
 16.834 171 26.834 174 33.834 174 c 0
 41.834 174 50.834 169 52.834 166 c 1
 54.834 125 63.834 31 173.834 31 c 0
 229.834 31 291.834 67 305.834 141 c 0
 320.834 218 266.834 245 228.834 269 c 0
 135.834 327 65.834 377 84.834 473 c 0
 103.834 572 202.834 644 294.834 644 c 0
 341.834 644 402.834 625 424.834 621 c 1
 421.834 580 419.834 542 408.834 484 c 0
 406.834 476 404.834 476 400.834 476 c 0
 391.834 477 378.834 479 378.834 487 c 0
 380.834 520 357.834 602 281.834 602 c 0
 216.834 602 174.834 570 161.834 505 c 0
 148.834 437 191.834 404 246.834 366 c 0
 317.834 316 407.834 266 388.834 170 c 0
 367.834 64 262.834 -8 163.834 -8 c 0
EndSplineSet
Validated: 37
Substitution2: "'smcp' Lowercase to Small Capitals in Latin lookup 3-1" dollar.sc
EndChar

StartChar: percent
Encoding: 37 37 4
Width: 622
VWidth: 0
Flags: W
HStem: -8 28<377.061 447.221> 300 27<414.525 484.689> 338 28<165.061 235.221> 643 20G<611 622> 646 27<202.525 272.689>
VStem: 70 63<389.827 559.144> 282 63<43.8269 213.144> 300 65<451.145 624.049> 512 65<105.145 278.049>
LayerCount: 2
Fore
SplineSet
242 646 m 7xed80
 179 646 133 556 133 478 c 31
 133 427 150 366 198 366 c 7
 261 366 300 462 300 541 c 31
 300 588 287 646 242 646 c 7xed80
252 673 m 7
 329 673 365 609 365 541 c 7
 365 445 284 338 186 338 c 7
 110 338 70 401 70 469 c 7
 70 567 150 673 252 673 c 7
643 650 m 13
 47 0 l 6
 43 -4 27 -12 13 -12 c 31
 6 -12 0 -9 -2 -1 c 13
 594 652 l 6
 598 656 606 663 616 663 c 31xf480
 628 663 639 660 643 650 c 13
454 300 m 7
 391 300 345 210 345 132 c 31xe680
 345 81 362 20 410 20 c 7
 473 20 512 116 512 195 c 31
 512 242 499 300 454 300 c 7
464 327 m 7
 541 327 577 263 577 195 c 7
 577 99 496 -8 398 -8 c 7
 322 -8 282 55 282 123 c 7
 282 221 362 327 464 327 c 7
EndSplineSet
Validated: 1
Substitution2: "Ordinals-1" percent.ordn
Substitution2: "'smcp' Lowercase to Small Capitals in Latin lookup 3-1" percent.sc
EndChar

StartChar: ampersand
Encoding: 38 38 5
Width: 663
VWidth: 0
Flags: W
HStem: -14 43<213.643 385.186> 320 82<208.653 313.792> 335 51<376.743 505.303> 346 38<490.431 600.233> 462 76<512.73 588.978> 590 45<220.814 339.638>
VStem: 37 86<118.059 280.658> 125 50<407.626 542.563> 314 41<254.682 318.492> 363 59<487.385 566.425> 508 68<148.934 303.661> 622 37<405.939 475.819>
LayerCount: 2
Fore
SplineSet
355 280 m 27xaff0
 355 239 424 260 424 217 c 3
 424 195 410 175 391 170 c 1
 365 170 314 202 314 258 c 3
 314 333 383 386 458 386 c 27xaff0
 488 386 504 384 534 384 c 27
 576 384 622 402 622 444 c 27
 622 463 609 480 590 480 c 27
 568 480 559 462 537 462 c 27
 520 462 508 478 508 495 c 27
 508 515 517 525 534 538 c 1
 607 538 659 504 659 444 c 3
 659 386 615 346 547 346 c 3x9ff0
 537 346 531 347 521 348 c 17
 549 323 576 277 576 224 c 3
 576 88 432 -14 285 -14 c 27
 158 -14 37 69 37 196 c 27
 37 283 106 359 163 381 c 1
 147 399 125 438 125 479 c 27
 125 572 225 635 307 635 c 3
 365 635 422 601 422 543 c 3
 422 502 382 462 362 462 c 3
 357 462 353 465 353 469 c 3
 353 477 363 485 363 514 c 3
 363 557 328 590 285 590 c 27
 223 590 175 536 175 474 c 27
 175 441 192 409 208 395 c 1
 222 399 231 402 247 402 c 27
 280 402 322 389 322 360 c 3
 322 333 287 320 257 320 c 27xcff0
 231 320 209 329 195 341 c 1
 157 309 123 265 123 204 c 27
 123 107 197 29 297 29 c 0
 404 29 508 121 508 237 c 27
 508 287 475 335 425 335 c 27
 390 335 355 315 355 280 c 27xaff0
EndSplineSet
Validated: 1
Substitution2: "'smcp' Lowercase to Small Capitals in Latin lookup 3-1" ampersand.sc
EndChar

StartChar: quotesingle
Encoding: 39 39 6
Width: 178
VWidth: 0
Flags: W
HStem: 434 264<137.076 143.886>
VStem: 106.076 95<556.545 674.219>
LayerCount: 2
Fore
SplineSet
173.076 698 m 31
 201.076 698 212.076 692 201.076 633 c 4
 190.076 577 161.076 516 142.076 449 c 4
 139.076 439 128.076 434 121.076 434 c 4
 114.076 434 105.076 439 106.076 447 c 4
 115.076 537 106.076 590 106.076 636 c 5
 109.076 654 137.076 698 173.076 698 c 31
EndSplineSet
Validated: 33
Substitution2: "'smcp' Lowercase to Small Capitals in Latin lookup 3-1" quotesingle.sc
EndChar

StartChar: parenleft
Encoding: 40 40 7
Width: 241
VWidth: 0
Flags: W
HStem: -121 26<147.609 156.15> 721 27<298.778 318.41>
VStem: 33 59<10.0652 339.427>
LayerCount: 2
Fore
SplineSet
33 174 m 0
 33 471 236 748 310 748 c 3
 316 748 319 736 319 728 c 0
 319 725 318 722 317 721 c 0
 241 685 92 418 92 164 c 0
 92 23 134 -80 159 -95 c 0
 160 -95 160 -97 160 -98 c 0
 160 -105 149 -121 142 -121 c 3
 101 -121 33 1 33 174 c 0
EndSplineSet
Validated: 1
Substitution2: "Ordinals-1" parenleft.ordn
Substitution2: "'smcp' Lowercase to Small Capitals in Latin lookup 3-1" parenleft.sc
EndChar

StartChar: parenright
Encoding: 41 41 8
Width: 240
VWidth: 0
Flags: W
HStem: -121 26<-61.5049 -44.2049>
VStem: 165 59<292.995 625.353>
LayerCount: 2
Fore
SplineSet
224 457 m 4
 224 121 2 -121 -53 -121 c 7
 -58 -121 -62 -111 -62 -103 c 4
 -62 -99 -61 -96 -59 -95 c 4
 -16 -75 165 155 165 477 c 4
 165 603 137 700 100 721 c 5
 100 721 99 722 99 723 c 4
 99 729 109 748 116 748 c 7
 165 748 224 629 224 457 c 4
EndSplineSet
Validated: 1
Substitution2: "Ordinals-1" parenright.ordn
Substitution2: "'smcp' Lowercase to Small Capitals in Latin lookup 3-1" parenright.sc
EndChar

StartChar: asterisk
Encoding: 42 42 9
Width: 394
Flags: W
HStem: 432 68<68.7409 164.231> 466 48<243.834 265.802> 473 20<184.821 223.891> 644 20G<200.5 224.5>
VStem: 159 64<305.242 381.874> 224 167<409.5 471> 226 41<493.177 514.922>
LayerCount: 2
Fore
SplineSet
254 514 m 0x5a
 279 514 326 633 377 633 c 0
 391 633 400 623 400 609 c 0
 400 552 267 523 267 491 c 0x5a
 267 464 391 473 391 419 c 0
 391 400 374 383 354 383 c 0
 311 383 278 466 253 466 c 0x5c
 230 466 241 398 223 341 c 0
 214 311 196 298 182 298 c 0
 169 298 159 309 159 326 c 0
 159 366 224 438 224 464 c 0
 224 469 222 473 215 473 c 0x3c
 194 473 130 432 92 432 c 0
 75 432 62 440 62 456 c 0
 62 469 69 500 123 500 c 0x9c
 152 500 181 493 201 493 c 0x3c
 223 493 226 503 226 510 c 0
 226 534 175 580 175 623 c 0
 175 648 192 664 209 664 c 0
 240 664 242 620 242 580 c 0
 242 574 240 514 254 514 c 0x5a
EndSplineSet
Validated: 33
Substitution2: "'smcp' Lowercase to Small Capitals in Latin lookup 3-1" asterisk.sc
EndChar

StartChar: plus
Encoding: 43 43 10
Width: 449
Flags: W
HStem: 217 43<16.6117 192 248 421.103>
LayerCount: 2
Fore
SplineSet
20 217 m 2
 17 217 15 220 15 225 c 0
 15 238 18 247 28 260 c 1
 200 260 l 1
 233 435 l 2
 236 448 270 451 274 451 c 0
 282 451 284 447 283 443 c 2
 248 260 l 1
 419 260 l 2
 421 260 422 257 422 252 c 0
 422 239 421 229 410 217 c 1
 240 217 l 1
 205 39 l 2
 203 29 186 23 170 23 c 0
 160 23 156 27 156 31 c 2
 192 217 l 1
 20 217 l 2
EndSplineSet
Validated: 1
Substitution2: "Ordinals-1" plus.ordn
Substitution2: "'smcp' Lowercase to Small Capitals in Latin lookup 3-1" plus.sc
EndChar

StartChar: comma
Encoding: 44 44 11
Width: 201
VWidth: 0
Flags: W
HStem: -163 292
VStem: 9 104<2.84906 107.313>
LayerCount: 2
Fore
SplineSet
-73 -143 m 0
 -73 -133 22 -74 22 -5 c 0
 22 23 9 52 9 66 c 0
 9 101 51 129 88 129 c 0
 96 129 103 127 110 125 c 1
 112 120 113 112 113 102 c 0
 113 80 106 52 102 35 c 0
 75 -83 -55 -163 -55 -163 c 1
 -59 -163 -73 -153 -73 -143 c 0
EndSplineSet
Validated: 1
Substitution2: "Ordinals-1" comma.ordn
Substitution2: "'smcp' Lowercase to Small Capitals in Latin lookup 3-1" comma.sc
EndChar

StartChar: hyphen
Encoding: 45 45 12
Width: 365
VWidth: 0
Flags: W
VStem: 50 254<210.346 261>
LayerCount: 2
Fore
SplineSet
71 261 m 2
 298 273 l 2
 303 273 304 266 304 261 c 0
 304 248 291 211 281 210 c 10
 55 199 l 2
 52 199 50 206 50 214 c 0
 50 225 60 260 71 261 c 2
EndSplineSet
Validated: 1
Substitution2: "Ordinals-1" hyphen.ordn
Substitution2: "'smcp' Lowercase to Small Capitals in Latin lookup 3-1" hyphen.sc
EndChar

StartChar: period
Encoding: 46 46 13
Width: 202
VWidth: 0
Flags: W
HStem: -14 116<24.9536 94.375>
VStem: 5 110<6.4082 82.5449>
LayerCount: 2
Fore
SplineSet
115 57 m 0
 115 20 82 -14 49 -14 c 0
 23 -14 5 6 5 33 c 0
 5 70 39 102 72 102 c 0
 98 102 115 83 115 57 c 0
EndSplineSet
Validated: 1
Substitution2: "Ordinals-1" period.ordn
Substitution2: "'smcp' Lowercase to Small Capitals in Latin lookup 3-1" period.sc
EndChar

StartChar: slash
Encoding: 47 47 14
Width: 380
VWidth: 0
Flags: W
LayerCount: 2
Fore
SplineSet
455 755 m 1
 31 -12 l 2
 28 -17 15 -33 -20 -33 c 0
 -32 -33 -34 -32 -38 -28 c 9
 387 739 l 2
 397 756 413 761 431 761 c 0
 440 761 453 756 455 755 c 1
EndSplineSet
Validated: 1
Substitution2: "Ordinals-1" slash.ordn
Substitution2: "'smcp' Lowercase to Small Capitals in Latin lookup 3-1" slash.sc
EndChar

StartChar: zero
Encoding: 48 48 15
Width: 479
Flags: W
HStem: -3 38<153.124 241.349> 603 38<260.432 349.246>
LayerCount: 2
Fore
SplineSet
129.609 320 m 4
 98.6094 163 121.609 35 190.609 35 c 4
 273.609 35 341.609 168 372.609 325 c 4
 403.609 482 379.609 603 310.609 603 c 4
 232.609 603 160.609 477 129.609 320 c 4
47.6094 319 m 4
 81.6094 493 184.609 641 312.609 641 c 4
 442.609 641 486.609 493 452.609 319 c 4
 418.609 145 315.609 -3 187.609 -3 c 4
 61.6094 -3 13.6094 145 47.6094 319 c 4
EndSplineSet
Validated: 33
Substitution2: "'onum' Oldstyle Figures in Latin lookup 5-1" zero.onum
Substitution2: "Ordinals-1" zero.ordn
Substitution2: "'smcp' Lowercase to Small Capitals in Latin lookup 3-1" zero.sc
EndChar

StartChar: one
Encoding: 49 49 16
Width: 278
Flags: W
HStem: -3 29<-14.3376 52.1714 152.577 204.516> 622 20G<249.953 256.453>
VStem: -15.5469 277
LayerCount: 2
Fore
SplineSet
79.4531 534 m 1
 72.4531 538 69.4531 547 70.4531 554 c 0
 70.4531 556 70.4531 559 73.4531 560 c 0
 166.453 604 248.453 642 251.453 642 c 2
 253.453 642 l 2
 259.453 642 261.453 628 261.453 623 c 1
 261.453 623 245.453 590 233.453 529 c 2
 157.453 135 l 2
 151.453 102 146.453 73 147.453 46 c 0
 148.453 35 198.453 26 205.453 26 c 0
 208.453 26 206.453 15 205.453 8 c 0
 204.453 3 203.453 -1 202.453 -3 c 1
 165.453 -1 129.453 2 92.4531 2 c 0
 55.4531 2 22.4531 -1 -15.5469 -3 c 1
 -19.5469 2 -14.5469 26 -9.54688 26 c 0
 1.45312 26 54.4531 35 59.4531 46 c 0
 68.4531 66 71.4531 84 75.4531 103 c 2
 145.453 463 l 2
 157.453 523 162.453 554 143.453 554 c 0
 136.453 554 97.4531 543 79.4531 534 c 1
EndSplineSet
Validated: 33
Substitution2: "'onum' Oldstyle Figures in Latin lookup 5-1" one.onum
Substitution2: "Ordinals-1" one.ordn
Substitution2: "'smcp' Lowercase to Small Capitals in Latin lookup 3-1" one.sc
EndChar

StartChar: two
Encoding: 50 50 17
Width: 416
Flags: W
HStem: 0 73<65 301.771> 577 65<190.288 292.6>
VStem: 318 89<411.7 550.393>
LayerCount: 2
Fore
SplineSet
407 512 m 0
 407 421 360 358 289 286 c 0
 205 200 63 73 65 73 c 9
 235 73 l 2
 289 73 321 105 340 147 c 0
 342 152 347 156 353 156 c 0
 357 156 369 152 370 150 c 1
 344 101 301 18 293 0 c 9
 293 0 -25 0 -32 0 c 1
 -34 2 -38 9 -38 15 c 1
 17 65 160 212 219 279 c 0
 287 356 318 418 318 486 c 0
 318 542 285 577 236 577 c 0
 162 577 102 511 87 491 c 1
 80 491 72 503 73 507 c 1
 84 532 172 642 269 642 c 0
 342 642 407 590 407 512 c 0
EndSplineSet
Validated: 33
Substitution2: "'onum' Oldstyle Figures in Latin lookup 5-1" two.onum
Substitution2: "Ordinals-1" two.ordn
Substitution2: "'smcp' Lowercase to Small Capitals in Latin lookup 3-1" two.sc
EndChar

StartChar: three
Encoding: 51 51 18
Width: 397
Flags: W
HStem: -5 40<71.4117 171.633> 317 31<113.037 166.434> 588 54<184.863 279.563>
VStem: 273 85<156.672 292.44> 298 73<465.959 570.265>
LayerCount: 2
Fore
SplineSet
270 642 m 0xe8
 317 642 371 607 371 533 c 0xe8
 371 467 307 408 255 379 c 1
 311 372 358 304 358 244 c 0
 358 90 175 -5 87 -5 c 0
 39 -5 5 4 -18 20 c 1
 -22 25 -27 37 -27 48 c 0
 -27 78 -7 106 15 106 c 0
 48 106 53 76 67 59 c 0
 84 38 106 35 131 35 c 0
 188 35 273 106 273 219 c 0xf0
 273 286 237 327 176 327 c 0
 156 327 129 320 117 317 c 1
 114 322 113 326 113 331 c 0
 113 335 114 345 116 348 c 1
 196 362 298 425 298 513 c 0
 298 568 263 588 221 588 c 0
 162 588 120 535 110 528 c 1
 104 528 103 543 105 552 c 1
 143 598 197 642 270 642 c 0xe8
EndSplineSet
Validated: 1
Substitution2: "'onum' Oldstyle Figures in Latin lookup 5-1" three.onum
Substitution2: "Ordinals-1" three.ordn
Substitution2: "'smcp' Lowercase to Small Capitals in Latin lookup 3-1" three.sc
EndChar

StartChar: four
Encoding: 52 52 19
Width: 432
Flags: W
HStem: -6 21G<233.496 262.496> 174 57<49.4961 245.496 332.496 394.432> 624 20G<392.996 400.996>
LayerCount: 2
Fore
SplineSet
396.496 644 m 0
 405.496 644 411.496 634 409.496 626 c 2
 332.496 231 l 25
 388.496 231 l 18
 394.496 231 397.496 211 393.496 190 c 0
 391.496 181 388.496 177 386.496 174 c 1
 362.496 174 321.496 174 321.496 174 c 25
 287.496 -1 l 1
 287.496 -1 280.496 -6 244.496 -6 c 0
 222.496 -6 210.496 -5 211.496 2 c 2
 245.496 174 l 25
 -16.5039 174 l 1
 -22.5039 178 -22.5039 187 -21.5039 193 c 1
 363.496 619 l 2
 370.496 627 389.496 644 396.496 644 c 0
313.496 524 m 25
 49.4961 231 l 25
 256.496 231 l 25
 313.496 524 l 25
EndSplineSet
Validated: 33
Substitution2: "'onum' Oldstyle Figures in Latin lookup 5-1" four.onum
Substitution2: "Ordinals-1" four.ordn
Substitution2: "'smcp' Lowercase to Small Capitals in Latin lookup 3-1" four.sc
EndChar

StartChar: five
Encoding: 53 53 20
Width: 395
Flags: W
HStem: -5 40<77.4117 177.848> 332 63<120.543 237.08> 551 80<167.24 367.825> 624 20G<375.5 396>
VStem: 279 85<160.249 291.599>
LayerCount: 2
Fore
SplineSet
120 377 m 1xe8
 140 385 192 395 217 395 c 0
 317 395 364 314 364 247 c 0
 364 93 182 -5 93 -5 c 0
 45 -5 11 4 -12 20 c 1
 -16 25 -21 37 -21 48 c 0
 -21 78 -1 106 21 106 c 0
 54 106 59 76 73 59 c 0
 90 38 112 35 137 35 c 0
 194 35 279 106 279 219 c 0
 279 255 266 332 158 332 c 3
 138 332 102 325 83 319 c 1
 80 321 73 328 69 333 c 1
 114 465 144 589 159 631 c 1xe8
 225 633 358 636 393 644 c 1xd8
 399 641 403 635 403 631 c 0
 403 614 380 575 370 561 c 1
 325 551 189 554 174 551 c 1
 170 544 139 430 120 377 c 1xe8
EndSplineSet
Validated: 1
Substitution2: "'onum' Oldstyle Figures in Latin lookup 5-1" five.onum
Substitution2: "Ordinals-1" five.ordn
Substitution2: "'smcp' Lowercase to Small Capitals in Latin lookup 3-1" five.sc
EndChar

StartChar: six
Encoding: 54 54 21
Width: 427
VWidth: 0
Flags: W
HStem: -6 33<139.039 224.539> 333 47<199.122 281.949> 623 20G<370 431>
VStem: 20 82<70.6657 291.425> 314 80<143.812 301.216>
LayerCount: 2
Fore
SplineSet
264 380 m 0
 341 380 394 311 394 230 c 0
 394 114 276 -6 167 -6 c 0
 79 -6 20 61 20 173 c 0
 20 251 57 365 144 464 c 0
 202 530 312 603 428 643 c 1
 434 643 436 624 435 618 c 1
 320 569 204 491 144 350 c 0
 110 270 102 215 102 160 c 0
 102 99 121 27 179 27 c 0
 233 27 314 106 314 224 c 0
 314 286 287 333 218 333 c 0
 194 333 179 324 170 319 c 1
 167 321 164 325 164 329 c 3
 164 341 230 380 264 380 c 0
EndSplineSet
Validated: 1
Substitution2: "'onum' Oldstyle Figures in Latin lookup 5-1" six.onum
Substitution2: "Ordinals-1" six.ordn
Substitution2: "'smcp' Lowercase to Small Capitals in Latin lookup 3-1" six.sc
EndChar

StartChar: seven
Encoding: 55 55 22
Width: 390
Flags: W
HStem: -6 21G<54.1094 63.6094> 557 76<112.109 388.109>
LayerCount: 2
Fore
SplineSet
23.1094 14 m 1
 155.109 180 388.109 557 388.109 557 c 1
 309.109 557 156.109 557 156.109 557 c 2
 119.109 557 92.1094 512 74.1094 480 c 0
 71.1094 474 54.1094 478 46.1094 482 c 1
 62.1094 520 102.109 598 112.109 633 c 9
 398.109 633 l 2
 422.109 633 455.109 636 461.109 636 c 0
 467.109 636 466.109 632 465.109 627 c 0
 462.109 614 443.109 588 425.109 560 c 2
 71.1094 -3 l 1
 69.1094 -5 66.1094 -6 61.1094 -6 c 0
 47.1094 -6 21.1094 5 23.1094 14 c 1
EndSplineSet
Validated: 33
Substitution2: "'onum' Oldstyle Figures in Latin lookup 5-1" seven.onum
Substitution2: "Ordinals-1" seven.ordn
Substitution2: "'smcp' Lowercase to Small Capitals in Latin lookup 3-1" seven.sc
EndChar

StartChar: eight
Encoding: 56 56 23
Width: 433
Flags: W
HStem: -9 36<121.998 229.915> 608 35<235.433 323.793>
LayerCount: 2
Fore
SplineSet
293.581 643 m 0
 376.581 643 434.581 586 416.581 491 c 0
 403.581 424 331.581 373 283.581 344 c 1
 279.581 343 280.581 340 282.581 338 c 0
 331.581 304 385.581 239 371.581 167 c 0
 352.581 67 252.581 -9 159.581 -9 c 0
 57.5811 -9 -0.418945 57 18.5811 154 c 0
 35.5811 242 129.581 293 170.581 318 c 0
 173.581 320 174.581 323 172.581 324 c 0
 138.581 349 93.5811 406 107.581 480 c 0
 124.581 565 211.581 643 293.581 643 c 0
281.581 608 m 0
 236.581 608 192.581 562 178.581 492 c 0
 166.581 430 219.581 386 250.581 364 c 0
 252.581 363 253.581 362 255.581 362 c 0
 257.581 362 258.581 362 261.581 364 c 0
 304.581 391 337.581 431 348.581 486 c 0
 359.581 544 337.581 608 281.581 608 c 0
168.581 27 m 0
 229.581 27 277.581 70 290.581 138 c 0
 306.581 221 212.581 287 201.581 295 c 0
 199.581 296 199.581 297 196.581 297 c 0
 195.581 297 193.581 297 192.581 296 c 0
 134.581 261 104.581 221 92.5811 157 c 0
 76.5811 75 119.581 27 168.581 27 c 0
EndSplineSet
Validated: 33
Substitution2: "'onum' Oldstyle Figures in Latin lookup 5-1" eight.onum
Substitution2: "Ordinals-1" eight.ordn
Substitution2: "'smcp' Lowercase to Small Capitals in Latin lookup 3-1" eight.sc
EndChar

StartChar: nine
Encoding: 57 57 24
Width: 425
VWidth: 0
Flags: W
HStem: -6 21G<14.2451 75.2451> 257 47<163.296 246.123> 610 33<220.706 306.206>
VStem: 51.2451 80<335.784 493.188> 343.245 82<345.575 566.334>
LayerCount: 2
Fore
SplineSet
181.245 257 m 0
 104.245 257 51.2451 326 51.2451 407 c 0
 51.2451 523 169.245 643 278.245 643 c 0
 366.245 643 425.245 576 425.245 464 c 0
 425.245 386 388.245 272 301.245 173 c 0
 243.245 107 133.245 34 17.2451 -6 c 1
 11.2451 -6 9.24512 13 10.2451 19 c 1
 125.245 68 241.245 146 301.245 287 c 0
 335.245 367 343.245 422 343.245 477 c 0
 343.245 538 324.245 610 266.245 610 c 0
 212.245 610 131.245 531 131.245 413 c 0
 131.245 351 158.245 304 227.245 304 c 0
 251.245 304 266.245 313 275.245 318 c 1
 278.245 316 281.245 312 281.245 308 c 3
 281.245 296 215.245 257 181.245 257 c 0
EndSplineSet
Validated: 1
Substitution2: "'onum' Oldstyle Figures in Latin lookup 5-1" nine.onum
Substitution2: "Ordinals-1" nine.ordn
Substitution2: "'smcp' Lowercase to Small Capitals in Latin lookup 3-1" nine.sc
EndChar

StartChar: colon
Encoding: 58 58 25
Width: 230
VWidth: 0
Flags: W
HStem: -14 120<37.25 107.75> 318 120<100.544 172.353>
VStem: 16 113<6.94727 85.0527> 80 114<339.191 416.75>
LayerCount: 2
Fore
SplineSet
80 367 m 4xd0
 80 405 115 438 149 438 c 4
 176 438 194 418 194 391 c 4
 194 353 160 318 126 318 c 4
 99 318 80 339 80 367 c 4xd0
16 34 m 0xe0
 16 72 50 106 84 106 c 0
 111 106 129 85 129 58 c 0
 129 20 95 -14 61 -14 c 0
 34 -14 16 7 16 34 c 0xe0
EndSplineSet
Validated: 1
Substitution2: "Ordinals-1" colon.ordn
Substitution2: "'smcp' Lowercase to Small Capitals in Latin lookup 3-1" colon.sc
EndChar

StartChar: semicolon
Encoding: 59 59 26
Width: 229
VWidth: 0
Flags: W
HStem: 318 120<101.544 173.353>
VStem: 35 88<-13.9785 99.8895> 81 114<339.191 416.75>
LayerCount: 2
Fore
SplineSet
81 367 m 0xa0
 81 405 116 438 150 438 c 0
 177 438 195 418 195 391 c 0
 195 353 161 318 127 318 c 0
 100 318 81 339 81 367 c 0xa0
35 11 m 0xc0
 35 45 24 51 24 62 c 0
 24 88 63 124 100 124 c 0
 117 124 123 109 123 90 c 0
 123 72 118 50 115 34 c 0
 98 -53 56 -94 -38 -165 c 0
 -40 -166 -43 -167 -45 -167 c 0
 -57 -167 -59 -145 -59 -143 c 0
 -59 -123 12 -113 33 -14 c 0
 34 -8 35 1 35 11 c 0xc0
EndSplineSet
Validated: 1
Substitution2: "Ordinals-1" semicolon.ordn
Substitution2: "'smcp' Lowercase to Small Capitals in Latin lookup 3-1" semicolon.sc
EndChar

StartChar: less
Encoding: 60 60 27
Width: 439
VWidth: 0
Flags: W
LayerCount: 2
Fore
SplineSet
84 209 m 5
 358 41 l 1
 358 41 360 40 360 36 c 0
 360 23 340 -14 335 -14 c 0
 334 -14 333 -14 331 -13 c 2
 19 177 l 2
 13 181 9 191 9 203 c 0
 9 217 15 232 32 241 c 2
 413 428 l 2
 415 429 416 429 417 429 c 0
 420 429 424 408 424 394 c 0
 424 391 423 376 419 374 c 2
 84 209 l 5
EndSplineSet
Validated: 1
Substitution2: "Ordinals-1" less.ordn
Substitution2: "'smcp' Lowercase to Small Capitals in Latin lookup 3-1" less.sc
EndChar

StartChar: equal
Encoding: 61 61 28
Width: 540
VWidth: 0
Flags: W
HStem: 117 56<33.0048 450.813> 259 56<61.458 478.858>
LayerCount: 2
Fore
SplineSet
29 117 m 1
 29 117 24 117 24 123 c 0
 24 126 38 173 47 173 c 2
 463 173 l 18
 468 173 469 170 469 168 c 0
 469 163 459 142 451 123 c 1
 447 117 444 117 444 117 c 1
 29 117 l 1
57 259 m 1
 57 259 53 259 53 265 c 0
 53 266 66 315 75 315 c 2
 490 315 l 2
 495 315 496 312 496 310 c 0
 496 305 487 284 479 265 c 0
 476 259 471 259 471 259 c 1
 57 259 l 1
EndSplineSet
Validated: 1
Substitution2: "Ordinals-1" equal.ordn
Substitution2: "'smcp' Lowercase to Small Capitals in Latin lookup 3-1" equal.sc
EndChar

StartChar: greater
Encoding: 62 62 29
Width: 441
VWidth: 0
Flags: W
LayerCount: 2
Fore
SplineSet
335 209 m 1
 63 374 l 1
 63 374 61 375 61 378 c 0
 61 385 82 430 87 430 c 0
 88 430 89 429 91 428 c 2
 398 241 l 2
 405 237 410 230 410 221 c 0
 410 218 408 188 386 177 c 2
 1 -13 l 2
 -1 -14 -3 -15 -5 -15 c 0
 -10 -15 -11 4 -11 33 c 0
 -11 38 -6 41 -6 41 c 1
 335 209 l 1
EndSplineSet
Validated: 1
Substitution2: "Ordinals-1" greater.ordn
Substitution2: "'smcp' Lowercase to Small Capitals in Latin lookup 3-1" greater.sc
EndChar

StartChar: question
Encoding: 63 63 30
Width: 308
VWidth: 0
Flags: W
HStem: -14 116<51.0005 120.844> 577 54<172.922 252.609>
VStem: 32 110<7.125 82.8877> 59 69<226.996 313.064> 267 53<469.011 567.503>
LayerCount: 2
Fore
SplineSet
32 32 m 0xe8
 32 70 64 102 97 102 c 0
 123 102 142 82 142 56 c 0
 142 19 107 -14 74 -14 c 0
 48 -14 32 6 32 32 c 0xe8
167 197 m 1
 167 193 162 184 157 181 c 1
 133 181 59 223 59 279 c 3
 59 324 75 344 101 362 c 0
 148 394 220 446 220 446 c 2
 240 460 267 488 267 517 c 3
 267 556 245 577 213 577 c 0
 169 577 173 530 135 530 c 0
 106 530 101 564 101 582 c 1
 106 597 137 631 175 631 c 0
 258 631 320 564 320 502 c 0
 320 406 279 402 161 321 c 0
 136 304 128 288 128 261 c 27xd8
 128 232 156 205 167 197 c 1
EndSplineSet
Validated: 1
Substitution2: "Ordinals-1" question.ordn
Substitution2: "'smcp' Lowercase to Small Capitals in Latin lookup 3-1" question.sc
EndChar

StartChar: at
Encoding: 64 64 31
Width: 739
VWidth: 0
Flags: W
HStem: -6 58<266.059 323.837> -6 46<475.06 555.922> 388 46<373.034 480.5> 537 40<305.293 511.94>
VStem: 19 44<37.0165 275.085> 177 74<64.092 231.038> 646 52<158.347 397.106>
LayerCount: 2
Fore
SplineSet
475 105 m 6xbe
 466 57 482 40 506 40 c 7
 581 40 646 163 646 267 c 4
 646 433 565 537 406 537 c 7
 237 537 63 380 63 140 c 4
 63 71 96 -15 155 -62 c 4
 173 -76 187 -83 196 -87 c 5
 190 -92 183 -94 164 -94 c 4
 139 -94 104 -65 90 -49 c 4
 48 -1 19 76 19 141 c 4
 19 393 203 577 411 577 c 7
 596 577 698 444 698 283 c 4
 698 77 555 -6 482 -6 c 4x7e
 433 -6 403 28 403 58 c 4
 403 66 404 77 408 98 c 4
 412 117 412 117 413 124 c 5
 392 88 330 -6 272 -6 c 7
 210 -6 177 59 177 129 c 7
 177 275 326 434 463 434 c 4
 498 434 517 428 536 421 c 13
 475 105 l 6xbe
421 388 m 7
 344 388 251 265 251 150 c 4
 251 88 267 52 302 52 c 7xbe
 352 52 423 177 442 273 c 6
 462 375 l 21
 453 385 434 388 421 388 c 7
EndSplineSet
Validated: 33
Substitution2: "'smcp' Lowercase to Small Capitals in Latin lookup 3-1" at.sc
EndChar

StartChar: A
Encoding: 65 65 32
Width: 580
Flags: W
HStem: -3 29<-55.374 -0.911133 80.5138 130.829 329.078 388.046 500.427 539.829> 252 42<198.532 363.531> 643 20G<378.532 384.032>
LayerCount: 2
Fore
SplineSet
537.532 -3 m 1
 500.532 -1 476.532 2 435.532 2 c 0
 392.532 2 370.532 -1 327.532 -3 c 1
 323.532 2 327.532 21 333.532 26 c 1
 344.532 26 378.532 31 388.532 39 c 0
 391.532 42 393.532 47 394.532 53 c 0
 400.532 83 370.532 247 370.532 247 c 1
 370.532 247 369.532 251 366.532 251 c 0
 342.532 253 295.532 252 272.532 252 c 0
 234.532 252 216.532 252 174.532 249 c 0
 172.532 249 168.532 246 168.532 246 c 1
 168.532 246 126.532 173 102.532 125 c 0
 84.5322 90 78.5322 67 75.5322 54 c 0
 70.5322 30 125.532 26 132.532 26 c 1
 134.532 23 131.532 3 128.532 -3 c 1
 91.5322 -1 80.5322 2 39.5322 2 c 0
 -3.46777 2 -15.4678 -1 -58.4678 -3 c 1
 -60.4678 0 -56.4678 19 -52.4678 26 c 1
 -41.4678 26 -7.46777 32 4.53223 45 c 0
 28.5322 71 46.5322 103 66.5322 139 c 2
 342.532 634 l 2
 351.532 650 374.532 663 382.532 663 c 0
 385.532 663 384.532 661 387.532 660 c 1
 387.532 660 480.532 80 484.532 60 c 0
 489.532 36 533.532 26 540.532 26 c 1
 543.532 19 539.532 0 537.532 -3 c 1
200.532 296 m 0
 224.532 295 258.532 294 279.532 294 c 0
 308.532 294 330.532 295 359.532 297 c 0
 361.532 297 363.532 302 363.532 302 c 1
 328.532 535 l 1
 198.532 300 l 1
 198.532 300 198.532 296 200.532 296 c 0
EndSplineSet
Validated: 33
Substitution2: "Ordinals-1" A.ordn
EndChar

StartChar: B
Encoding: 66 66 33
Width: 562
Flags: W
HStem: -3 35<-2.48218 68.6613 160.979 317.014> 334 38<215.453 356.722> 624 35<249.426 389.918> 633 29<117.362 177.005>
LayerCount: 2
Fore
SplineSet
362.453 659 m 0xe0
 447.453 659 542.453 624 520.453 510 c 0
 505.453 433 434.453 383 399.453 370 c 0
 397.453 369 396.453 367 398.453 365 c 1
 443.453 363 522.453 298 503.453 199 c 0
 492.453 142 447.453 79 400.453 47 c 0
 345.453 10 278.453 -2 206.453 -3 c 1
 -7.54688 -3 l 1
 -11.5469 2 -6.54688 21 -1.54688 26 c 1
 9.45312 26 60.4531 31 65.4531 42 c 0
 73.4531 58 78.4531 86 84.4531 116 c 2
 167.453 543 l 2
 173.453 573 179.453 601 177.453 617 c 0
 176.453 628 127.453 633 116.453 633 c 1
 113.453 638 115.453 657 121.453 662 c 1xd0
 159.453 660 194.453 657 230.453 657 c 0
 266.453 657 307.453 659 362.453 659 c 0xe0
215.453 372 m 1
 309.453 372 l 2
 376.453 372 420.453 430 431.453 487 c 0
 448.453 576 401.453 624 315.453 624 c 0xe0
 304.453 624 271.453 623 266.453 614 c 0
 259.453 602 253.453 569 247.453 539 c 2
 215.453 372 l 1
207.453 334 m 1
 165.453 118 l 2
 162.453 104 155.453 57 160.453 50 c 0
 171.453 34 196.453 32 230.453 32 c 0
 300.453 32 382.453 54 406.453 176 c 0
 421.453 251 407.453 334 264.453 334 c 2
 207.453 334 l 1
EndSplineSet
Validated: 33
Substitution2: "Ordinals-1" B.ordn
EndChar

StartChar: C
Encoding: 67 67 34
Width: 641
Flags: W
HStem: -8 36<272.881 439.534> 631 35<342.394 507.349>
VStem: 56 95<159.906 395.926> 582 31<486.178 559.465>
LayerCount: 2
Fore
SplineSet
433 631 m 4
 277 631 150.375 498.999 151 282 c 4
 151.343 163 205 28 355 28 c 4
 468 28 535 113 566 173 c 5
 579 173 594 165 594 165 c 5
 590 145 537 40 522 28 c 5
 468 0 413 -8 327 -8 c 4
 165 -8 56 117 56 265 c 4
 56 517 254.628 670 462 666 c 4
 519.989 664.881 574 652 623 640 c 5
 621 604 615 524 613 494 c 4
 612.53 486.944 605 486 602 486 c 4
 598 486 587 486 582 494 c 5
 587 574 517 631 433 631 c 4
EndSplineSet
Validated: 33
Substitution2: "Ordinals-1" C.ordn
EndChar

StartChar: D
Encoding: 68 68 35
Width: 678
Flags: W
HStem: -3 35<-2.48218 68.6613 158.709 330.625> 624 34<264.931 431.779> 633 29<117.362 177.005>
LayerCount: 2
Fore
SplineSet
248.453 539 m 6xc0
 166.453 118 l 6
 163.453 104 155.453 52 158.453 46 c 4
 163.453 35 197.453 32 231.453 32 c 4
 374.453 32 508.453 118 546.453 313 c 4
 590.453 539 487.453 624 334.453 624 c 4
 323.453 624 272.453 623 267.453 613 c 4
 259.453 597 254.453 568 248.453 539 c 6xc0
365.453 658 m 4
 580.453 658 678.453 519 642.453 334 c 4
 609.453 164 496.453 -2 225.453 -3 c 5
 -7.54688 -3 l 5
 -11.5469 2 -6.54688 21 -1.54688 26 c 5
 9.45312 26 60.4531 31 65.4531 42 c 4
 73.4531 58 78.4531 86 84.4531 116 c 6
 167.453 543 l 6
 173.453 573 179.453 601 177.453 617 c 4
 176.453 628 127.453 633 116.453 633 c 5
 113.453 638 115.453 657 121.453 662 c 5xa0
 159.453 660 194.453 657 230.453 657 c 4
 266.453 657 324.453 658 365.453 658 c 4
EndSplineSet
Validated: 33
Substitution2: "Ordinals-1" D.ordn
EndChar

StartChar: E
Encoding: 69 69 36
Width: 550
Flags: W
HStem: 0 37<158.105 373.511> 0 26<-6.1929 62.4206> 312 37<212.313 367.179> 621 36<262.768 475.117> 633 29<117.349 176.185>
VStem: 380.633 29<230.036 271.632> 502.633 29<523.182 586.555>
LayerCount: 2
Fore
SplineSet
230.633 657 m 4x36
 317.633 657 429.633 664 530.633 664 c 5
 527.633 614 531.633 573 531.633 528 c 5
 528.633 525 520.633 523 513.633 523 c 4
 506.633 523 502.633 525 502.633 530 c 4
 497.633 610 460.633 621 411.633 621 c 6
 331.633 621 l 6
 320.633 621 270.633 620 265.633 610 c 4
 257.633 594 252.633 566 247.633 539 c 6
 211.633 355 l 6
 210.633 350 230.633 349 250.633 349 c 6
 299.633 349 l 6
 388.633 349 386.633 355 415.633 421 c 4
 417.633 426 424.633 428 431.633 428 c 4
 438.633 428 443.633 426 445.633 423 c 5
 409.633 234 l 5
 407.633 232 400.633 230 393.633 230 c 4
 386.633 230 381.633 233 380.633 238 c 4
 377.633 295 374.633 298 367.633 304 c 4
 358.633 311 305.633 312 270.633 312 c 4
 244.633 312 203.633 312 201.633 303 c 6
 164.633 116 l 6
 161.633 101 152.633 52 157.633 47 c 4
 167.633 37 182.633 37 221.633 37 c 6
 265.633 37 l 6xb6
 300.633 37 357.633 46 387.633 61 c 4
 407.633 71 440.633 109 465.633 162 c 4
 467.633 166 473.633 168 480.633 168 c 4
 489.633 168 500.633 165 502.633 162 c 5
 474.633 108 434.633 40 419.633 -4 c 5
 318.633 -4 227.633 0 103.633 0 c 4
 59.6328 0 28.6328 -3 -7.36719 -3 c 5
 -11.3672 2 -7.36719 21 -2.36719 26 c 5
 8.63281 26 60.6328 31 65.6328 42 c 4
 73.6328 58 78.6328 86 84.6328 116 c 6
 167.633 543 l 6
 173.633 573 178.633 601 176.633 617 c 4
 175.633 628 126.633 633 115.633 633 c 5
 112.633 638 115.633 657 121.633 662 c 5x6e
 159.633 660 194.633 657 230.633 657 c 4x36
EndSplineSet
Validated: 33
Substitution2: "Ordinals-1" E.ordn
EndChar

StartChar: F
Encoding: 70 70 37
Width: 502
Flags: W
HStem: -3 29<-6.1929 64.6289 156.138 223.917> 312 37<212.313 367.179> 621 36<262.768 475.117> 633 29<117.349 176.185>
VStem: 380.633 29<230.036 271.632> 502.633 29<523.182 586.555>
LayerCount: 2
Fore
SplineSet
230.633 657 m 0xec
 317.633 657 429.633 664 530.633 664 c 1
 527.633 614 531.633 573 531.633 528 c 1
 528.633 525 520.633 523 513.633 523 c 0
 506.633 523 502.633 525 502.633 530 c 0
 497.633 610 460.633 621 411.633 621 c 2
 331.633 621 l 2xec
 320.633 621 270.633 620 265.633 610 c 0
 257.633 594 252.633 566 247.633 539 c 2
 211.633 355 l 2
 210.633 350 230.633 349 250.633 349 c 2
 299.633 349 l 2
 388.633 349 386.633 355 415.633 421 c 0
 417.633 426 424.633 428 431.633 428 c 0
 438.633 428 443.633 426 445.633 423 c 1
 409.633 234 l 1
 407.633 232 400.633 230 393.633 230 c 0
 386.633 230 381.633 233 380.633 238 c 0
 377.633 295 374.633 298 367.633 304 c 0
 358.633 311 305.633 312 270.633 312 c 0
 244.633 312 203.633 312 201.633 303 c 2
 164.633 116 l 2
 158.633 86 153.633 58 155.633 42 c 0
 156.633 31 214.633 26 225.633 26 c 1
 228.633 21 225.633 2 219.633 -3 c 1
 181.633 -1 138.633 2 102.633 2 c 0
 58.6328 2 28.6328 -3 -7.36719 -3 c 1
 -11.3672 2 -7.36719 21 -2.36719 26 c 1
 8.63281 26 60.6328 31 65.6328 42 c 0
 73.6328 58 78.6328 86 84.6328 116 c 2
 167.633 543 l 2
 173.633 573 178.633 601 176.633 617 c 0
 175.633 628 126.633 633 115.633 633 c 1
 112.633 638 115.633 657 121.633 662 c 1xdc
 159.633 660 194.633 657 230.633 657 c 0xec
EndSplineSet
Validated: 33
Substitution2: "Ordinals-1" F.ordn
EndChar

StartChar: G
Encoding: 71 71 38
Width: 681
Flags: W
HStem: -8 36<270.43 443.097> 265 29<439.716 503.52 593.978 660.826> 631 35<360.253 522.93>
VStem: 56 95<159.906 395.926> 504 58<110.625 134.577> 582 31<486.178 569.761>
LayerCount: 2
Fore
SplineSet
321 -8 m 0
 167 -8 56 117 56 265 c 0
 56 517 254.628 670 462 666 c 0
 519.989 664.881 574 652 623 640 c 1
 621 604 615 524 613 494 c 0
 612.53 486.944 605 486 602 486 c 0
 598 486 587 486 582 494 c 1
 587 574 537 631 453 631 c 0
 297 631 150.375 498.999 151 282 c 0
 151.343 163 208 28 350 28 c 0
 398 28 435 39 465 57 c 0
 470.752 60.4512 473 65 474 72 c 0
 479 99 494 175 494 175 c 2
 500 205 506 233 504 249 c 0
 503 260 449 265 438 265 c 1
 435 270 438 289 444 294 c 1
 482 292 519 289 555 289 c 0
 591 289 623 292 662 294 c 1
 666 289 662 270 657 265 c 1
 646 265 598 260 593 249 c 0
 585 233 580 205 574 175 c 2
 560 104 l 2
 556 83 562 78 562 68 c 0
 562 61.917 558 55 540 46 c 0
 496 23 444 -8 321 -8 c 0
EndSplineSet
Validated: 33
Substitution2: "Ordinals-1" G.ordn
EndChar

StartChar: H
Encoding: 72 72 39
Width: 681
Flags: W
HStem: -3 29<-6.1929 64.6289 156.081 214.917 366.807 437.629 529.081 587.917> 323 39<216.745 493.586> 633 29<117.349 176.185 268.63 338.651 490.349 549.185 641.63 711.651>
LayerCount: 2
Fore
SplineSet
230.633 657 m 0
 266.633 657 301.633 660 340.633 662 c 1
 344.633 657 339.633 638 334.633 633 c 1
 323.633 633 272.633 628 267.633 617 c 0
 259.633 601 254.633 573 248.633 543 c 2
 213.633 365 l 2
 213.633 363 214.633 362 214.633 362 c 1
 259.633 361 308.633 360 360.633 360 c 0
 404.633 360 461.633 361 503.633 362 c 1
 503.633 362 505.633 364 505.633 366 c 2
 540.633 543 l 2
 546.633 573 551.633 601 549.633 617 c 0
 548.633 628 499.633 633 488.633 633 c 1
 485.633 638 488.633 657 494.633 662 c 1
 532.633 660 567.633 657 603.633 657 c 0
 639.633 657 674.633 660 713.633 662 c 1
 717.633 657 712.633 638 707.633 633 c 1
 696.633 633 645.633 628 640.633 617 c 0
 632.633 601 627.633 573 621.633 543 c 2
 538.633 116 l 2
 532.633 86 526.633 58 528.633 42 c 0
 529.633 31 578.633 26 589.633 26 c 1
 592.633 21 589.633 2 583.633 -3 c 1
 545.633 -1 511.633 2 475.633 2 c 0
 439.633 2 404.633 -1 365.633 -3 c 1
 361.633 2 365.633 21 370.633 26 c 1
 381.633 26 433.633 31 438.633 42 c 0
 446.633 58 451.633 86 457.633 116 c 2
 496.633 317 l 2
 496.633 319 495.633 321 495.633 321 c 1
 451.633 322 400.633 323 353.633 323 c 0
 224.633 323 209.633 321 205.633 319 c 0
 204.633 318 204.633 317 204.633 317 c 1
 165.633 116 l 2
 159.633 86 153.633 58 155.633 42 c 0
 156.633 31 205.633 26 216.633 26 c 1
 219.633 21 216.633 2 210.633 -3 c 1
 172.633 -1 139.633 2 103.633 2 c 0
 67.6328 2 31.6328 -1 -7.36719 -3 c 1
 -11.3672 2 -7.36719 21 -2.36719 26 c 1
 8.63281 26 60.6328 31 65.6328 42 c 0
 73.6328 58 78.6328 86 84.6328 116 c 2
 167.633 543 l 2
 173.633 573 178.633 601 176.633 617 c 0
 175.633 628 126.633 633 115.633 633 c 1
 112.633 638 115.633 657 121.633 662 c 1
 159.633 660 194.633 657 230.633 657 c 0
EndSplineSet
Validated: 33
Substitution2: "Ordinals-1" H.ordn
EndChar

StartChar: I
Encoding: 73 73 40
Width: 309
Flags: W
HStem: -3 29<-6.1929 64.6289 156.081 214.917> 633 29<117.349 176.185 268.63 338.651>
LayerCount: 2
Fore
SplineSet
121.633 662 m 5
 159.633 660 194.633 657 230.633 657 c 4
 266.633 657 301.633 660 340.633 662 c 5
 344.633 657 339.633 638 334.633 633 c 5
 323.633 633 272.633 628 267.633 617 c 4
 259.633 601 254.633 573 248.633 543 c 6
 165.633 116 l 6
 159.633 86 153.633 58 155.633 42 c 4
 156.633 31 205.633 26 216.633 26 c 5
 219.633 21 216.633 2 210.633 -3 c 5
 172.633 -1 139.633 2 103.633 2 c 4
 67.6328 2 31.6328 -1 -7.36719 -3 c 5
 -11.3672 2 -7.36719 21 -2.36719 26 c 5
 8.63281 26 60.6328 31 65.6328 42 c 4
 73.6328 58 78.6328 86 84.6328 116 c 6
 167.633 543 l 6
 173.633 573 178.633 601 176.633 617 c 4
 175.633 628 126.633 633 115.633 633 c 5
 112.633 638 115.633 657 121.633 662 c 5
EndSplineSet
Validated: 33
Substitution2: "Ordinals-1" I.ordn
EndChar

StartChar: J
Encoding: 74 74 41
Width: 293
Flags: W
HStem: -233 19<-110.812 -88.2402> 631 27<103.364 154.604 274.564 322.93>
LayerCount: 2
Fore
SplineSet
81 109 m 6
 156 512 l 2
 162 547 167 568 167 604 c 0
 167 621 115 631 104 631 c 0
 103 631 102 633 102 636 c 0
 102 643 106 654 110 658 c 1
 152 656 175 652 218 652 c 0
 259 652 286 656 324 658 c 1
 324 655 l 2
 324 647 321 631 317 631 c 0
 310 631 267 619 262 608 c 0
 250 581 241 544 236 515 c 2
 161 116 l 6
 111 -148 -28 -233 -108 -233 c 5
 -110 -230 -111 -225 -111 -220 c 4
 -111 -218 -110 -214 -110 -214 c 5
 2 -179 45 -83 81 109 c 6
EndSplineSet
Validated: 1
Substitution2: "Ordinals-1" J.ordn
EndChar

StartChar: K
Encoding: 75 75 42
Width: 608
Flags: W
HStem: -3 29<-6.1929 63.6353 156.081 214.917 516.986 566.459> 633 29<117.349 176.185 267.637 338.086 452.485 494.838 592.127 659.272>
LayerCount: 2
Fore
SplineSet
477.633 72 m 0
 496.633 49 519.633 30 569.633 26 c 1
 573.633 21 564.633 -1 563.633 -3 c 1
 501.633 -3 450.633 1 433.633 8 c 0
 421.633 13 399.633 23 378.633 51 c 0
 363.633 72 298.633 175 218.633 304 c 0
 217.633 307 214.633 307 210.633 307 c 0
 207.633 307 203.633 306 201.633 305 c 1
 164.633 116 l 2
 158.633 86 153.633 58 155.633 42 c 0
 156.633 31 205.633 26 216.633 26 c 1
 219.633 21 216.633 2 210.633 -3 c 1
 172.633 -1 138.633 2 102.633 2 c 0
 66.6328 2 31.6328 -1 -7.36719 -3 c 1
 -11.3672 2 -7.36719 21 -2.36719 26 c 1
 8.63281 26 59.6328 31 64.6328 42 c 0
 72.6328 58 77.6328 86 83.6328 116 c 2
 166.633 543 l 2
 172.633 573 178.633 601 176.633 617 c 0
 175.633 628 126.633 633 115.633 633 c 1
 112.633 638 115.633 657 121.633 662 c 1
 159.633 660 194.633 657 230.633 657 c 0
 266.633 657 300.633 660 339.633 662 c 1
 343.633 657 339.633 638 334.633 633 c 1
 323.633 633 271.633 628 266.633 617 c 0
 258.633 601 253.633 573 247.633 543 c 2
 208.633 340 l 1
 230.633 353 286.633 399 332.633 439 c 0
 420.633 516 421.633 515 477.633 576 c 0
 484.633 584 494.633 597 496.633 607 c 0
 501.633 632 457.633 632 449.633 632 c 1
 447.633 638 450.633 653 455.633 662 c 1
 489.633 660 526.633 656 560.633 656 c 0
 601.633 656 624.633 660 662.633 662 c 1
 663.633 656 659.633 632 654.633 632 c 0
 645.633 631 594.633 632 555.633 595 c 0
 457.633 501 395.633 450 298.633 366 c 0
 291.633 360 293.633 355 296.633 350 c 0
 364.633 238 420.633 145 477.633 72 c 0
EndSplineSet
Validated: 33
Substitution2: "Ordinals-1" K.ordn
EndChar

StartChar: L
Encoding: 76 76 43
Width: 525
Flags: W
HStem: 0 37<157.926 377.971> 0 26<-5.5654 62.2741> 633 29<117.362 177.005 268.451 338.472>
LayerCount: 2
Fore
SplineSet
165.453 119 m 2x60
 162.453 104 152.453 52 157.453 47 c 0
 167.453 37 182.453 37 221.453 37 c 2
 274.453 37 l 2xa0
 309.453 37 358.453 42 388.453 61 c 0
 415.453 78 441.453 109 466.453 162 c 0
 468.453 166 473.453 168 480.453 168 c 0
 489.453 168 500.453 165 502.453 162 c 1
 474.453 108 435.453 40 420.453 -4 c 1
 319.453 -4 227.453 0 103.453 0 c 0
 59.4531 0 28.4531 -3 -7.54688 -3 c 1
 -11.5469 2 -6.54688 21 -1.54688 26 c 1
 9.45312 26 60.4531 31 65.4531 42 c 0
 73.4531 58 78.4531 86 84.4531 116 c 2
 167.453 543 l 2
 173.453 573 179.453 601 177.453 617 c 0
 176.453 628 127.453 633 116.453 633 c 1
 113.453 638 115.453 657 121.453 662 c 1
 159.453 660 194.453 657 230.453 657 c 0
 266.453 657 301.453 660 340.453 662 c 1
 344.453 657 339.453 638 334.453 633 c 1
 323.453 633 272.453 628 267.453 617 c 0
 259.453 601 254.453 573 248.453 543 c 2
 165.453 119 l 2x60
EndSplineSet
Validated: 33
Substitution2: "Ordinals-1" L.ordn
EndChar

StartChar: M
Encoding: 77 77 44
Width: 847
Flags: W
HStem: -3 29<-23.7712 52.1434 116.506 182.668 541.229 606.622 704.589 763.656> 633 29<130.725 182.42 802.734 868.755>
LayerCount: 2
Fore
SplineSet
870.25 662 m 1
 870.25 659 868.25 633 868.25 633 c 1
 855.25 633 805.25 625 798.25 615 c 1
 793.25 606 788.25 589 786.25 577 c 2
 710.25 140 l 2
 703.25 101 699.25 67 703.25 43 c 0
 705.25 29 757.25 26 764.25 26 c 1
 767.25 17 763.25 0 761.25 -3 c 1
 724.25 -1 692.25 2 651.25 2 c 0
 608.25 2 581.25 -1 538.25 -3 c 1
 537.25 -1 539.25 18 544.25 26 c 1
 555.25 26 594.25 30 607.25 37 c 0
 614.25 41 620.25 65 623.25 79 c 0
 626.25 93 630.25 122 633.25 137 c 2
 704.25 565 l 2
 705.25 569 706.25 585 699.25 585 c 0
 697.25 585 696.25 583 693.25 578 c 2
 394.25 49 l 2
 389.25 40 360.25 0 349.25 -2 c 0
 346.25 -3 344.25 -1 341.25 0 c 1
 227.25 584 l 1
 181.25 366 118.25 85 116.25 75 c 0
 114.25 66 113.25 52 114.25 44 c 0
 117.25 29 177.25 26 184.25 26 c 1
 187.25 20 182.25 0 180.25 -3 c 1
 143.25 -1 124.25 2 83.25 2 c 0
 40.25 2 16.25 -1 -26.75 -3 c 1
 -27.75 -1 -25.75 18 -20.75 26 c 1
 -9.75 26 46.25 31 57.25 44 c 0
 68.25 57 73.25 73 78.25 94 c 0
 133.25 334 181.25 554 184.25 572 c 0
 187.25 586 190.25 601 188.25 612 c 1
 187.25 624 138.25 633 127.25 633 c 0
 125.25 633 131.25 660 133.25 662 c 1
 175.25 660 185.25 657 228.25 657 c 0
 260.25 657 283.25 660 304.25 662 c 1
 310.25 599 370.25 324 401.25 146 c 0
 402.25 144 403.25 144 404.25 144 c 0
 405.25 144 408.25 145 410.25 148 c 2
 629.25 542 l 2
 655.25 588 693.25 662 693.25 662 c 1
 722.25 660 747.25 658 765.25 658 c 0
 798.25 658 846.25 660 870.25 662 c 1
EndSplineSet
Validated: 33
Substitution2: "Ordinals-1" M.ordn
EndChar

StartChar: N
Encoding: 78 78 45
Width: 726
Flags: W
HStem: -3 29<-12.6379 58.5714 137.293 195.795> 634 29<111.22 174.958 563.025 621.527 699.327 771.351>
LayerCount: 2
Fore
SplineSet
210.91 660 m 4
 238.91 660 268.91 661 281.91 662 c 5
 313.91 582 476.91 321 549.91 166 c 5
 623.91 545 l 6
 630.91 581 633.91 598 627.91 614 c 4
 623.91 624 575.91 634 560.91 634 c 5
 557.91 641 561.91 657 564.91 663 c 5
 601.91 661 629.91 658 670.91 658 c 4
 713.91 658 729.91 661 772.91 663 c 5
 774.91 658 774.91 645 767.91 634 c 5
 756.91 634 699.91 626 690.91 614 c 4
 679.91 599 675.91 584 668.91 546 c 6
 589.91 139 l 6
 578.91 81 572.91 51 564.91 -1 c 5
 561.91 -4 550.91 -5 547.91 -5 c 4
 539.91 -5 527.91 4 520.91 18 c 6
 222.91 569 l 5
 134.91 115 l 6
 127.91 79 124.91 62 130.91 46 c 4
 134.91 36 182.91 26 197.91 26 c 5
 200.91 19 196.91 3 193.91 -3 c 5
 156.91 -1 128.91 2 87.9102 2 c 4
 44.9102 2 27.9102 -1 -15.0898 -3 c 5
 -17.0898 2 -16.0898 15 -9.08984 26 c 5
 1.91016 26 57.9102 34 66.9102 46 c 4
 77.9102 61 82.9102 76 89.9102 114 c 6
 173.91 548 l 6
 180.91 586 182.91 601 177.91 616 c 4
 173.91 628 120.91 636 109.91 636 c 5
 106.91 647 110.91 660 114.91 665 c 5
 156.91 663 179.91 660 210.91 660 c 4
EndSplineSet
Validated: 33
Substitution2: "Ordinals-1" N.ordn
EndChar

StartChar: O
Encoding: 79 79 46
Width: 705
Flags: W
HStem: -11 36<250.284 400.977> 629 36<327.652 475.507>
VStem: 58 94<154.09 410.262> 575 94<244.922 498.438>
LayerCount: 2
Fore
SplineSet
403 629 m 0
 277 629 152 478 152 268 c 0
 152 153 188 25 325 25 c 0
 478 25 575 214 575 393 c 0
 575 489 544.004 629 403 629 c 0
412 665 m 0
 570 665 669 538 669 378 c 0
 669 144 508 -11 316 -11 c 0
 154 -11 58 119 58 277 c 0
 58 507 229.656 665 412 665 c 0
EndSplineSet
Validated: 1
Substitution2: "Ordinals-1" O.ordn
EndChar

StartChar: P
Encoding: 80 80 47
Width: 506
Flags: W
HStem: -3 29<-6.1929 64.6289 156.081 214.917> 282 27<240.989 323.419> 624 35<250.606 385.034> 633 29<117.349 176.185>
VStem: 431.633 90<414.655 581.613>
LayerCount: 2
Fore
SplineSet
521.633 514 m 0xe8
 521.633 378.482 409.633 282 287.633 282 c 0
 266.633 282 247.633 286 242.633 290 c 0
 240.424 291.767 232.633 300 232.633 305 c 0
 232.633 309.123 236.633 312 238.633 313 c 1
 248.633 310 258.633 309 272.633 309 c 0
 346.633 309 431.633 392.211 431.633 494 c 0
 431.633 550 417.633 624 314.633 624 c 0xe8
 303.633 624 271.633 623 266.633 614 c 0
 259.633 602 253.633 569 247.633 539 c 2
 164.633 116 l 2
 158.633 86 153.633 58 155.633 42 c 0
 156.633 31 205.633 26 216.633 26 c 1
 219.633 21 216.633 2 210.633 -3 c 1
 172.633 -1 138.633 2 102.633 2 c 0
 66.6328 2 31.6328 -1 -7.36719 -3 c 1
 -11.3672 2 -7.36719 21 -2.36719 26 c 1
 8.63281 26 60.6328 31 65.6328 42 c 0
 73.6328 58 78.6328 86 84.6328 116 c 2
 167.633 543 l 2
 173.633 573 178.633 601 176.633 617 c 0
 175.633 628 126.633 633 115.633 633 c 1
 112.633 638 115.633 657 121.633 662 c 1xd8
 159.633 660 196.633 657 232.633 657 c 0
 268.633 657 310.633 659 365.633 659 c 0
 450.633 659 521.633 596 521.633 514 c 0xe8
EndSplineSet
Validated: 33
Substitution2: "Ordinals-1" P.ordn
EndChar

StartChar: Q
Encoding: 81 81 48
Width: 699
Flags: W
HStem: -136 55<480.285 592.299> 630 37<327.25 477.477>
LayerCount: 2
Fore
SplineSet
654.525 -85 m 1
 597.525 -114 546.525 -136 489.525 -136 c 0
 389.525 -136 336.525 -33 222.525 0 c 0
 100.525 35 27.5254 161 59.5254 328 c 0
 95.5254 515 262.525 667 426.525 667 c 0
 590.525 667 702.525 527 663.525 328 c 0
 633.525 175 516.525 46 384.525 4 c 1
 464.525 -42 475.525 -81 571.525 -81 c 0
 608.525 -81 631.525 -77 638.525 -75 c 1
 645.525 -75 655.525 -79 654.525 -85 c 1
405.525 630 m 0
 265.525 630 181.525 484 155.525 350 c 0
 125.525 195 172.525 27 316.525 27 c 0
 456.525 27 542.525 174 568.525 309 c 0
 598.525 464 549.525 630 405.525 630 c 0
EndSplineSet
Validated: 33
Substitution2: "Ordinals-1" Q.ordn
EndChar

StartChar: R
Encoding: 82 82 49
Width: 575
Flags: W
HStem: -3 29<-6.1929 64.6289 156.081 214.917 505.554 553.459> 302 31<207.633 276.066> 624 35<251.106 385.298> 633 29<117.349 176.185>
LayerCount: 2
Fore
SplineSet
233.633 657 m 0xd0
 269.633 657 310.633 659 365.633 659 c 4xe0
 450.633 659 539.633 600 517.633 486 c 4
 503.633 414 427.633 350 358.633 325 c 5
 390.633 237 419.633 173 463.633 86 c 0
 483.633 48 506.633 30 556.633 26 c 1
 560.633 21 551.633 -1 550.633 -3 c 1
 488.633 -3 446.633 2 429.633 9 c 0
 417.633 14 393.633 22 377.633 53 c 0
 367.633 73 316.633 192 276.633 290 c 0
 272.633 299 263.633 302 250.633 302 c 6
 201.633 302 l 1
 165.633 116 l 2
 159.633 86 153.633 58 155.633 42 c 0
 156.633 31 205.633 26 216.633 26 c 1
 219.633 21 216.633 2 210.633 -3 c 1
 172.633 -1 139.633 2 103.633 2 c 0
 67.6328 2 31.6328 -1 -7.36719 -3 c 1
 -11.3672 2 -7.36719 21 -2.36719 26 c 1
 8.63281 26 60.6328 31 65.6328 42 c 0
 73.6328 58 78.6328 86 84.6328 116 c 2
 167.633 543 l 2
 173.633 573 178.633 601 176.633 617 c 0
 175.633 628 126.633 633 115.633 633 c 1
 112.633 638 115.633 657 121.633 662 c 1
 159.633 660 197.633 657 233.633 657 c 0xd0
207.633 333 m 1
 257.633 333 l 6
 336.633 333 412.633 385 427.633 462 c 4
 444.633 551 418.633 624 315.633 624 c 4
 304.633 624 271.633 623 266.633 614 c 4
 259.633 602 253.633 569 247.633 539 c 2
 207.633 333 l 1
EndSplineSet
Validated: 33
Substitution2: "Ordinals-1" R.ordn
EndChar

StartChar: S
Encoding: 83 83 50
Width: 471
Flags: W
HStem: -10 39<139.184 273.487> 631 35<227.803 357.62>
VStem: 30.7979 35<116.396 189.471> 98.7979 78<447.294 558.689> 328.798 89<109.311 219.519> 393.798 31<490.179 577.841>
LayerCount: 2
Fore
SplineSet
308.798 666 m 0xf8
 366.798 666 402.798 654 451.798 642 c 1
 444.798 608 431.798 526 424.798 498 c 0
 423.082 491.14 416.798 490 413.798 490 c 0
 409.798 490 398.798 490 393.798 498 c 1xf4
 398.798 578 377.798 631 293.798 631 c 0
 211.798 631 176.798 571 176.798 520 c 0
 176.798 438.416 238.798 406 291.798 364 c 0
 344.798 322 417.798 286.006 417.798 193 c 0
 417.798 69 289.798 -10 189.798 -10 c 0
 126.798 -10 82.7979 15 42.7979 34 c 1
 29.7979 88 28.7979 172 30.7979 184 c 1
 33.7979 188 48.7979 190 55.7979 190 c 0
 60.7979 190 63.7979 188 65.7979 184 c 1
 65.7979 140 102.798 29 204.798 29 c 0
 262.798 29 328.798 67.5703 328.798 147 c 0
 328.798 219 283.798 248 233.798 288 c 0
 173.342 336.364 98.7979 373.039 98.7979 476 c 0
 98.7979 591 215.798 666 308.798 666 c 0xf8
EndSplineSet
Validated: 33
Substitution2: "Ordinals-1" S.ordn
EndChar

StartChar: T
Encoding: 84 84 51
Width: 580
Flags: W
HStem: -3 29<130.981 201.003 292.448 352.091> 624 37<153.35 320 401 558.752>
VStem: 584 32<500.463 591.698>
LayerCount: 2
Fore
SplineSet
368 661 m 1
 548 661 l 2
 563 661 595 670 607 676 c 0
 617 681 620 681 625 678 c 1
 620 617 616 559 616 506 c 1
 613 503 604 498 596 499 c 0
 591 499 585 501 584 504 c 1
 585 574 565 624 519 624 c 2
 401 624 l 1
 302 116 l 2
 296 86 290 58 292 42 c 0
 293 31 342 26 353 26 c 1
 356 21 354 2 348 -3 c 1
 310 -1 276 2 240 2 c 0
 204 2 168 -1 129 -3 c 1
 125 2 130 21 135 26 c 1
 146 26 197 31 202 42 c 0
 210 58 215 86 221 116 c 2
 320 624 l 1
 200 624 l 2
 154 624 115 574 88 504 c 0
 86 501 79 499 74 499 c 0
 65 498 59 503 57 506 c 1
 78 559 97 617 115 678 c 1
 121 681 130 678 135 675 c 0
 145 669 170 661 185 661 c 2
 368 661 l 1
EndSplineSet
Validated: 33
Substitution2: "Ordinals-1" T.ordn
EndChar

StartChar: U
Encoding: 85 85 52
Width: 676
Flags: W
HStem: -4 58<228.935 397.712> 633 29<101.814 160.257 251.703 321.724 528.115 585.164 659.088 732.719>
LayerCount: 2
Fore
SplineSet
577.705 276 m 6
 538.705 76 423.705 -4 278.705 -4 c 4
 141.705 -4 62.7051 94 93.7051 251 c 6
 150.705 543 l 6
 156.705 573 162.705 601 160.705 617 c 4
 159.705 628 110.705 633 99.7051 633 c 5
 96.7051 638 99.7051 657 105.705 662 c 5
 143.705 660 177.705 657 213.705 657 c 4
 249.705 657 284.705 660 323.705 662 c 5
 327.705 657 322.705 638 317.705 633 c 5
 306.705 633 255.705 628 250.705 617 c 4
 242.705 601 237.705 573 231.705 543 c 6
 183.705 296 l 6
 151.705 131 197.705 54 309.705 54 c 4
 405.705 54 496.705 102 532.705 274 c 5
 585.705 545 l 6
 592.705 581 595.705 598 589.705 614 c 4
 585.705 624 541.705 634 526.705 634 c 5
 523.705 641 527.705 657 530.705 663 c 5
 567.705 661 591.705 658 632.705 658 c 4
 675.705 658 691.705 661 734.705 663 c 5
 736.705 658 736.705 645 729.705 634 c 5
 718.705 634 661.705 626 652.705 614 c 4
 641.705 599 637.705 584 630.705 546 c 6
 577.705 276 l 6
EndSplineSet
Validated: 33
Substitution2: "Ordinals-1" U.ordn
EndChar

StartChar: V
Encoding: 86 86 53
Width: 596
Flags: W
HStem: -2 21G<225.402 233.402> 633 29<65.8775 110.786 235.342 288.324 486.331 529.144 624.8 677.113>
LayerCount: 2
Fore
SplineSet
68.4023 662 m 1
 110.402 660 132.402 657 175.402 657 c 0
 216.402 657 253.402 660 291.402 662 c 1
 292.402 656 288.402 634 284.402 633 c 1
 277.402 633 227.402 628 222.402 600 c 0
 215.402 566 250.402 348 279.402 139 c 0
 280.402 131 286.402 136 289.402 141 c 2
 508.402 524 l 2
 521.402 547 535.402 576 538.402 594 c 0
 544.402 626 496.402 633 485.402 633 c 1
 481.402 635 484.402 657 490.402 662 c 1
 524.402 660 554.402 657 588.402 657 c 0
 631.402 657 642.402 660 680.402 662 c 1
 682.402 657 676.402 633 673.402 633 c 0
 666.402 633 628.402 627 608.402 607 c 0
 594.402 593 563.402 544 542.402 506 c 2
 269.402 32 l 2
 254.402 5 239.402 -2 227.402 -2 c 0
 223.402 -2 222.402 10 221.402 14 c 0
 192.402 192 174.402 322 142.402 514 c 0
 136.402 553 129.402 584 118.402 610 c 0
 111.402 626 73.4023 633 62.4023 633 c 0
 60.4023 633 66.4023 660 68.4023 662 c 1
EndSplineSet
Validated: 33
Substitution2: "Ordinals-1" V.ordn
EndChar

StartChar: W
Encoding: 87 87 54
Width: 837
Flags: W
HStem: -2 21G<185.402 193.402 521.402 529.402> 633 29<67.8775 109.399 227.342 280.598 723.157 767.324 866.091 915.113>
LayerCount: 2
Fore
SplineSet
183.402 657 m 0
 224.402 657 246.402 660 284.402 662 c 1
 285.402 656 280.402 634 276.402 633 c 1
 269.402 633 219.402 628 214.402 600 c 0
 210.402 578 228.402 362 244.402 161 c 0
 244.402 153 251.402 158 254.402 163 c 2
 475.402 629 l 2
 484.402 648 505.402 662 515.402 662 c 0
 519.402 662 520.402 657 523.402 646 c 1
 525.402 624 555.402 360 579.402 161 c 0
 579.402 153 587.402 158 589.402 163 c 2
 752.402 524 l 2
 762.402 548 774.402 576 777.402 594 c 0
 783.402 626 732.402 633 721.402 633 c 1
 717.402 635 721.402 657 727.402 662 c 1
 761.402 660 792.402 657 826.402 657 c 0
 869.402 657 880.402 660 918.402 662 c 1
 920.402 657 914.402 633 911.402 633 c 0
 904.402 633 868.402 624 846.402 607 c 0
 831.402 595 817.402 572 798.402 531 c 2
 565.402 32 l 2
 557.402 14 535.402 -2 523.402 -2 c 0
 519.402 -2 517.402 10 517.402 14 c 0
 495.402 202 481.402 303 457.402 498 c 0
 457.402 501 454.402 502 451.402 499 c 1
 228.402 32 l 2
 220.402 14 199.402 -2 187.402 -2 c 0
 183.402 -2 180.402 10 180.402 14 c 2
 132.402 532 l 2
 129.402 572 129.402 595 115.402 613 c 0
 105.402 626 75.4023 633 64.4023 633 c 0
 62.4023 633 68.4023 660 70.4023 662 c 1
 112.402 660 140.402 657 183.402 657 c 0
EndSplineSet
Validated: 33
Substitution2: "Ordinals-1" W.ordn
EndChar

StartChar: X
Encoding: 88 88 55
Width: 615
Flags: W
HStem: -3 29<-57.5571 8.47169 102.157 159.774 335.838 388.749 513.03 568.713> 633 29<102.184 146.619 284.272 338.561 471.985 524.983 616.703 673.068>
LayerCount: 2
Back
SplineSet
367 529 m 25
 525 153 l 25
288 498 m 25
 446 122 l 25
EndSplineSet
Fore
SplineSet
221.355 657 m 0
 267.355 657 303.355 660 341.355 662 c 1
 342.355 656 339.355 633 334.355 633 c 0
 321.355 633 277.355 627 272.355 601 c 0
 270.355 593 272.355 583 277.355 571 c 2
 351.355 392 l 1
 422.355 472 503.355 564 522.355 592 c 0
 524.355 595 529.355 602 530.355 608 c 0
 531.355 614 522.355 632 470.355 632 c 1
 466.355 633 470.355 654 474.355 661 c 1
 511.355 658 539.355 656 573.355 656 c 0
 621.355 656 653.355 659 676.355 661 c 1
 678.355 656 675.355 638 668.355 632 c 1
 661.355 632 612.355 628 579.355 592 c 2
 365.355 361 l 1
 488.355 66 l 2
 500.355 37 540.355 26 571.355 26 c 1
 574.355 21 567.355 -1 566.355 -3 c 1
 529.355 -1 510.355 2 472.355 2 c 0
 420.355 2 387.355 -1 335.355 -3 c 1
 331.355 2 335.355 26 340.355 26 c 0
 350.355 26 396.355 35 400.355 54 c 0
 401.355 57 399.355 63 398.355 66 c 2
 302.355 300 l 1
 231.355 220 123.355 94 104.355 66 c 0
 102.355 63 97.3555 56 96.3555 50 c 0
 95.3555 44 109.355 26 161.355 26 c 1
 164.355 20 159.355 0 157.355 -3 c 1
 123.355 -1 87.3555 2 53.3555 2 c 0
 5.35547 2 -23.6445 -1 -61.6445 -3 c 1
 -63.6445 3 -56.6445 23 -54.6445 26 c 1
 -47.6445 26 14.3555 30 47.3555 66 c 2
 286.355 332 l 1
 197.355 548 l 2
 183.355 584 172.355 601 149.355 617 c 0
 135.355 627 111.355 633 100.355 633 c 0
 95.3555 633 100.355 657 106.355 662 c 1
 151.355 660 175.355 657 221.355 657 c 0
EndSplineSet
Validated: 33
Substitution2: "Ordinals-1" X.ordn
EndChar

StartChar: Y
Encoding: 89 89 56
Width: 552
Flags: W
HStem: -3 29<119.028 189.049 280.495 340.138> 633 29<58.875 103.31 240.963 295.252 432.337 487.019 568.129 631.947>
LayerCount: 2
Fore
SplineSet
178.047 657 m 0
 224.047 657 260.047 660 298.047 662 c 1
 299.047 656 296.047 633 291.047 633 c 0
 278.047 633 234.047 627 229.047 601 c 0
 227.047 593 230.047 584 234.047 571 c 2
 311.047 338 l 2
 313.047 334 318.047 337 321.047 342 c 0
 384.047 430 471.047 561 488.047 592 c 0
 490.047 595 493.047 601 494.047 607 c 0
 495.047 613 483.047 632 431.047 632 c 0
 428.047 632 429.047 642 430.047 648 c 0
 431.047 652 433.047 658 435.047 661 c 1
 469.047 659 496.047 656 530.047 656 c 0
 578.047 656 595.047 659 633.047 661 c 1
 633.047 658 633.047 653 632.047 648 c 0
 631.047 642 628.047 632 625.047 632 c 0
 618.047 632 565.047 632 536.047 592 c 2
 331.047 301 l 2
 323.047 290 323.047 279 321.047 270 c 2
 290.047 116 l 2
 284.047 86 278.047 58 280.047 42 c 0
 281.047 31 330.047 26 341.047 26 c 1
 344.047 21 342.047 2 336.047 -3 c 1
 298.047 -1 264.047 2 228.047 2 c 0
 192.047 2 156.047 -1 117.047 -3 c 1
 113.047 2 118.047 21 123.047 26 c 1
 134.047 26 185.047 31 190.047 42 c 0
 198.047 58 203.047 86 209.047 116 c 2
 238.047 267 l 2
 239.047 274 240.047 285 237.047 295 c 2
 154.047 548 l 2
 142.047 585 129.047 601 106.047 617 c 0
 92.0469 627 68.0469 633 57.0469 633 c 0
 52.0469 633 57.0469 657 63.0469 662 c 1
 108.047 660 132.047 657 178.047 657 c 0
EndSplineSet
Validated: 33
Substitution2: "Ordinals-1" Y.ordn
EndChar

StartChar: Z
Encoding: 90 90 57
Width: 596
Flags: W
HStem: 0 37<114.382 416.028> 624 37<213.285 500.994> 649 20G<142.925 161.925 565.925 607.425>
LayerCount: 2
Fore
SplineSet
1.4248 0 m 2xa0
 -8.5752 0 -17.5752 8 -12.5752 14 c 2
 503.425 625 l 1
 274.425 624 l 2xc0
 211.425 624 158.425 574 122.425 492 c 0
 120.425 489 116.425 488 111.425 488 c 0
 103.425 488 90.4248 493 88.4248 496 c 1
 113.425 542 133.425 601 152.425 669 c 1xa0
 171.425 666 202.425 661 227.425 661 c 2
 408.425 661 l 2xc0
 486.425 661 526.425 665 605.425 671 c 1
 609.425 670 619.425 657 617.425 649 c 0
 614.425 641 120.425 51 120.425 51 c 2
 118.425 48 114.425 44 114.425 42 c 0
 113.425 39 117.425 37 122.425 37 c 2
 348.425 37 l 2
 442.425 37 483.425 122 510.425 172 c 0
 511.425 174 518.425 175 523.425 175 c 0
 532.425 175 541.425 170 544.425 166 c 1
 506.425 87 490.425 50 471.425 0 c 1
 1.4248 0 l 2xa0
EndSplineSet
Validated: 1
Substitution2: "Ordinals-1" Z.ordn
EndChar

StartChar: bracketleft
Encoding: 91 91 58
Width: 253
Flags: W
HStem: -102 45<68.25 160.952> 695 45<207.75 313.966>
VStem: 6 332
LayerCount: 2
Fore
SplineSet
183 740 m 0
 258 740 318 749 333 749 c 0
 335 749 338 749 338 743 c 0
 338 721 315 707 314 706 c 2
 314 706 268 695 218 695 c 0
 212 695 210 687 210 687 c 1
 66 -49 l 1
 66 -49 65 -57 71 -57 c 0
 121 -57 161 -74 161 -74 c 1
 163 -76 173 -77 169 -102 c 0
 167 -113 161 -114 161 -114 c 1
 161 -114 95 -102 19 -102 c 0
 7 -102 6 -92 6 -85 c 2
 6 -79 l 1
 160 717 l 2
 160 718 166 740 183 740 c 0
EndSplineSet
Validated: 1
Substitution2: "Ordinals-1" bracketleft.ordn
Substitution2: "'smcp' Lowercase to Small Capitals in Latin lookup 3-1" bracketleft.sc
EndChar

StartChar: backslash
Encoding: 92 92 59
Width: 373
Flags: W
VStem: 247 52<-37.0819 4.74306>
LayerCount: 2
Fore
SplineSet
131 761 m 0
 165 761 171 749 172 739 c 2
 298 13 l 2
 299 10 299 8 299 5 c 0
 299 -16 286 -37 270 -39 c 0
 264 -39 247 -37 247 -37 c 1
 111 755 l 1
 115 757 117 761 131 761 c 0
EndSplineSet
Validated: 1
Substitution2: "Ordinals-1" backslash.ordn
Substitution2: "'smcp' Lowercase to Small Capitals in Latin lookup 3-1" backslash.sc
EndChar

StartChar: bracketright
Encoding: 93 93 60
Width: 252
Flags: W
HStem: -102 45<-39.9146 66.2344> 695 45<110.031 206.981>
VStem: -61 328
LayerCount: 2
Back
SplineSet
31 -114 m 5
 31 -114 27.2618 -111.508 27.2618 -105.133 c 4
 27.2618 -88.58 46.9951 -74.0039 47 -74 c 6
 47 -74 93 -57 143 -57 c 4
 149 -57 152 -49 152 -49 c 5
EndSplineSet
Fore
SplineSet
106 749 m 0
 108 749 177 740 254 740 c 0
 265 740 267 732 267 725 c 0
 267 721 267 720 266 717 c 2
 112 -79 l 2
 112 -80 107 -102 90 -102 c 0
 14 -102 -57 -114 -57 -114 c 1
 -57 -114 -61 -111 -61 -105 c 0
 -61 -90 -46 -79 -41 -74 c 1
 -18 -66 15 -57 55 -57 c 0
 61 -57 64 -49 64 -49 c 1
 207 687 l 1
 207 687 208 695 202 695 c 0
 152 695 110 706 110 706 c 1
 108 708 98 713 98 728 c 0
 98 737 101 749 106 749 c 0
EndSplineSet
Validated: 1
Substitution2: "Ordinals-1" bracketright.ordn
Substitution2: "'smcp' Lowercase to Small Capitals in Latin lookup 3-1" bracketright.sc
EndChar

StartChar: asciicircum
Encoding: 94 94 61
Width: 303
Flags: W
HStem: 475 215
VStem: 13 283
LayerCount: 2
Fore
SplineSet
13 499 m 1
 22 514 104 565 174 677 c 0
 180 687 179 690 186 690 c 0
 208 690 196 670 237 588 c 0
 252 558 295 505 296 500 c 1
 294 492 286 475 279 475 c 0
 259 475 190 564 172 597 c 1
 123 540 32 475 21 475 c 0
 13 475 13 491 13 499 c 1
EndSplineSet
Validated: 1
Substitution2: "'smcp' Lowercase to Small Capitals in Latin lookup 3-1" asciicircum.sc
EndChar

StartChar: underscore
Encoding: 95 95 62
Width: 473
Flags: W
HStem: -43 56<-30.5284 393.031>
LayerCount: 2
Fore
SplineSet
-40 -37 m 0
 -40 -32 -24 13 -16 13 c 2
 398 13 l 2
 401 13 404 12 404 9 c 0
 404 5 396 -15 386 -37 c 0
 383 -43 380 -43 380 -43 c 1
 -35 -43 l 1
 -35 -43 -40 -43 -40 -37 c 0
EndSplineSet
Validated: 1
EndChar

StartChar: grave
Encoding: 96 96 63
Width: 162
Flags: W
HStem: 527 160
VStem: 20 72<636.657 684.221>
LayerCount: 2
Fore
SplineSet
20 659 m 0
 20 665 26 687 62 687 c 0
 76 687 89 683 92 678 c 0
 118 636 152 542 152 542 c 1
 152 535 145 527 138 527 c 0
 129 527 20 618 20 659 c 0
EndSplineSet
Validated: 1
EndChar

StartChar: a
Encoding: 97 97 64
Width: 443
Flags: W
HStem: -6 55<78.8113 155.385 284.004 325.107> 395 40<218.739 319.5>
VStem: 16 74<65.1934 221.895> 240 75<21.7226 164.743>
LayerCount: 2
Fore
SplineSet
302 435 m 4
 337 435 361 429 380 422 c 5
 319 106 l 6
 318 102 315 79 315 74 c 4
 315 65 315 49 325 49 c 4
 346 49 392 104 395 107 c 5
 398 107 405 94 405 88 c 5
 394 69 321 -6 274 -6 c 4
 253 -6 240 16 240 46 c 4
 240 54 243 78 247 99 c 4
 250 117 251 123 252 130 c 5
 232 94 163 -5 105 -5 c 4
 51 -5 16 43 16 113 c 4
 16 287 180 435 302 435 c 4
256 395 m 4
 179 395 90 266 90 151 c 4
 90 89 106 53 141 53 c 4
 191 53 262 178 281 274 c 6
 302 380 l 5
 293 390 269 395 256 395 c 4
EndSplineSet
Validated: 1
Substitution2: "Ordinals-1" a.ordn
Substitution2: "'smcp' Lowercase to Small Capitals in Latin lookup 3-1" a.sc
EndChar

StartChar: b
Encoding: 98 98 65
Width: 423
Flags: W
HStem: -6 33<124.543 197.431> 380 55<256.084 338> 631 21<73.307 129.742> 665 20G<198 211.5>
VStem: 134 81<547.219 666.737> 311 74<202.265 374.918>
LayerCount: 2
Fore
SplineSet
77 652 m 5
 132 657 187 677 209 685 c 5
 214 682 215 672 215 666 c 4
 215 658 207 616 202 591 c 6
 140 285 l 1
 210 402 283 435 315 435 c 0
 361 435 385 391 385 322 c 0
 385 142 240 -6 133 -6 c 0
 77 -6 40 37 40 111 c 0
 40 121 44 146 46 158 c 2
 125 559 l 6
 129 577 134 601 134 612 c 4
 134 631 89 631 73 631 c 5
 70 635 73 648 77 652 c 5
272 380 m 0
 229 380 136 266 115 156 c 0
 99 75 114 27 161 27 c 0
 245 27 311 221 311 302 c 0
 311 339 307 380 272 380 c 0
EndSplineSet
Validated: 33
Substitution2: "Ordinals-1" b.ordn
Substitution2: "'smcp' Lowercase to Small Capitals in Latin lookup 3-1" b.sc
EndChar

StartChar: c
Encoding: 99 99 66
Width: 353
Flags: W
HStem: -6 59<121.693 193.341> 394 41<198.636 288>
VStem: 21 78<74.6218 245.542>
LayerCount: 2
Fore
SplineSet
272 435 m 0
 304 435 321 421 334 410 c 1
 337 406 343 394 343 383 c 0
 343 360 332 338 309 338 c 0
 295 338 280 346 273 358 c 0
 263 374 250 394 221 394 c 0
 166 394 99 296 99 162 c 0
 99 127 105 53 168 53 c 0
 213 53 268 119 271 122 c 1
 274 122 283 108 283 102 c 1
 272 83 195 -6 132 -6 c 0
 61 -6 21 47 21 140 c 0
 21 300 169 435 272 435 c 0
EndSplineSet
Validated: 1
Substitution2: "Ordinals-1" c.ordn
Substitution2: "'smcp' Lowercase to Small Capitals in Latin lookup 3-1" c.sc
EndChar

StartChar: d
Encoding: 100 100 67
Width: 443
Flags: W
HStem: -6 55<74.8164 155.959 284.001 325.107> 395 40<219.947 287.664> 631 21<284.307 340.742> 665 20G<409 422.5>
VStem: 16 74<65.1712 219.36> 240 75<21.7226 163.305> 345 81<544.516 666.737>
LayerCount: 2
Fore
SplineSet
336 559 m 2
 339 577 345 601 345 612 c 0
 345 631 300 631 284 631 c 1
 281 635 284 648 288 652 c 1
 343 657 398 677 420 685 c 1
 425 682 426 672 426 666 c 0
 426 658 418 616 413 591 c 2
 319 106 l 2
 318 102 315 78 315 73 c 0
 315 64 315 49 325 49 c 0
 346 49 392 104 395 107 c 1
 398 107 405 94 405 88 c 1
 394 69 321 -6 274 -6 c 0
 253 -6 240 16 240 46 c 0
 240 54 243 78 247 99 c 0
 251 118 251 123 252 130 c 1
 237 100 164 -5 104 -5 c 0
 42 -5 16 58 16 116 c 0
 16 273 170 435 300 435 c 0
 325 435 307 435 313 435 c 1
 336 559 l 2
293 341 m 2
 297 364 285 395 258 395 c 0
 177 395 90 265 90 150 c 0
 90 95 104 53 141 53 c 0
 192 53 262 179 281 276 c 1
 293 341 l 2
EndSplineSet
Validated: 37
Substitution2: "Ordinals-1" d.ordn
Substitution2: "'smcp' Lowercase to Small Capitals in Latin lookup 3-1" d.sc
EndChar

StartChar: e
Encoding: 101 101 68
Width: 359
Flags: W
HStem: -6 59<121.417 194.244> 193 25<103 145.895> 394 41<194.759 297.5>
VStem: 21 78<76.3633 217.001 218 241.157> 264 74<313.223 388.912>
LayerCount: 2
Fore
SplineSet
272 435 m 4
 323 435 338 403 338 373 c 4
 338 277 163 193 101 193 c 5
 100 190 99 166 99 161 c 4
 99 100 118 53 168 53 c 4
 213 53 268 119 271 122 c 5
 274 122 283 108 283 102 c 5
 270 80 194 -6 131 -6 c 4
 60 -6 21 46 21 139 c 4
 21 287 157 435 272 435 c 4
103 218 m 5
 142 218 264 280 264 354 c 4
 264 381 241 394 222 394 c 4
 153 394 108 269 103 218 c 5
EndSplineSet
Validated: 1
Substitution2: "Ordinals-1" e.ordn
Substitution2: "'smcp' Lowercase to Small Capitals in Latin lookup 3-1" e.sc
EndChar

StartChar: f
Encoding: 102 102 69
Width: 292
Flags: W
HStem: -233 43<-86.5 -9.63745> 376 37<43.1577 121 201 305.371> 642 43<270.87 348.5>
DStem2: 8.12856 -233 81.351 -233 0.190809 0.981627<145.866 619.348 670.933 823.196>
LayerCount: 2
Fore
SplineSet
334 685 m 0
 363 685 381 673 388 660 c 1
 388 635 380 604 358 604 c 0
 341 604 331 615 320 627 c 0
 313 634 305 642 291 642 c 0
 252 642 232 572 201 413 c 1
 301 413 l 2
 305 413 306 406 306 401 c 0
 306 391 302 384 297 376 c 1
 194 376 l 1
 194 376 159 169 135 43 c 0
 103 -121 8 -233 -72 -233 c 0
 -101 -233 -119 -221 -126 -208 c 1
 -126 -183 -118 -152 -96 -152 c 0
 -79 -152 -69 -163 -58 -175 c 0
 -51 -182 -43 -190 -29 -190 c 0
 10 -190 30 -120 61 39 c 1
 121 376 l 1
 36 376 l 2
 35 376 34 377 34 379 c 0
 34 389 57 413 80 413 c 2
 127 413 l 1
 159 577 254 685 334 685 c 0
EndSplineSet
Validated: 1
Substitution2: "Ordinals-1" f.ordn
Substitution2: "'smcp' Lowercase to Small Capitals in Latin lookup 3-1" f.sc
EndChar

StartChar: g
Encoding: 103 103 70
Width: 405
Flags: W
HStem: -233 38<68.1439 227.883> 122 30<137.912 150> 403 33<165.087 240.782>
VStem: -51 74<-159.73 -77.0035> 37 75<173.852 328.039> 50 88<45 83.0928> 275 64<-150.224 -71.33 218.91 369.262>
LayerCount: 2
Fore
SplineSet
275 -118 m 0xf2
 275 -55 184 -25 126 -7 c 1
 86 -24 23 -54 23 -110 c 0
 23 -170 88 -195 166 -195 c 0
 229 -195 275 -160 275 -118 c 0xf2
209 403 m 0
 145 403 112 316 112 247 c 0xfa
 112 198 131 152 173 152 c 0
 231 152 270 232 270 294 c 0
 270 343 248 403 209 403 c 0
330 381 m 1
 331 375 344 339 344 312 c 0
 344 206 273 157 253 145 c 0
 218 124 138 105 138 82 c 0
 138 49 339 39 339 -78 c 0
 339 -173 248 -233 105 -233 c 0
 15 -233 -51 -197 -51 -135 c 0
 -51 -66 34 -21 93 6 c 1
 75 18 l 2
 63 26 50 36 50 54 c 0xf6
 50 79 117 114 150 122 c 1
 118 122 37 160 37 239 c 0
 37 352 133 436 226 436 c 0
 264 436 286 426 311 414 c 0
 325 407 361 427 374 429 c 1
 387 425 415 407 415 394 c 0
 415 387 411 380 403 380 c 0
 389 380 343 382 330 381 c 1
EndSplineSet
Validated: 33
Substitution2: "Ordinals-1" g.ordn
Substitution2: "'smcp' Lowercase to Small Capitals in Latin lookup 3-1" g.sc
EndChar

StartChar: h
Encoding: 104 104 71
Width: 464
Flags: W
HStem: -6 55<286 350.107> 361 74<283.866 353.5> 631 21<75.307 131.742> 665 20G<200 213.5>
VStem: 136 81<548.203 666.737> 263 75<21.7226 171.078> 312 77<222.125 388>
LayerCount: 2
Fore
SplineSet
204 591 m 2xfa
 153 330 l 1
 135 238 l 1
 148 263 268 435 334 435 c 0
 373 435 389 407 389 369 c 0xfa
 389 335 383 298 375 260 c 2
 342 106 l 2
 341 102 338 79 338 74 c 0
 338 65 338 49 348 49 c 0
 369 49 415 104 418 107 c 1
 421 107 428 94 428 88 c 1
 417 69 344 -6 297 -6 c 0
 275 -6 263 16 263 46 c 0xfc
 263 54 265 78 270 99 c 2
 305 264 l 2
 307 273 312 307 312 318 c 0
 312 341 310 361 293 361 c 0
 257 361 137 236 114 119 c 0
 108 88 99 46 89 0 c 1
 79 -3 63 -4 53 -4 c 0
 43 -4 31 -3 19 0 c 1
 127 559 l 2
 130 577 136 601 136 612 c 0
 136 631 91 631 75 631 c 1
 72 635 75 648 79 652 c 1
 134 657 189 677 211 685 c 1
 216 682 217 672 217 666 c 0
 217 658 209 616 204 591 c 2xfa
EndSplineSet
Validated: 1
Substitution2: "Ordinals-1" h.ordn
Substitution2: "'smcp' Lowercase to Small Capitals in Latin lookup 3-1" h.sc
EndChar

StartChar: i
Encoding: 105 105 72
Width: 255
Flags: W
HStem: -6 55<72.5 136.107> 380 55<93.7782 157.5> 546 100<123.035 187.228>
VStem: 49 75<46 126.683> 111 75<302.317 383> 112 88<557.783 635.875>
LayerCount: 2
Fore
SplineSet
107 323 m 6xf0
 108 329 111 350 111 355 c 4
 111 364 111 380 101 380 c 4
 80 380 34 325 31 322 c 5
 28 322 21 335 21 341 c 5
 32 360 100 435 147 435 c 4
 168 435 186 413 186 383 c 4xe8
 186 375 183 351 179 330 c 6
 128 106 l 2
 126 96 124 79 124 74 c 0
 124 65 124 49 134 49 c 0
 155 49 201 104 204 107 c 1
 207 107 214 94 214 88 c 1
 203 69 130 -6 83 -6 c 0
 62 -6 49 16 49 46 c 0
 49 54 52 78 56 99 c 2
 107 323 l 6xf0
164 646 m 0
 185 646 200 627 200 606 c 0
 200 575 177 546 146 546 c 0
 124 546 112 567 112 589 c 0xe4
 112 619 134 646 164 646 c 0
EndSplineSet
Validated: 1
Substitution2: "Ordinals-1" i.ordn
Substitution2: "'smcp' Lowercase to Small Capitals in Latin lookup 3-1" i.sc
EndChar

StartChar: j
Encoding: 106 106 73
Width: 243
Flags: W
HStem: 380 55<100.778 164.5> 546 100<141.035 205.228>
VStem: 118 75<251.148 406.545> 130 88<557.783 635.875>
LayerCount: 2
Fore
SplineSet
114 323 m 2xe0
 115 329 118 350 118 355 c 0
 118 364 118 380 108 380 c 0
 87 380 41 325 38 322 c 1
 35 322 28 335 28 341 c 1
 39 360 107 435 154 435 c 0
 175 435 193 413 193 383 c 0
 193 375 190 351 186 330 c 2
 131 45 l 6
 124 9 103 -67 60 -124 c 4
 18 -179 -44 -221 -79 -235 c 5
 -83 -232 -88 -222 -88 -215 c 5
 -21 -177 32 -89 54 22 c 6
 114 323 l 2xe0
182 646 m 0
 203 646 218 627 218 606 c 0
 218 575 195 546 164 546 c 0
 142 546 130 567 130 589 c 0xd0
 130 619 152 646 182 646 c 0
EndSplineSet
Validated: 1
Substitution2: "Ordinals-1" j.ordn
Substitution2: "'smcp' Lowercase to Small Capitals in Latin lookup 3-1" j.sc
EndChar

StartChar: k
Encoding: 107 107 74
Width: 455
Flags: W
HStem: -4 55<291.109 350.184> 388 47<252.169 341.5> 631 21<76.307 132.742> 665 20G<201 214.5>
VStem: 137 81<547.516 666.737> 319 78<300.053 386.608>
LayerCount: 2
Fore
SplineSet
322 435 m 4
 361 435 397 406 397 367 c 4
 397 276 297 230 186 211 c 5
 274 79 302 51 343 51 c 4
 360 51 400 93 411 107 c 5
 414 107 421 93 421 88 c 5
 413 74 343 -4 299 -4 c 4
 220 -4 170 119 127 191 c 5
 90 0 l 5
 79 -3 66 -5 55 -5 c 4
 44 -5 31 -3 19 0 c 5
 128 559 l 6
 132 577 137 601 137 612 c 4
 137 631 92 631 76 631 c 5
 73 635 76 648 80 652 c 5
 135 657 190 677 212 685 c 5
 217 682 218 672 218 666 c 4
 218 658 210 616 205 591 c 6
 153 322 l 5
 158 326 236 435 322 435 c 4
286 388 m 4
 228 388 147 291 135 230 c 5
 202 230 319 271 319 354 c 4
 319 372 314 388 286 388 c 4
EndSplineSet
Validated: 1
Substitution2: "Ordinals-1" k.ordn
Substitution2: "'smcp' Lowercase to Small Capitals in Latin lookup 3-1" k.sc
EndChar

StartChar: l
Encoding: 108 108 75
Width: 236
Flags: W
HStem: -6 55<56 120.107> 631 21<78.307 134.742> 665 20G<203 216.5>
VStem: 33 75<21.7226 176.133> 139 81<545.078 666.737>
LayerCount: 2
Fore
SplineSet
130 559 m 2
 134 577 139 601 139 612 c 0
 139 631 94 631 78 631 c 1
 75 635 78 648 82 652 c 1
 137 657 192 677 214 685 c 1
 219 682 220 672 220 666 c 0
 220 658 212 616 207 591 c 2
 112 106 l 2
 111 102 108 79 108 74 c 0
 108 65 108 49 118 49 c 0
 139 49 185 104 188 107 c 1
 191 107 198 94 198 88 c 1
 187 69 114 -6 67 -6 c 0
 45 -6 33 16 33 46 c 0
 33 54 36 78 40 99 c 2
 130 559 l 2
EndSplineSet
Validated: 1
Substitution2: "Ordinals-1" l.ordn
Substitution2: "'smcp' Lowercase to Small Capitals in Latin lookup 3-1" l.sc
EndChar

StartChar: m
Encoding: 109 109 76
Width: 708
Flags: W
HStem: -6 55<551.004 592.107> 361 74<289.275 358.352 523.056 586.158> 380 55<91.7782 137.496>
VStem: 109 75<262.047 406.545> 326 75<221.316 360.953> 507 75<21.7226 171.078> 556 77<222.125 389.5>
LayerCount: 2
Back
SplineSet
596 361 m 4
 613 361 615 341 615 318 c 4
 615 307 609.87 272.815 608 264 c 6
 573 99 l 6
 569 78 566 54 566 46 c 4
 566 16 579 -6 600 -6 c 4
 646.676 -5.96094 714.665 68.5273 726 88 c 5
 726 94 716 111 713 111 c 5
 710 108 668 56 647 56 c 4
 637 56 637 72 637 81 c 4
 637 86 639 102 640 106 c 6
 673 260 l 6
 682 301 687 332 687 369 c 4
 687 407 676 435 637 435 c 4
EndSplineSet
Fore
SplineSet
514 99 m 2xdc
 549 264 l 2
 551 273 556 307 556 318 c 0
 556 344 555 361 537 361 c 0
 497 361 382 233 363 132 c 2
 338 0 l 1
 324 -1 315 -3 301 -3 c 0
 287 -3 280 -1 266 0 c 1
 322 284 l 2
 325 300 326 313 326 322 c 0
 326 348 319 361 306 361 c 0xda
 261 361 155 218 135 122 c 2
 110 0 l 1
 96 -2 88 -4 74 -4 c 0
 60 -4 53 -2 39 0 c 1
 105 323 l 2
 106 329 109 350 109 355 c 0
 109 364 109 380 99 380 c 0
 78 380 32 325 29 322 c 1
 26 322 19 335 19 341 c 1
 30 360 98 435 145 435 c 0xba
 166 435 184 413 184 383 c 0
 184 375 180 351 176 330 c 0
 169 294 164 273 156 237 c 1
 192 300 282 435 334 435 c 0
 392 435 401 384 401 340 c 0
 401 316 393 268 387 251 c 1
 423 314 519 435 571 435 c 0
 617 435 633 410 633 369 c 0xda
 633 335 626 292 619 260 c 2
 586 106 l 2
 584 96 582 79 582 74 c 0
 582 65 582 49 592 49 c 0
 613 49 659 104 662 107 c 1
 665 107 672 94 672 88 c 1
 661 69 588 -6 541 -6 c 0
 520 -6 507 16 507 46 c 0
 507 54 510 78 514 99 c 2xdc
EndSplineSet
Validated: 1
Substitution2: "Ordinals-1" m.ordn
Substitution2: "'smcp' Lowercase to Small Capitals in Latin lookup 3-1" m.sc
EndChar

StartChar: n
Encoding: 110 110 77
Width: 491
Flags: W
HStem: -6 55<313.5 377.107> 361 74<303.5 369.158> 380 55<91.7782 155.5>
VStem: 109 75<250.133 406.545> 290 75<21.7226 171.078> 339 77<222.125 389.5>
LayerCount: 2
Fore
SplineSet
176 330 m 2xb4
 158 246 l 1
 171 271 287 435 354 435 c 0
 400 435 416 410 416 369 c 0xd4
 416 338 409 294 402 260 c 2
 369 106 l 2
 367 96 365 79 365 74 c 0
 365 65 365 49 375 49 c 0
 396 49 442 104 445 107 c 1
 448 107 455 94 455 88 c 1
 444 69 371 -6 324 -6 c 0
 303 -6 290 16 290 46 c 0xd8
 290 54 293 78 297 99 c 2
 332 264 l 2
 334 273 339 307 339 318 c 0
 339 344 338 361 320 361 c 0xd4
 283 361 159 247 135 122 c 0
 126 74 120 48 110 0 c 1
 96 -2 88 -4 74 -4 c 0
 60 -4 53 -2 39 0 c 1
 105 323 l 2
 106 329 109 350 109 355 c 0
 109 364 109 380 99 380 c 0
 78 380 32 325 29 322 c 1
 26 322 19 335 19 341 c 1
 30 360 98 435 145 435 c 0
 166 435 184 413 184 383 c 0
 184 375 181 351 176 330 c 2xb4
EndSplineSet
Validated: 1
Substitution2: "Ordinals-1" n.ordn
Substitution2: "'smcp' Lowercase to Small Capitals in Latin lookup 3-1" n.sc
EndChar

StartChar: o
Encoding: 111 111 78
Width: 408
Flags: W
HStem: -5 32<125.829 199.828> 403 32<189.936 262.934>
VStem: 21 78<49.2289 249.363> 287 78<176.798 384.03>
LayerCount: 2
Fore
SplineSet
234 403 m 0
 150 403 99 258 99 158 c 0
 99 78 120 27 156 27 c 0
 239 27 287 173 287 273 c 0
 287 353 270 403 234 403 c 0
248 435 m 0
 328 435 365 374 365 288 c 0
 365 148 252 -5 137 -5 c 0
 57 -5 21 52 21 138 c 0
 21 278 133 435 248 435 c 0
EndSplineSet
Validated: 1
Substitution2: "Ordinals-1" o.ordn
Substitution2: "'smcp' Lowercase to Small Capitals in Latin lookup 3-1" o.sc
EndChar

StartChar: p
Encoding: 112 112 79
Width: 442
Flags: W
HStem: -235 29<-56.9379 -16.6636> -226 27<85.0912 131.869> -5 35<142.288 221.913> 380 55<254.859 349.785>
VStem: 330.287 74<198.629 368.99>
LayerCount: 2
Fore
SplineSet
277.287 380 m 4x38
 244.287 380 186.287 338 159.287 300 c 5
 126.287 131 l 6
 115.287 72 143.287 30 173.287 30 c 4
 258.287 30 330.287 184 330.287 303 c 4
 330.287 358 309.287 380 277.287 380 c 4x38
317.287 435 m 4
 381.287 435 404.287 384 404.287 314 c 4
 404.287 159 274.287 -5 152.287 -5 c 4
 135.287 -5 112.287 -2 106.287 8 c 5
 73.2871 -145 l 6
 71.2871 -154 70.2871 -163 70.2871 -173 c 4
 70.2871 -178 74.2871 -193 84.2871 -196 c 4
 101.287 -200 128.287 -199 131.287 -199 c 4
 135.287 -200 133.287 -225 128.287 -227 c 5
 115.287 -227 104.287 -226 93.2871 -226 c 4x78
 42.2871 -226 3.28711 -228 -54.7129 -235 c 5
 -59.7129 -234 -58.7129 -209 -53.7129 -206 c 5xb8
 -35.7129 -206 -22.7129 -201 -13.7129 -190 c 4
 -6.71289 -181 -2.71289 -170 2.28711 -147 c 6
 81.2871 250 l 5
 33.2871 202 l 5
 29.2871 207 27.2871 217 27.2871 222 c 4
 27.2871 226 29.2871 228 30.2871 229 c 6
 89.2871 292 l 5
 115.287 433 l 5
 126.287 436 142.287 437 153.287 437 c 4
 164.287 437 175.287 435 185.287 430 c 5
 181.287 411 170.287 353 169.287 346 c 5
 196.287 371 266.287 435 317.287 435 c 4
EndSplineSet
Validated: 33
Substitution2: "Ordinals-1" p.ordn
Substitution2: "'smcp' Lowercase to Small Capitals in Latin lookup 3-1" p.sc
EndChar

StartChar: q
Encoding: 113 113 80
Width: 420
Flags: W
HStem: -227 19<291.469 317.369> -5 58<73 156.391> 395 40<219.624 317.5>
VStem: 16 74<65.1712 219.36>
LayerCount: 2
Fore
SplineSet
314 -228 m 1
 300 -228 287 -227 274 -227 c 0
 216 -227 161 -231 124 -235 c 1
 122 -233 121 -208 127 -208 c 0
 156 -205 190 -197 195 -171 c 2
 251 130 l 1
 231 94 162 -5 104 -5 c 0
 42 -5 16 58 16 116 c 0
 16 273 170 435 300 435 c 0
 335 435 360 429 379 422 c 1
 318 106 l 2
 317 102 272 -150 272 -150 c 2
 271 -158 270 -165 270 -171 c 0
 270 -185 272 -201 316 -201 c 0
 320 -201 319 -225 314 -228 c 1
293 341 m 2
 297 364 285 395 258 395 c 0
 177 395 90 265 90 150 c 0
 90 95 104 53 141 53 c 0
 192 53 262 179 281 276 c 1
 293 341 l 2
EndSplineSet
Validated: 33
Substitution2: "Ordinals-1" q.ordn
Substitution2: "'smcp' Lowercase to Small Capitals in Latin lookup 3-1" q.sc
EndChar

StartChar: r
Encoding: 114 114 81
Width: 350
Flags: W
HStem: -3 21G<74.5 86.5> 365 70<263.712 336.811> 380 55<90.7782 154.5>
VStem: 108 75<242.42 406.545>
LayerCount: 2
Fore
SplineSet
44 0 m 1xd0
 104 323 l 2
 105 329 108 350 108 355 c 0
 108 364 108 380 98 380 c 0
 77 380 31 325 28 322 c 1
 25 322 18 335 18 341 c 1
 29 360 97 435 144 435 c 0xb0
 165 435 183 413 183 383 c 0
 183 375 179 351 175 330 c 0
 169 297 165 279 158 246 c 1
 186 313 257 435 304 435 c 0
 326 435 344 424 353 414 c 0
 357 409 362 396 362 386 c 0
 362 360 349 342 326 342 c 0
 317 342 304 348 296 357 c 0
 292 362 284 365 276 365 c 0
 240 365 156 226 137 122 c 2
 115 0 l 1
 104 -2 92 -3 81 -3 c 0
 68 -3 56 -2 44 0 c 1xd0
EndSplineSet
Validated: 1
Substitution2: "Ordinals-1" r.ordn
Substitution2: "'smcp' Lowercase to Small Capitals in Latin lookup 3-1" r.sc
EndChar

StartChar: s
Encoding: 115 115 82
Width: 317
Flags: W
HStem: -6 32<91.9586 168.788> 404 34<130.121 201.386>
VStem: 58 58<293.506 376.858> 182 61<48.1324 139.924>
LayerCount: 2
Fore
SplineSet
197 438 m 0
 237 438 262 429 283 411 c 1
 288 404 293 386 293 379 c 0
 293 356 279 338 259 338 c 0
 241 338 225 355 212 373 c 0
 201 389 194 404 165 404 c 0
 130 404 116 369 116 348 c 0
 116 308 151 277 182 242 c 4
 213 206 243 167 243 117 c 4
 243 43 182 -6 98 -6 c 4
 67 -6 36 2 10 24 c 5
 7 29 0 44 0 54 c 4
 0 83 17 100 37 100 c 4
 57 100 65 76 80 55 c 4
 91 40 106 26 133 26 c 4
 173 26 182 63 182 84 c 4
 182 119 156 146 130 176 c 4
 95 215 58 255 58 312 c 4
 58 368 113 438 197 438 c 0
EndSplineSet
Validated: 1
Substitution2: "Ordinals-1" s.ordn
Substitution2: "'smcp' Lowercase to Small Capitals in Latin lookup 3-1" s.sc
EndChar

StartChar: t
Encoding: 116 116 83
Width: 272
Flags: W
HStem: -6 55<68.5 132.107> 376 37<46.1577 106 184 263.371>
VStem: 45 75<21.7226 177.312>
LayerCount: 2
Fore
SplineSet
113 413 m 1
 124 472 l 1
 135 486 181 538 189 538 c 0
 195 538 202 535 206 532 c 1
 184 413 l 1
 259 413 l 2
 263 413 264 406 264 401 c 0
 264 391 260 384 255 376 c 1
 177 376 l 1
 124 106 l 2
 122 96 120 79 120 74 c 0
 120 65 120 49 130 49 c 0
 151 49 197 104 200 107 c 1
 203 107 210 94 210 88 c 1
 199 69 126 -6 79 -6 c 0
 58 -6 45 16 45 46 c 0
 45 54 48 78 52 99 c 2
 106 376 l 1
 39 376 l 2
 38 376 37 377 37 379 c 0
 37 389 60 413 83 413 c 2
 113 413 l 1
EndSplineSet
Validated: 1
Substitution2: "Ordinals-1" t.ordn
Substitution2: "'smcp' Lowercase to Small Capitals in Latin lookup 3-1" t.sc
EndChar

StartChar: u
Encoding: 117 117 84
Width: 484
Flags: W
HStem: -6 74<99.5526 160.733> -6 55<304.5 368.107> 380 55<88.7782 152.5>
VStem: 55 77<47 206.875> 106 75<257.922 406.545> 281 75<21.7226 187.893>
LayerCount: 2
Fore
SplineSet
288 99 m 4x74
 294 133 299 152 306 186 c 5
 280 130 171 -6 105 -6 c 4
 66 -6 55 28 55 66 c 4xb4
 55 94 63 140 69 169 c 6
 102 323 l 6
 103 329 106 350 106 355 c 4
 106 364 106 380 96 380 c 4
 75 380 29 325 26 322 c 5
 23 322 16 335 16 341 c 5
 27 360 95 435 142 435 c 4
 163 435 181 413 181 383 c 4xac
 181 375 178 351 174 330 c 6
 139 165 l 6
 137 156 132 122 132 111 c 4
 132 88 134 68 151 68 c 4xb4
 187 68 306 194 330 319 c 4
 338 362 343 386 352 429 c 5
 362 432 373 433 383 433 c 4
 393 433 410 432 422 429 c 5
 360 106 l 6
 358 96 356 79 356 74 c 4
 356 65 356 49 366 49 c 4
 387 49 433 104 436 107 c 5
 439 107 446 94 446 88 c 5
 435 69 362 -6 315 -6 c 4
 294 -6 281 16 281 46 c 4
 281 54 284 78 288 99 c 4x74
EndSplineSet
Validated: 1
Substitution2: "Ordinals-1" u.ordn
Substitution2: "'smcp' Lowercase to Small Capitals in Latin lookup 3-1" u.sc
EndChar

StartChar: v
Encoding: 118 118 85
Width: 432
Flags: W
HStem: -6 21G<107.5 145.5> 380 55<85.7782 149.5>
VStem: 103 75<66.0033 379.988> 335 76<274.116 407.361>
LayerCount: 2
Fore
SplineSet
182 65 m 1
 253 126 279 164 310 226 c 0
 328 262 335 310 335 333 c 0
 335 354 326 379 309 396 c 1
 315 413 332 435 356 435 c 0
 394 435 411 401 411 355 c 0
 411 229 180 -6 111 -6 c 1
 104 2 103 118 103 148 c 2
 103 355 l 2
 103 364 103 380 93 380 c 0
 72 380 26 325 23 322 c 1
 20 322 13 335 13 341 c 1
 24 360 92 435 139 435 c 0
 160 435 178 411 178 381 c 2
 178 328 l 1
 178 176 l 2
 178 133 179 86 182 65 c 1
EndSplineSet
Validated: 1
Substitution2: "Ordinals-1" v.ordn
Substitution2: "'smcp' Lowercase to Small Capitals in Latin lookup 3-1" v.sc
EndChar

StartChar: w
Encoding: 119 119 86
Width: 622
Flags: W
HStem: -6 21G<107.5 132 331.5 369.5> 380 55<85.7782 149.5>
VStem: 103 75<90.9852 379.988> 315 72<76.7733 214> 523 76<266.468 407.361>
LayerCount: 2
Fore
SplineSet
381 375 m 1
 382 334 384 246 387 183 c 0
 389 140 392 92 402 76 c 1
 455 122 486 165 509 229 c 0
 523 267 523 310 523 333 c 0
 523 354 514 379 497 396 c 1
 503 413 520 435 544 435 c 0
 582 435 599 401 599 355 c 0
 599 229 404 -6 335 -6 c 1
 328 2 316 120 315 150 c 0
 314 176 313 214 313 214 c 1
 246 118 153 -6 111 -6 c 1
 104 2 103 118 103 148 c 2
 103 355 l 2
 103 364 103 380 93 380 c 0
 72 380 26 325 23 322 c 1
 20 322 13 335 13 341 c 1
 24 360 92 435 139 435 c 0
 160 435 178 411 178 381 c 2
 178 328 l 1
 178 176 l 2
 178 133 179 111 182 90 c 1
 227 138 277 223 295 255 c 0
 319 299 329 326 338 347 c 1
 346 357 368 372 381 375 c 1
EndSplineSet
Validated: 1
Substitution2: "Ordinals-1" w.ordn
Substitution2: "'smcp' Lowercase to Small Capitals in Latin lookup 3-1" w.sc
EndChar

StartChar: x
Encoding: 120 120 87
Width: 476
Flags: W
HStem: -4 55<53.5 114.763 284.5 351.184> 380 55<104.816 171.5 341.237 402.5>
LayerCount: 2
Fore
SplineSet
156 435 m 0
 187 435 211 393 224 349 c 2
 248 268 l 1
 308 371 l 2
 324 399 355 435 388 435 c 0
 417 435 435 421 447 411 c 1
 451 403 456 393 456 385 c 0
 456 364 447 338 422 338 c 0
 407 338 392 347 385 360 c 0
 380 370 369 378 359 378 c 0
 352 378 340 366 332 352 c 2
 260 230 l 1
 303 89 l 2
 309 68 323 51 344 51 c 0
 361 51 401 93 412 107 c 1
 415 107 422 93 422 88 c 1
 414 74 344 -4 300 -4 c 0
 269 -4 245 38 232 82 c 2
 208 163 l 1
 148 60 l 2
 132 32 101 -4 68 -4 c 0
 39 -4 21 10 9 20 c 1
 5 28 0 38 0 46 c 0
 0 67 9 93 34 93 c 0
 49 93 64 84 71 71 c 0
 76 61 87 53 97 53 c 0
 104 53 116 65 124 79 c 2
 196 201 l 1
 153 342 l 2
 147 363 133 380 112 380 c 0
 95 380 55 338 44 324 c 1
 41 324 34 338 34 343 c 1
 42 357 112 435 156 435 c 0
EndSplineSet
Validated: 1
Substitution2: "Ordinals-1" x.ordn
Substitution2: "'smcp' Lowercase to Small Capitals in Latin lookup 3-1" x.sc
EndChar

StartChar: y
Encoding: 121 121 88
Width: 442
Flags: W
HStem: -233 66<-97.8058 15.5759> 380 55<76.7782 173>
VStem: 144 75<15 256.979> 334 69<239.016 407.385>
LayerCount: 2
Fore
SplineSet
130 435 m 0
 216 435 219 76 219 15 c 1
 255 59 334 176 334 285 c 0
 334 346 320 371 309 392 c 1
 317 418 335 435 359 435 c 0
 401 435 403 378 403 356 c 0
 403 122 82 -233 -53 -233 c 0
 -89 -233 -113 -214 -113 -192 c 0
 -113 -175 -105 -156 -90 -148 c 1
 -75 -157 -32 -167 -10 -167 c 0
 52 -167 93 -132 126 -84 c 0
 149 -50 144 19 144 62 c 0
 144 176 133 380 84 380 c 0
 63 380 17 325 14 322 c 1
 11 322 4 335 4 341 c 1
 15 360 83 435 130 435 c 0
EndSplineSet
Validated: 33
Substitution2: "Ordinals-1" y.ordn
Substitution2: "'smcp' Lowercase to Small Capitals in Latin lookup 3-1" y.sc
EndChar

StartChar: z
Encoding: 122 122 89
Width: 381
Flags: W
HStem: 0 69<184.954 258.598> 32 71<50.8692 168.047> 332 72<187.805 307.44> 366 69<100.951 177.455>
VStem: 40 12<299.388 308.76>
LayerCount: 2
Fore
SplineSet
142 435 m 0x18
 171 435 194 424 219 415 c 0
 236 409 254 404 275 404 c 0x28
 312 404 357 435 365 435 c 1
 373 431 376 422 376 415 c 0
 376 401 92 96 89 92 c 1
 93 94 113 103 135 103 c 0x58
 157 103 178 95 197 86 c 0
 216 78 234 69 250 69 c 0
 276 69 302 127 308 136 c 1
 317 136 319 128 320 120 c 1
 303 82 262 0 215 0 c 0x88
 191 0 161 12 135 22 c 0
 119 28 87 32 64 32 c 0x48
 35 32 18 10 -2 0 c 1
 -8 2 -12 10 -13 19 c 1
 -13 34 287 349 289 353 c 1
 286 351 259 332 226 332 c 0xa8
 204 332 184 341 165 349 c 0
 146 358 128 366 111 366 c 0
 83 366 58 307 52 298 c 1
 45 298 41 305 40 314 c 1
 46 334 96 435 142 435 c 0x18
EndSplineSet
Validated: 1
Substitution2: "Ordinals-1" z.ordn
Substitution2: "'smcp' Lowercase to Small Capitals in Latin lookup 3-1" z.sc
EndChar

StartChar: braceleft
Encoding: 123 123 90
Width: 237
Flags: W
HStem: -125 29<106.762 142.946> 721 29<259.408 307.318>
VStem: 22 41<-59.0269 67.4799> 104 45<168.165 271.788> 123 55<446.419 636.192> 140 49<369.477 561.081>
LayerCount: 2
Fore
SplineSet
22 12 m 0xf0
 22 120 104 165 104 233 c 0xf0
 104 273 65 280 32 292 c 1
 32 298 l 2
 32 307 34 320 40 329 c 1
 92 343 140 358 140 425 c 0xe4
 140 464 123 506 123 549 c 0
 123 622 186 750 307 750 c 0
 309 750 310 749 310 746 c 0
 310 738 302 722 295 721 c 0
 281 720 178 690 178 577 c 0xe8
 178 538 189 507 189 464 c 0xe4
 189 362 127 309 90 308 c 1
 119 307 149 273 149 222 c 0
 149 125 63 82 63 0 c 0
 63 -55 110 -94 136 -96 c 0
 140 -97 143 -104 143 -112 c 0
 143 -119 141 -125 137 -125 c 0
 69 -125 22 -69 22 12 c 0xf0
EndSplineSet
Validated: 1
Substitution2: "Ordinals-1" braceleft.ordn
Substitution2: "'smcp' Lowercase to Small Capitals in Latin lookup 3-1" braceleft.sc
EndChar

StartChar: bar
Encoding: 124 124 91
Width: 200
Flags: W
VStem: -2.92285 228
LayerCount: 2
Fore
SplineSet
166.077 757 m 1
 176.077 767 192.077 773 210.077 773 c 0
 217.077 773 226.077 770 225.077 766 c 2
 57.0771 -106 l 1
 50.0771 -114 30.0771 -123 11.0771 -123 c 0
 5.07715 -123 -3.92285 -120 -2.92285 -115 c 2
 166.077 757 l 1
EndSplineSet
Validated: 1
Substitution2: "Ordinals-1" bar.ordn
Substitution2: "'smcp' Lowercase to Small Capitals in Latin lookup 3-1" bar.sc
EndChar

StartChar: braceright
Encoding: 125 125 92
Width: 237
Flags: W
HStem: -125 29<-52.0235 -5.28705> 721 29<112.054 151.03>
VStem: 58 56<64.9619 244.295> 78 53<-4.7867 178.015> 108 42<350.11 451.072> 192 45<556.929 689.31>
LayerCount: 2
Fore
SplineSet
237 623 m 0xcc
 237 510 150 460 150 390 c 0xcc
 150 350 186 339 221 329 c 1
 222 327 222 324 222 321 c 0
 222 311 218 298 215 292 c 1
 176 280 114 272 114 199 c 0xe4
 114 161 131 121 131 79 c 0
 131 -4 52 -125 -52 -125 c 0
 -54 -125 -55 -123 -55 -121 c 0
 -55 -113 -46 -97 -39 -96 c 0
 -15 -94 78 -47 78 47 c 0xd4
 78 89 58 114 58 161 c 0xe4
 58 251 123 307 162 308 c 1
 134 309 108 342 108 391 c 0
 108 486 192 554 192 631 c 0
 192 685 145 719 119 721 c 0
 115 722 112 729 112 737 c 0
 112 744 114 750 118 750 c 0
 185 750 237 706 237 623 c 0xcc
EndSplineSet
Validated: 1
Substitution2: "Ordinals-1" braceright.ordn
Substitution2: "'smcp' Lowercase to Small Capitals in Latin lookup 3-1" braceright.sc
EndChar

StartChar: asciitilde
Encoding: 126 126 93
Width: 542
Flags: W
HStem: 250 51<309.779 446.709> 303 51<116.05 249.516>
LayerCount: 2
Fore
SplineSet
195 354 m 0
 283 354 315 301 403 301 c 0
 439 301 465 322 496 345 c 1
 498 343 502 341 502 335 c 0
 502 305 438 250 367 250 c 0
 279 250 244 303 156 303 c 0
 120 303 94 282 63 259 c 1
 61 261 57 263 57 269 c 0
 57 308 140 354 195 354 c 0
EndSplineSet
Validated: 1
Substitution2: "Ordinals-1" asciitilde.ordn
Substitution2: "'smcp' Lowercase to Small Capitals in Latin lookup 3-1" asciitilde.sc
EndChar

StartChar: exclamdown
Encoding: 161 161 95
Width: 197
VWidth: 0
Flags: W
HStem: 324 116<88.125 157>
VStem: -40 91<-253.388 -124.039> 68 108<342.451 420.226>
LayerCount: 2
Fore
SplineSet
-3 -269 m 19
 -28 -269 -40 -248 -40 -223 c 0
 -40 -198 -35 -193 79 256 c 0
 82 268 89 281 95 278 c 0
 108 271 112 267 112 257 c 1
 112 257 52 -199 51 -206 c 0
 45 -237 26 -269 -3 -269 c 19
68 369 m 0
 68 406 100 440 133 440 c 0
 159 440 176 419 176 393 c 0
 176 355 144 324 111 324 c 0
 85 324 68 343 68 369 c 0
EndSplineSet
Validated: 1
Substitution2: "'smcp' Lowercase to Small Capitals in Latin lookup 3-1" exclamdown.sc
EndChar

StartChar: cent
Encoding: 162 162 96
Width: 331
Flags: W
HStem: -45 41<77.196 104> -4 61<84.6589 192.211> 396 39<176.749 256>
VStem: 13 74<79.1483 255.609>
LayerCount: 2
Fore
SplineSet
241 435 m 3x70
 141 435 13 294 13 152 c 3
 13 91 37 -4 134 -4 c 3
 198 -4 262 84 262 105 c 1
 261 113 254 127 252 127 c 1
 248 121 206 57 158 57 c 3
 95 57 87 127 87 162 c 3
 87 296 168 396 216 396 c 0
 244 396 252 338 284 338 c 3
 307 338 324 355 324 379 c 3
 324 385 323 396 322 401 c 1
 306 420 271 435 241 435 c 3x70
249 474 m 17
 256 474 281 473 280 466 c 9
 104 -45 l 17xb0
 96 -45 72 -43 73 -36 c 9
 249 474 l 17
EndSplineSet
Validated: 37
Substitution2: "'smcp' Lowercase to Small Capitals in Latin lookup 3-1" cent.sc
EndChar

StartChar: sterling
Encoding: 163 163 97
Width: 442
Flags: W
HStem: -8 69<216.208 314.985> 29 64<65.6766 177.524> 279 40<50.8182 307.575> 593 42<254.753 353.679>
LayerCount: 2
Fore
SplineSet
60.1787 319 m 1x30
 87.1787 319 295.179 319 308.179 319 c 0
 312.179 319 312.179 314 311.179 309 c 0
 310.179 303 303.179 286 291.179 279 c 1
 264.179 279 64.1787 279 51.1787 279 c 0
 47.1787 279 48.1787 287 49.1787 292 c 0
 50.1787 298 53.1787 310 60.1787 319 c 1x30
166.179 258 m 0
 151.179 183 123.179 128 90.1787 84 c 1
 108.179 91 118.179 93 159.179 93 c 0x70
 209.179 93 263.179 61 299.179 61 c 0
 340.179 61 364.179 111 381.179 134 c 1
 385.179 134 390.179 127 390.179 117 c 0
 390.179 113 389.179 110 388.179 108 c 0
 368.179 71 322.179 -8 256.179 -8 c 0xb0
 196.179 -8 132.179 29 86.1787 29 c 0x70
 57.1787 29 28.1787 7 9.17871 -9 c 1
 -2.82129 -9 -5.82129 4 -4.82129 10 c 1
 16.1787 40 33.1787 56 53.1787 82 c 1
 78.1787 121 91.1787 200 100.179 249 c 0
 104.179 270 119.179 391 125.179 423 c 0
 149.179 549 236.179 635 336.179 635 c 0
 371.179 635 390.179 622 400.179 598 c 1
 397.179 580 385.179 539 361.179 539 c 0
 323.179 539 329.179 593 291.179 593 c 0
 228.179 593 208.179 512 195.179 444 c 0
 188.179 410 169.179 272 166.179 258 c 0
EndSplineSet
Validated: 5
Substitution2: "'smcp' Lowercase to Small Capitals in Latin lookup 3-1" sterling.sc
EndChar

StartChar: currency
Encoding: 164 164 98
Width: 510
Flags: W
HStem: 120 32<197.235 285.716> 463 33<237.118 326.983>
VStem: 87 70<197.092 362.424> 366 69<252.472 417.647>
LayerCount: 2
Fore
SplineSet
284 463 m 0
 216 463 157 365 157 273 c 0
 157 203 191 152 240 152 c 0
 308 152 366 249 366 341 c 0
 366 411 333 463 284 463 c 0
299 496 m 0
 339 496 371 481 395 455 c 1
 461 510 l 2
 462 511 464 511 465 511 c 3
 475 511 489 487 491 466 c 1
 424 410 l 1
 431 391 435 370 435 347 c 0
 435 282 403 228 379 199 c 1
 418 141 l 2
 418 140 419 140 419 139 c 3
 419 129 391 106 369 100 c 1
 332 155 l 1
 300 133 263 120 226 120 c 0
 186 120 152 135 128 160 c 1
 69 110 l 2
 68 109 66 109 65 109 c 3
 55 109 41 133 39 154 c 1
 99 205 l 1
 91 224 87 245 87 268 c 0
 87 330 117 388 149 423 c 1
 112 479 l 2
 112 480 111 480 111 481 c 3
 111 491 139 514 161 520 c 1
 198 465 l 1
 229 485 264 496 299 496 c 0
EndSplineSet
Validated: 1
EndChar

StartChar: yen
Encoding: 165 165 99
Width: 604
Flags: W
HStem: -3 27<133.757 191.563 302.708 346.35> 138 38<141.129 227.657 313.657 399.35> 216 38<156.965 242.657 328.657 414.35> 615 27<88.2246 136.267 265.198 315.649 438.431 484.4 587.352 655.913>
VStem: 252.657 76<254.146 282>
LayerCount: 2
Fore
SplineSet
328.657 254 m 1
 328.657 254 400.657 254 413.657 254 c 0
 417.657 254 416.657 246 415.657 241 c 0
 414.657 235 412.657 225 405.657 216 c 1
 378.657 216 320.657 216 320.657 216 c 1
 313.657 176 l 1
 313.657 176 385.657 176 398.657 176 c 0
 402.657 176 401.657 168 400.657 163 c 0
 399.657 157 397.657 147 390.657 138 c 1
 363.657 138 305.657 138 305.657 138 c 1
 300.657 112 293.657 73 294.657 46 c 0
 295.657 35 337.657 24 344.657 24 c 0
 347.657 24 347.657 18 346.657 12 c 0
 345.657 6 343.657 0 341.657 -3 c 1
 305.657 -1 281.657 2 242.657 2 c 0
 201.657 2 176.657 -1 135.657 -3 c 1
 134.657 -1 132.657 5 133.657 10 c 0
 134.657 17 137.657 24 140.657 24 c 0
 151.657 24 195.657 34 202.657 46 c 1
 212.657 69 221.657 107 227.657 138 c 1
 227.657 138 154.657 138 141.657 138 c 0
 137.657 138 138.657 146 139.657 151 c 0
 140.657 157 143.657 167 150.657 176 c 1
 177.657 176 234.657 176 234.657 176 c 1
 242.657 216 l 1
 242.657 216 170.657 216 157.657 216 c 0
 153.657 216 154.657 224 155.657 229 c 0
 156.657 235 158.657 245 165.657 254 c 1
 192.657 254 250.657 254 250.657 254 c 1
 251.657 257 253.657 268 252.657 270 c 0
 252.657 283 244.657 311 172.657 532 c 1
 161.657 568 158.657 572 144.657 594 c 0
 135.657 608 99.6572 615 88.6572 615 c 0
 86.6572 615 86.6572 620 87.6572 626 c 0
 88.6572 632 91.6572 640 93.6572 642 c 1
 137.657 640 155.657 636 200.657 636 c 0
 245.657 636 281.657 640 318.657 642 c 1
 319.657 636 315.657 615 310.657 615 c 0
 297.657 615 255.657 608 250.657 583 c 0
 248.657 575 251.657 565 254.657 554 c 2
 315.657 348 l 1
 319.657 343 323.657 347 325.657 350 c 0
 394.657 435 487.657 554 493.657 584 c 0
 496.657 597 475.657 615 437.657 615 c 0
 432.657 615 436.657 637 442.657 642 c 1
 475.657 640 494.657 636 527.657 636 c 0
 573.657 636 619.657 640 656.657 642 c 1
 656.657 639 656.657 632 655.657 627 c 0
 654.657 621 652.657 615 649.657 615 c 0
 642.657 615 575.657 605 557.657 586 c 1
 531.657 553 337.657 303 333.657 282 c 2
 328.657 254 l 1
EndSplineSet
Validated: 33
Substitution2: "'smcp' Lowercase to Small Capitals in Latin lookup 3-1" yen.sc
EndChar

StartChar: brokenbar
Encoding: 166 166 100
Width: 206
VWidth: 0
Flags: W
VStem: 0.0771484 227
LayerCount: 2
Fore
SplineSet
168.077 754 m 1
 178.077 764 194.077 770 212.077 770 c 27
 219.077 770 228.077 767 227.077 763 c 2
 158.077 400 l 1
 151.077 392 132.077 383 113.077 383 c 27
 107.077 383 97.0771 386 98.0771 391 c 2
 168.077 754 l 1
70.0771 248 m 1
 80.0771 258 96.0771 264 114.077 264 c 27
 121.077 264 130.077 261 129.077 257 c 2
 60.0771 -106 l 1
 53.0771 -114 33.0771 -123 14.0771 -123 c 27
 8.07715 -123 -0.922852 -120 0.0771484 -115 c 2
 70.0771 248 l 1
EndSplineSet
Validated: 1
Substitution2: "Ordinals-1" brokenbar.ordn
Substitution2: "'smcp' Lowercase to Small Capitals in Latin lookup 3-1" brokenbar.sc
EndChar

StartChar: section
Encoding: 167 167 101
Width: 392
Flags: W
HStem: -78 50<33.3652 149.222> 603 50<249.593 365.803>
LayerCount: 2
Fore
SplineSet
347.584 653 m 0
 360.584 653 372.584 651 384.584 645 c 1
 387.584 635 385.584 625 384.584 619 c 0
 381.584 605 359.584 583 344.584 583 c 0
 328.584 583 321.584 590 313.584 595 c 0
 306.584 599 298.584 603 284.584 603 c 0
 255.584 603 206.584 587 199.584 549 c 0
 190.584 503 245.584 426 280.584 383 c 0
 319.584 335 365.584 265 348.584 179 c 0
 334.584 105 222.584 -9 182.584 -35 c 9
 186.584 -23 186.584 -14 194.584 -3 c 24
 207.584 14 232.584 33 232.584 33 c 0
 260.584 71 280.584 91 289.584 135 c 0
 305.584 218 265.584 285 224.584 335 c 0
 188.584 379 134.584 435 148.584 507 c 0
 164.584 587 243.584 653 347.584 653 c 0
166.584 542 m 0
 138.584 504 118.584 484 109.584 440 c 0
 93.584 357 133.584 290 174.584 240 c 0
 210.584 196 264.584 140 250.584 68 c 0
 234.584 -12 155.584 -78 51.584 -78 c 0
 38.584 -78 26.584 -76 14.584 -70 c 1
 11.584 -60 13.584 -50 14.584 -44 c 0
 17.584 -30 39.584 -8 54.584 -8 c 0
 70.584 -8 77.584 -15 85.584 -20 c 0
 92.584 -24 99.584 -28 113.584 -28 c 0
 142.584 -28 192.584 -12 199.584 26 c 0
 208.584 72 153.584 149 118.584 192 c 0
 79.584 240 33.584 310 50.584 396 c 0
 64.584 470 176.584 584 216.584 610 c 9
 212.584 598 212.584 589 204.584 578 c 24
 191.584 561 166.584 542 166.584 542 c 0
EndSplineSet
Validated: 37
Substitution2: "Ordinals-1" section.ordn
Substitution2: "'smcp' Lowercase to Small Capitals in Latin lookup 3-1" section.sc
EndChar

StartChar: dieresis
Encoding: 168 168 102
Width: 285
VWidth: 0
Flags: W
HStem: 477 100<29.3116 94.2283 198.312 263.228>
VStem: 19 88<488.666 567.191> 188 88<488.666 567.191>
LayerCount: 2
Fore
SplineSet
239 577 m 31
 260 577 276 558 276 537 c 31
 276 506 253 477 222 477 c 31
 200 477 188 499 188 521 c 31
 188 551 209 577 239 577 c 31
70 577 m 31
 91 577 107 558 107 537 c 31
 107 506 84 477 53 477 c 31
 31 477 19 499 19 521 c 31
 19 551 40 577 70 577 c 31
EndSplineSet
Validated: 1
EndChar

StartChar: copyright
Encoding: 169 169 103
Width: 583
Flags: W
HStem: 69 31<186.389 334.482> 195 32<256.935 365.097> 449 34<287.256 393.71> 584 31<277.104 427.705>
VStem: 47 30<213.253 374.562> 169 55<251.764 390.215> 413 22<394.59 424.07> 536 29<309.17 468.384>
LayerCount: 2
Fore
SplineSet
332 483 m 0
 360 483 403 477 432 464 c 1
 433 462 434 459 434 456 c 16
 435 442 435 415 435 406 c 0
 435 395 422 394 419 394 c 0
 417 394 414 395 413 396 c 1
 413 409 403 449 337 449 c 0
 282 449 224 390 224 315 c 0
 224 255 265 227 302 227 c 0
 378 227 385 267 393 279 c 1
 393 279 395 280 397 280 c 27
 403 280 411 276 411 276 c 1
 410 273 387 217 380 214 c 0
 348 201 317 195 278 195 c 0
 213 195 169 242 169 307 c 0
 169 394 244 483 332 483 c 0
359 615 m 4
 481 615 565 522 565 398 c 4
 565 225 411 69 252 69 c 4
 130 69 47 162 47 286 c 4
 47 459 200 615 359 615 c 4
353 584 m 4
 214 584 77 446 77 292 c 4
 77 183 151 100 259 100 c 4
 398 100 536 238 536 391 c 4
 536 501 461 584 353 584 c 4
EndSplineSet
Validated: 1
Substitution2: "'smcp' Lowercase to Small Capitals in Latin lookup 3-1" copyright.sc
EndChar

StartChar: ordfeminine
Encoding: 170 170 104
Width: 374
VWidth: 0
Flags: W
HStem: 249 39<102.491 168.035 262 295.912> 529 28<214.691 289.5>
VStem: 56 57<294.5 418.758> 228 58<268.065 376.821>
LayerCount: 2
Fore
SplineSet
276 557 m 0
 303 557 321 553 336 548 c 1
 289 327 l 2
 288 324 286 308 286 305 c 0
 286 299 286 288 293 288 c 0
 309 288 346 326 348 328 c 1
 350 328 355 319 355 315 c 1
 347 302 290 249 254 249 c 0
 238 249 228 265 228 286 c 0
 228 292 230 308 233 323 c 0
 235 336 237 339 238 344 c 1
 222 319 168 250 124 250 c 0
 82 250 56 283 56 332 c 0
 56 453 183 557 276 557 c 0
241 529 m 0
 182 529 113 439 113 359 c 0
 113 316 125 290 152 290 c 0
 191 290 245 378 260 445 c 2
 276 519 l 1
 269 526 251 529 241 529 c 0
EndSplineSet
Validated: 1
Substitution2: "'smcp' Lowercase to Small Capitals in Latin lookup 3-1" ordfeminine.sc
EndChar

StartChar: guillemotleft
Encoding: 171 171 105
Width: 480
VWidth: 0
Flags: W
VStem: 25 89<219.901 267.151> 205 89<219.901 267.151>
LayerCount: 2
Fore
SplineSet
218 91 m 1
 213 82 203 76 197 73 c 1
 167 112 95 182 35 228 c 0
 29 232 25 236 25 242 c 0
 25 253 33 262 40 266 c 0
 151 329 193 368 264 423 c 1
 268 422 280 417 282 408 c 1
 277 396 114 249 114 249 c 1
 114 249 218 99 218 91 c 1
398 91 m 5
 393 82 383 76 377 73 c 5
 347 112 275 182 215 228 c 4
 209 232 205 236 205 242 c 4
 205 253 213 262 220 266 c 4
 331 329 373 368 444 423 c 5
 448 422 460 417 462 408 c 5
 457 396 294 249 294 249 c 5
 294 249 398 99 398 91 c 5
EndSplineSet
Validated: 1
Substitution2: "'smcp' Lowercase to Small Capitals in Latin lookup 3-1" guillemotleft.sc
EndChar

StartChar: logicalnot
Encoding: 172 172 106
Width: 520
VWidth: 0
Flags: W
HStem: 364 56<48.7804 421.688>
VStem: 387 56<162.057 204.034>
LayerCount: 2
Fore
SplineSet
67 420 m 2
 481 420 l 2
 487 420 492 419 490 409 c 2
 443 169 l 1
 440 166 418 160 401 160 c 27
 395 160 386 162 387 168 c 2
 424 354 l 1
 424 355 l 6
 424 359 420 364 414 364 c 2
 49 364 l 1
 49 364 46 376 46 382 c 0
 46 399 58 420 67 420 c 2
EndSplineSet
Validated: 1
EndChar

StartChar: registered
Encoding: 174 174 107
Width: 583
Flags: W
HStem: 133 32<198.086 351.122> 272 13<176.433 203.114 263.716 283.119 420.16 437.661> 407 21<284.745 307.29> 529 25<288.086 364.282> 541 12<229.169 248.539> 648 32<286.858 439.88>
VStem: 372.433 46<438.76 526.673>
LayerCount: 2
Fore
SplineSet
334.433 529 m 27xf6
 305.433 529 301.433 525 300.433 519 c 26
 286.433 444 l 2
 286.433 442 284.433 441 284.433 440 c 3
 284.433 429 307.433 428 322.433 428 c 27
 353.433 428 372.433 460 372.433 491 c 3
 372.433 519 355.433 529 334.433 529 c 27xf6
344.433 554 m 27
 382.433 554 418.433 534 418.433 493 c 3
 418.433 455 394.433 431 360.433 414 c 16
 359.433 413 359.433 412 359.433 411 c 2
 359.433 410 l 1
 361.433 398 376.433 362 391.433 333 c 0
 405.433 305 415.433 286 438.433 286 c 1
 438.433 282 437.433 277 436.433 275 c 1
 432.433 273 425.433 272 418.433 272 c 3
 359.433 272 347.433 294 307.433 398 c 0
 304.433 405 298.433 407 290.433 407 c 0
 281.433 407 278.433 405 277.433 399 c 26
 260.433 310 l 1
 260.433 299 l 2
 260.433 296 261.433 292 263.433 291 c 0
 269.433 288 278.433 285 282.433 285 c 0
 283.433 285 283.433 283 283.433 282 c 27
 283.433 278 282.433 276 281.433 272 c 25
 262.433 273 250.433 274 231.433 274 c 27
 210.433 274 197.433 273 176.433 272 c 25
 176.433 275 175.433 277 175.433 280 c 27
 175.433 282 177.433 283 178.433 285 c 17
 215.433 290 207.433 295 215.433 330 c 25
 248.433 499 l 26
 250.433 510 252.433 517 252.433 528 c 0
 252.433 537 236.433 541 230.433 541 c 3
 229.433 541 228.433 542 228.433 543 c 27
 228.433 547 230.433 549 231.433 553 c 25xee
 248.433 552 257.433 550 274.433 550 c 27
 301.433 550 317.433 554 344.433 554 c 27
371.433 680 m 0
 511.433 680 602.433 558 573.433 407 c 0
 544.433 256 405.433 133 265.433 133 c 0
 125.433 133 35.4326 256 64.4326 407 c 0
 93.4326 558 231.433 680 371.433 680 c 0
366.433 648 m 0
 242.433 648 121.433 540 95.4326 407 c 0
 69.4326 274 148.433 165 272.433 165 c 0
 396.433 165 518.433 274 544.433 407 c 0
 570.433 540 490.433 648 366.433 648 c 0
EndSplineSet
Validated: 33
Substitution2: "'smcp' Lowercase to Small Capitals in Latin lookup 3-1" registered.sc
EndChar

StartChar: macron
Encoding: 175 175 108
Width: 261
Flags: W
HStem: 539 57<28.8624 244.887>
VStem: 25 224<539.201 595.662>
LayerCount: 2
Fore
SplineSet
43 596 m 9
 241 596 l 2
 246 596 249 587 249 578 c 0
 249 566 237 543 231 539 c 1
 30 539 l 2
 26 539 25 550 25 558 c 0
 25 569 35 589 43 596 c 9
EndSplineSet
Validated: 1
EndChar

StartChar: degree
Encoding: 176 176 109
Width: 260
VWidth: 0
Flags: W
HStem: 437 37<133.051 211.974> 597 37<147.647 228.277>
VStem: 87 36<483.773 571.242> 238 36<501.504 586.935>
LayerCount: 2
Fore
SplineSet
192 597 m 0
 157 597 123 565 123 524 c 0
 123 496 141 474 169 474 c 0
 204 474 238 509 238 548 c 0
 238 576 220 597 192 597 c 0
199 634 m 0
 243 634 274 600 274 555 c 0
 274 493 217 437 162 437 c 0
 118 437 87 472 87 517 c 0
 87 582 146 634 199 634 c 0
EndSplineSet
Validated: 1
Substitution2: "'smcp' Lowercase to Small Capitals in Latin lookup 3-1" degree.sc
EndChar

StartChar: plusminus
Encoding: 177 177 110
Width: 470
VWidth: 0
Flags: W
HStem: 21 43<-8.38829 396.103> 306 43<47.6117 222 278 452.082>
LayerCount: 2
Fore
SplineSet
394 64 m 2
 396 64 397 61 397 56 c 0
 397 43 396 33 385 21 c 1
 -5 21 l 2
 -8 21 -10 24 -10 29 c 0
 -10 42 -7 51 3 64 c 1
 394 64 l 2
50 306 m 2
 47 306 46 309 46 314 c 0
 46 327 49 336 59 349 c 1
 230 349 l 1
 264 524 l 2
 267 537 301 540 305 540 c 0
 313 540 315 536 314 532 c 2
 278 349 l 1
 449 349 l 2
 451 349 453 346 453 341 c 0
 453 328 452 318 441 306 c 1
 270 306 l 1
 236 128 l 2
 234 118 216 112 200 112 c 0
 190 112 187 116 187 120 c 2
 222 306 l 1
 50 306 l 2
EndSplineSet
Validated: 1
EndChar

StartChar: uni00B2
Encoding: 178 178 111
Width: 344
VWidth: 0
Flags: W
HStem: 254 56<124 287.222> 594 53<178.508 253.235>
VStem: 260 74<489.886 588.031>
LayerCount: 2
Fore
SplineSet
334 563 m 0
 334 438 124 330 124 311 c 0
 124 310 124 310 125 310 c 2
 252 310 l 2
 284 310 294 347 301 347 c 0
 306 347 313 345 316 343 c 1
 300 314 292 286 279 254 c 1
 167 255 l 1
 45 254 l 1
 41 256 40 266 40 273 c 0
 40 277 41 282 44 287 c 1
 156 395 260 484 260 544 c 0
 260 568 247 594 214 594 c 3
 192 594 137 551 131 551 c 0
 129 551 123 565 123 572 c 0
 123 576 125 582 126 584 c 0
 137 600 197 647 251 647 c 3
 302 647 334 610 334 563 c 0
EndSplineSet
Validated: 1
EndChar

StartChar: uni00B3
Encoding: 179 179 112
Width: 321
VWidth: 0
Flags: W
HStem: 247 36<104.542 191.133> 438 30<135.047 187.805> 596 51<167.421 263>
VStem: 239 68<335.171 436.365> 249 65<526.748 592.585>
LayerCount: 2
Fore
SplineSet
137 283 m 3xf0
 189 283 239 329 239 391 c 0xf0
 239 426 218 444 189 444 c 0
 163 444 170 442 140 438 c 1
 137 443 135 448 135 452 c 0
 135 459 139 466 146 468 c 0
 233 486 249 543 249 562 c 0
 249 583 230 596 209 596 c 3
 169 596 143 559 132 559 c 0
 124 559 127 593 127 593 c 1
 156 624 201 647 250 647 c 3
 276 647 314 625 314 583 c 0xe8
 314 527 263 501 234 484 c 1
 257 484 307 456 307 402 c 0
 307 330 225 247 112 247 c 3
 73 247 44 262 40 273 c 1
 41 296 59 317 76 317 c 3
 104 317 105 283 137 283 c 3xf0
EndSplineSet
Validated: 33
EndChar

StartChar: acute
Encoding: 180 180 113
Width: 207
VWidth: 0
Flags: W
HStem: 527 160
VStem: 22 181
LayerCount: 2
Fore
SplineSet
170 687 m 0
 197 687 203 675 203 666 c 0
 203 629 41 527 32 527 c 0
 27 527 22 539 22 543 c 0
 22 553 104 653 122 670 c 0
 136 684 152 687 170 687 c 0
EndSplineSet
Validated: 1
EndChar

StartChar: paragraph
Encoding: 182 182 115
Width: 441
VWidth: 0
Flags: W
HStem: -4 27<89.5926 145.314 306.203 355.93> 299 33<260.002 297.968> 316 38<359.264 394.812> 624 24<412.781 468>
VStem: 62 198<336 446.094>
LayerCount: 2
Fore
SplineSet
251 286 m 2xd8
 207 49 l 1
 207 47 l 2
 207 39 219 36 227 36 c 0
 236 36 247 44 248 50 c 0
 257 84 278 189 298 295 c 0
 298 298 298 299 296 299 c 0
 293 299 283 296 258 293 c 0
 252 292 252 291 251 286 c 2xd8
259 652 m 0
 314 652 308 648 363 648 c 0
 424 648 468 653 468 653 c 1
 469 652 469 649 469 646 c 0
 469 637 466 624 462 624 c 0
 451 624 409 616 402 604 c 0
 394 588 351 350 351 349 c 0
 351 347 352 346 353 346 c 2
 355 346 l 1
 396 354 l 1
 397 351 397 348 397 346 c 0
 397 330 384 319 374 316 c 2xb8
 349 309 l 2
 347 308 342 306 342 304 c 0
 337 276 298 80 298 47 c 0
 298 31 350 23 355 23 c 0
 357 23 357 21 357 18 c 0
 357 11 354 -1 350 -4 c 1
 292 -2 259 2 200 2 c 0
 157 2 126 -2 88 -4 c 1
 88 -2 l 2
 88 6 92 23 96 23 c 0
 103 23 152 34 157 45 c 0
 172 78 208 283 208 286 c 0
 208 291 204 291 190 291 c 0
 99 291 62 371 62 438 c 0
 62 546 166 652 259 652 c 0
314 599 m 0
 312 589 260 346 260 337 c 0
 260 335 263 332 267 332 c 8xd8
 281 333 303 338 303 338 c 2
 305 338 308 340 309 344 c 0
 312 361 356 593 356 601 c 0
 356 605 346 611 337 611 c 0
 328 611 316 610 314 599 c 0
EndSplineSet
Validated: 1
Substitution2: "Ordinals-1" paragraph.ordn
Substitution2: "'smcp' Lowercase to Small Capitals in Latin lookup 3-1" paragraph.sc
EndChar

StartChar: periodcentered
Encoding: 183 183 116
Width: 216
VWidth: 0
Flags: W
HStem: 205 117<71.4296 140.375>
VStem: 51 110<225.408 301.98>
LayerCount: 2
Fore
SplineSet
51 252 m 0
 51 289 85 322 118 322 c 0
 144 322 161 302 161 276 c 0
 161 239 128 205 95 205 c 0
 69 205 51 225 51 252 c 0
EndSplineSet
Validated: 1
EndChar

StartChar: cedilla
Encoding: 184 184 117
Width: 161
VWidth: 0
Flags: W
HStem: -152 24<28.4155 88.8408> -61 34<86 101.728> -24 20G<75.5 106>
VStem: 103 38<-112.975 -61.8032>
LayerCount: 2
Fore
SplineSet
87 -4 m 1
 106 -4 l 9
 86 -27 l 25
 108 -27 l 2
 129 -27 141 -44 141 -65 c 0
 141 -102 104 -152 37 -152 c 3
 26 -152 13 -147 8 -143 c 1
 8 -140 8 -137 8 -134 c 0
 8 -119 20 -115 23 -115 c 3
 34 -115 40 -128 55 -128 c 3
 82 -128 103 -111 103 -87 c 0
 103 -68 90 -61 79 -61 c 0
 69 -61 64 -64 54 -68 c 0
 52 -68 47 -61 47 -57 c 0
 47 -53 64 -37 87 -4 c 1
EndSplineSet
Validated: 1
EndChar

StartChar: uni00B9
Encoding: 185 185 118
Width: 281
VWidth: 0
Flags: W
HStem: 253 25<57.8179 115.773 204.996 246.512>
VStem: 58 208
LayerCount: 2
Fore
SplineSet
101 579 m 0
 176 613 252 652 260 652 c 0
 263 652 266 632 266 629 c 2
 266 629 249 587 242 548 c 2
 202 340 l 2
 200 328 198 319 198 310 c 4
 198 304 199 297 202 293 c 0
 207 286 238 279 245 279 c 0
 247 279 247 276 247 272 c 3
 247 265 245 256 243 253 c 1
 207 254 188 256 152 256 c 0
 116 256 95 254 58 253 c 1
 57 254 57 255 57 258 c 0
 57 265 60 278 64 278 c 0
 75 278 113 286 118 292 c 0
 125 300 129 318 133 340 c 2
 166 513 l 2
 169 534 172 548 172 557 c 0
 172 566 169 569 162 569 c 0
 153 569 129 560 102 551 c 1
 98 552 94 562 94 566 c 3
 94 570 95 576 101 579 c 0
EndSplineSet
Validated: 1
EndChar

StartChar: ordmasculine
Encoding: 186 186 119
Width: 333
Flags: W
HStem: 247 22<142.56 197.411> 532 22<189.747 245.66>
VStem: 60 60<279.338 434.653> 264 60<363.749 525.328>
LayerCount: 2
Fore
SplineSet
224 532 m 0
 159 532 120 431 120 361 c 0
 120 305 137 269 164 269 c 0
 228 269 264 371 264 441 c 0
 264 497 251 532 224 532 c 0
234 554 m 0
 296 554 324 511 324 451 c 0
 324 353 237 247 149 247 c 0
 87 247 60 287 60 347 c 0
 60 445 146 554 234 554 c 0
EndSplineSet
Validated: 1
Substitution2: "'smcp' Lowercase to Small Capitals in Latin lookup 3-1" ordmasculine.sc
EndChar

StartChar: guillemotright
Encoding: 187 187 120
Width: 481
VWidth: 0
Flags: W
VStem: 179 89<228.849 276.099> 359 89<228.849 276.099>
LayerCount: 2
Fore
SplineSet
255 405 m 5
 260 414 270 420 276 423 c 5
 306 384 378 314 438 268 c 4
 444 264 448 260 448 254 c 4
 448 243 440 234 433 230 c 4
 322 167 280 128 209 73 c 5
 205 74 193 79 191 88 c 5
 196 100 359 247 359 247 c 5
 359 247 255 397 255 405 c 5
75 405 m 5
 80 414 90 420 96 423 c 5
 126 384 198 314 258 268 c 4
 264 264 268 260 268 254 c 4
 268 243 260 234 253 230 c 4
 142 167 100 128 29 73 c 5
 25 74 13 79 11 88 c 5
 16 100 179 247 179 247 c 5
 179 247 75 397 75 405 c 5
EndSplineSet
Validated: 1
Substitution2: "'smcp' Lowercase to Small Capitals in Latin lookup 3-1" guillemotright.sc
EndChar

StartChar: onequarter
Encoding: 188 188 121
Width: 647
VWidth: 0
Flags: W
HStem: -5 21G<479.5 501.5> 115 43<388.001 475 556.516 588.814> 253 25<45.8179 103.773 193.953 234.512> 622 20G<553.854 599>
LayerCount: 2
Fore
SplineSet
89 579 m 0
 164 613 240 652 248 652 c 0
 251 652 254 632 254 629 c 2
 254 629 237 587 230 548 c 2
 190 340 l 2
 188 328 186 319 186 310 c 0
 186 304 188 297 191 293 c 0
 196 286 226 279 233 279 c 0
 235 279 235 276 235 272 c 3
 235 265 233 256 231 253 c 1
 195 254 176 256 140 256 c 0
 104 256 83 254 46 253 c 1
 45 254 45 255 45 258 c 0
 45 265 48 278 52 278 c 0
 63 278 101 286 106 292 c 0
 113 300 117 318 121 340 c 2
 154 513 l 2
 157 534 160 548 160 557 c 0
 160 566 157 569 150 569 c 0
 141 569 117 560 90 551 c 1
 86 552 82 562 82 566 c 3
 82 570 83 576 89 579 c 0
598 618 m 6
 152 -14 l 5
 152 -14 119 -7 119 4 c 4
 119 6 119 8 121 10 c 30
 568 642 l 5
 568 642 599 634 599 623 c 4
 599 621 599 619 598 618 c 6
560 390 m 2
 565 395 572 397 575 397 c 0
 578 397 600 398 598 390 c 2
 553 162 l 1
 553 161 l 2
 553 159 555 158 557 158 c 10
 581 158 l 2
 586 158 590 155 590 151 c 0
 590 130 584 118 579 115 c 1
 547 115 l 2
 545 115 544 113 543 110 c 2
 521 0 l 1
 517 -2 509 -5 494 -5 c 0
 465 -5 457 1 458 4 c 2
 478 112 l 1
 478 113 l 2
 478 115 477 115 475 115 c 2
 336 115 l 1
 333 120 329 126 329 141 c 1
 560 390 l 2
391 158 m 2
 482 158 l 2
 484 158 487 159 488 163 c 2
 514 292 l 2
 514 294 513 296 512 296 c 2
 511 296 l 1
 389 166 l 2
 388 165 388 164 388 163 c 3
 388 161 389 158 391 158 c 2
EndSplineSet
Validated: 33
EndChar

StartChar: onehalf
Encoding: 189 189 122
Width: 679
VWidth: 0
Flags: W
HStem: 0 56<426 590.484> 251 24<40.5975 93.9987 180.512 222.425> 340 53<481.035 555.504> 622 20G<533.854 580>
VStem: 562 74<237.184 334.138>
LayerCount: 2
Fore
SplineSet
578 618 m 2
 132 -14 l 1
 132 -14 99 -7 99 4 c 0
 99 6 99 8 101 10 c 26
 548 642 l 1
 548 642 580 634 580 623 c 0
 580 621 579 619 578 618 c 2
554 56 m 2
 605 56 581 92 612 92 c 0
 615 92 618 92 619 90 c 1
 603 61 595 32 582 0 c 1
 348 0 l 1
 344 2 340 9 340 17 c 0
 340 22 342 28 346 33 c 0
 448 131 562 230 562 291 c 0
 562 315 549 340 516 340 c 3
 494 340 460 323 440 300 c 0
 439 299 438 298 436 298 c 0
 432 298 426 314 426 321 c 0
 426 324 427 329 427 329 c 1
 457 362 510 393 553 393 c 3
 604 393 636 356 636 309 c 0
 636 184 426 77 426 57 c 0
 426 56 426 56 427 56 c 2
 554 56 l 2
231 638 m 1
 235 638 l 2
 241 638 241 617 241 614 c 2
 241 614 223 573 216 534 c 2
 178 338 l 2
 176 326 174 317 174 308 c 0
 174 302 175 297 176 291 c 0
 177 284 214 276 221 276 c 0
 223 276 223 273 223 270 c 0
 223 263 221 254 219 251 c 1
 183 252 168 254 132 254 c 0
 96 254 79 252 42 251 c 1
 41 252 40 254 40 257 c 0
 40 264 43 275 47 275 c 0
 58 275 94 283 98 290 c 0
 109 309 110 316 114 338 c 2
 144 499 l 2
 145 504 149 524 149 539 c 0
 149 551 147 555 139 555 c 0
 129 555 113 547 92 540 c 1
 84 544 81 544 81 551 c 0
 81 571 82 550 231 638 c 1
EndSplineSet
Validated: 1
EndChar

StartChar: threequarters
Encoding: 190 190 123
Width: 657
VWidth: 0
Flags: W
HStem: -5 21G<490 519> 115 43<399.001 487 567.75 600.002> 247 36<91.5181 178.13> 438 30<123.047 175.348> 596 51<154.815 250> 622 20G<554.854 600>
VStem: 225 68<335.126 437.226> 236 66<526.382 592.511>
LayerCount: 2
Fore
SplineSet
599 618 m 2xf4
 153 -14 l 1
 153 -14 120 -7 120 4 c 0
 120 6 120 8 122 10 c 26
 569 642 l 1
 569 642 600 634 600 623 c 0
 600 621 600 619 599 618 c 2xf4
120 558 m 0
 115 558 112 563 112 585 c 0
 112 588 114 592 114 593 c 0
 143 624 188 647 237 647 c 3
 263 647 302 625 302 583 c 0xf9
 302 526 249 500 222 484 c 1
 245 484 293 457 293 403 c 0
 293 325 205 247 99 247 c 3
 60 247 31 262 27 273 c 1
 28 296 45 317 62 317 c 3
 90 317 93 283 125 283 c 3
 178 283 225 330 225 392 c 0xfa
 225 427 206 444 177 444 c 0
 151 444 158 442 128 438 c 1
 125 443 123 448 123 452 c 0
 123 459 127 466 134 468 c 0
 220 486 236 543 236 562 c 0
 236 584 217 596 195 596 c 11xf9
 162 596 129 558 120 558 c 0
505 -5 m 0
 475 -5 469 3 469 4 c 2
 490 112 l 2
 490 115 489 115 487 115 c 2
 348 115 l 1
 345 120 341 128 341 138 c 0
 341 139 341 140 341 141 c 2
 572 390 l 2
 577 395 587 397 591 397 c 0
 598 397 609 396 609 391 c 2
 609 390 l 1
 565 163 l 1
 565 162 l 2
 565 160 567 159 569 159 c 10
 594 159 l 2
 599 159 602 156 602 152 c 0
 597 113 600 123 590 115 c 1
 558 114 l 2
 556 114 555 112 554 109 c 2
 533 0 l 2
 532 -3 533 -5 505 -5 c 0
500 163 m 2
 525 292 l 2
 525 294 524 297 523 297 c 0
 521 295 399 166 399 164 c 0
 399 162 401 158 403 158 c 2
 494 158 l 2
 496 158 499 159 500 163 c 2
EndSplineSet
Validated: 1
EndChar

StartChar: questiondown
Encoding: 191 191 124
Width: 301
VWidth: 0
Flags: W
HStem: -208 54<32.1904 134.293> 321 116<164.156 234>
VStem: -35 48<-141.861 -47.1103> 143 110<340.112 415.875> 157 69<110.574 196.291>
LayerCount: 2
Fore
SplineSet
118 228 m 3xe8
 118 234 123 239 128 242 c 1
 152 242 226 200 226 144 c 3xe8
 226 100 202 75 184 61 c 1
 65 -23 l 2
 45 -37 13 -59 13 -92 c 3
 13 -124 32 -154 75 -154 c 0
 114 -154 113 -107 143 -107 c 0xf0
 163 -107 179 -126 183 -154 c 1
 178 -169 157 -208 110 -208 c 0
 27 -208 -35 -141 -35 -79 c 0
 -35 17 6 21 124 102 c 0
 149 119 157 135 157 162 c 27
 157 192 118 218 118 228 c 3xe8
253 391 m 0xf0
 253 353 221 321 188 321 c 0
 162 321 143 341 143 367 c 0
 143 404 178 437 211 437 c 0
 237 437 253 417 253 391 c 0xf0
EndSplineSet
Validated: 1
Substitution2: "'smcp' Lowercase to Small Capitals in Latin lookup 3-1" questiondown.sc
EndChar

StartChar: AE
Encoding: 198 198 131
Width: 787
VWidth: 0
Flags: W
HStem: -3 27<-63.947 -7.73111 91.9567 132.142 267.747 315.885> 2 42<447.005 640.753> 296 44<273.89 383.128 474.406 608.544> 616 48<547.153 705.703> 616 40<501.214 672.08> 625 31<369.109 398.194>
VStem: 384 63<83.8449 289.66> 626 28<217.024 283.773> 726 29<525.096 584.603>
LayerCount: 2
Fore
SplineSet
83 50 m 4xa380
 83 34 124 24 134 24 c 4
 135 24 135 23 135 22 c 4
 135 16 129 2 126 -3 c 5xa380
 89 -1 73 2 32 2 c 4x6380
 -11 2 -21 -1 -64 -3 c 5
 -65 -2 -65 2 -65 3 c 4
 -65 11 -60 24 -56 24 c 4
 -45 24 -10 32 4 45 c 4
 33 71 58 102 83 139 c 6
 395 586 l 6
 398 590 400 595 400 601 c 4
 400 612 392 625 370 625 c 4
 368 625 367 627 367 630 c 4
 367 638 373 652 377 656 c 5
 464 656 l 6xa780
 551 656 663 664 764 664 c 5
 761 614 757 574 755 530 c 5
 752 527 745 525 738 525 c 4
 732 525 726 527 726 532 c 4
 722 610 677 616 644 616 c 6
 585 616 l 6
 547 616 507 615 503 603 c 4
 495 576 492 543 488 505 c 6
 473 347 l 5
 473 346 l 6
 473 340 486 340 504 340 c 6
 537 340 l 6
 622 340 619 342 650 411 c 4
 652 416 659 418 665 418 c 4
 672 418 678 416 680 413 c 5
 664 350 659 284 654 221 c 5
 651 219 645 217 639 217 c 4
 633 217 627 219 626 224 c 4
 623 281 616 282 609 288 c 4
 600 295 544 296 509 296 c 4
 483 296 469 295 468 286 c 6
 456 154 l 6
 456 152 447 72 447 63 c 4
 447 52 453 44 508 44 c 6
 523 44 l 6
 558 44 607 47 635 61 c 4
 655 71 680 109 705 162 c 4
 707 166 713 168 720 168 c 4
 729 168 739 165 741 162 c 5
 713 108 682 40 667 -4 c 5
 566 -4 479 2 394 2 c 4x7380
 333 2 268 -3 268 -3 c 5
 267 -2 267 0 267 3 c 4
 267 13 272 31 276 31 c 4
 287 31 343 41 349 50 c 4
 370 81 376 193 384 285 c 4
 384 290 382 293 378 293 c 4
 353 294 310 294 310 294 c 5
 310 294 269 294 243 293 c 28
 240 293 239 292 237 290 c 6
 128 131 l 6
 93 81 83 61 83 50 c 4xa380
412 547 m 5
 272 344 l 6
 271 343 271 340 273 340 c 20
 292 339 310 339 326 339 c 4
 346 339 365 339 385 341 c 13
 391 346 l 5
 412 547 l 5
EndSplineSet
Validated: 1
EndChar

StartChar: Eth
Encoding: 208 208 141
Width: 685
Flags: W
HStem: -3 35<-2.9353 68.2081 158.256 330.172> 313 36<71.2768 411.43> 624 34<264.477 431.326> 633 29<116.909 176.552>
LayerCount: 2
Fore
SplineSet
248 539 m 2xe0
 166 118 l 2
 163 104 155 52 158 46 c 0
 163 35 197 32 231 32 c 0
 374 32 508 118 546 313 c 0
 590 539 487 624 334 624 c 0
 323 624 272 623 267 613 c 0
 259 597 254 568 248 539 c 2xe0
365 658 m 0
 580 658 678 519 642 334 c 0
 609 164 496 -2 225 -3 c 1
 -8 -3 l 1
 -12 2 -7 21 -2 26 c 1
 9 26 60 31 65 42 c 0
 73 58 78 86 84 116 c 2
 167 543 l 2
 173 573 179 601 177 617 c 0
 176 628 127 633 116 633 c 1
 113 638 115 657 121 662 c 1xd0
 159 660 194 657 230 657 c 0
 266 657 324 658 365 658 c 0
79 349 m 1
 107 349 396 349 409 349 c 0
 413 349 415 345 414 341 c 0
 413 336 409 320 404 313 c 1
 376 313 86 313 73 313 c 0
 69 313 69 320 70 324 c 0
 71 329 72 342 79 349 c 1
EndSplineSet
Validated: 37
EndChar

StartChar: multiply
Encoding: 215 215 148
Width: 405
Flags: W
HStem: 415 20G<93.5 97 373 377.5>
VStem: 160 76<227 265>
LayerCount: 2
Fore
SplineSet
21 60 m 0
 15 60 4 92 4 108 c 1
 158 243 l 2
 159 244 160 245 160 246 c 0
 160 248 160 250 159 251 c 2
 58 388 l 1
 58 402 91 435 96 435 c 0
 98 435 98 433 100 431 c 2
 204 290 l 2
 205 289 207 288 208 288 c 2
 208 288 209 288 210 289 c 26
 368 430 l 2
 370 432 372 433 374 433 c 0
 381 433 391 402 391 384 c 1
 238 248 l 2
 237 247 236 247 236 246 c 3
 236 245 236 245 237 244 c 2
 337 108 l 1
 337 94 311 60 304 60 c 0
 300 60 298 61 297 63 c 2
 194 203 l 2
 193 204 192 205 191 205 c 0
 190 205 188 204 187 203 c 2
 26 63 l 2
 24 61 23 60 21 60 c 0
EndSplineSet
Validated: 1
Substitution2: "'smcp' Lowercase to Small Capitals in Latin lookup 3-1" multiply.sc
EndChar

StartChar: Oslash
Encoding: 216 216 149
Width: 686
Flags: W
HStem: -10 43<233.764 390.463> 625 42<321.257 472.744>
LayerCount: 2
Fore
SplineSet
105.172 -13 m 17
 97.1719 -10 78.1719 4 83.1719 10 c 9
 599.172 667 l 17
 607.172 665 627.172 651 622.172 645 c 9
 105.172 -13 l 17
398.172 625 m 0
 273.172 625 180.172 484 154.172 350 c 0
 124.172 195 167.172 33 311.172 33 c 0
 437.172 33 530.172 174 556.172 309 c 0
 586.172 464 542.172 625 398.172 625 c 0
57.1719 328 m 0
 93.1719 515 256.172 667 420.172 667 c 0
 584.172 667 688.172 515 652.172 328 c 0
 616.172 141 452.172 -10 288.172 -10 c 0
 124.172 -10 21.1719 141 57.1719 328 c 0
EndSplineSet
Validated: 37
EndChar

StartChar: Thorn
Encoding: 222 222 155
Width: 503
Flags: W
HStem: -3 29<-5.67735 57.5672 165.354 215.371> 128 43<196.649 317.751> 467 44<244.42 375.26> 633 29<115.77 168.518 278.508 340.505>
LayerCount: 2
Fore
SplineSet
333.414 511 m 0
 409.414 511 514.414 465 487.414 328 c 0
 473.414 254 388.414 128 258.414 128 c 0
 237.414 128 203.414 133 192.414 156 c 0
 190.414 160 193.414 184 197.414 182 c 0
 223.414 171 231.414 171 257.414 171 c 0
 318.414 171 383.414 236 398.414 313 c 0
 415.414 402 395.414 467 310.414 467 c 0
 288.414 467 258.414 465 244.414 460 c 0
 235.414 457 229.414 446 225.414 423 c 2
 170.414 139 l 2
 163.414 103 159.414 73 160.414 46 c 0
 161.414 35 209.414 26 216.414 26 c 0
 219.414 26 218.414 17 217.414 11 c 0
 216.414 6 214.414 0 212.414 -3 c 1
 175.414 -1 146.414 2 105.414 2 c 0
 62.4141 2 36.4141 -1 -6.58594 -3 c 1
 -7.58594 -1 -8.58594 6 -7.58594 12 c 0
 -6.58594 18 -3.58594 26 -1.58594 26 c 0
 9.41406 26 57.4141 34 64.4141 46 c 1
 74.4141 69 85.4141 117 88.4141 135 c 2
 164.414 523 l 2
 167.414 541 175.414 589 174.414 612 c 1
 172.414 624 127.414 633 116.414 633 c 0
 114.414 633 114.414 640 115.414 646 c 0
 116.414 652 120.414 660 122.414 662 c 1
 164.414 660 190.414 657 233.414 657 c 0
 274.414 657 303.414 660 341.414 662 c 1
 341.414 659 341.414 652 340.414 647 c 0
 339.414 641 337.414 633 334.414 633 c 0
 327.414 633 275.414 623 270.414 612 c 0
 260.414 589 251.414 555 245.414 524 c 0
 243.414 515 242.414 508 241.414 504 c 0
 240.414 499 241.414 497 243.414 497 c 0
 250.414 497 278.414 511 333.414 511 c 0
EndSplineSet
Validated: 33
EndChar

StartChar: germandbls
Encoding: 223 223 156
Width: 480
VWidth: 0
Flags: W
HStem: -233 43<-115.835 -38.9725> -4 30<266.478 336.782> 376 37<13.8227 50.665> 642 43<241.885 322.355>
VStem: 222 57<307.224 378.991> 353 63<51.6239 148.412 482.216 612.202>
LayerCount: 2
Fore
SplineSet
354 547 m 0
 354 495 329 463 301 435 c 0
 245.964 379.964 222 369 222 324 c 0
 222 278 249.228 249.199 278 216 c 0
 304 186 353 131 353 88 c 0
 353 56 339 26 299 26 c 0
 250 26 241 99 212 99 c 3
 190.667 99 174.166 86 172 58 c 0
 171.402 50.2668 176 38 178 32 c 1
 192 18 218 -4 278 -4 c 3
 357 -4 416 49 416 122 c 27
 416 189 372 226 332 272 c 0
 308.726 298.765 279 325 279 352 c 3
 279 376 308 401 335 426 c 0
 363.767 452.636 422 484 422 572 c 0
 422 651 356 685 304.665 685 c 0
 224.665 685 129.665 577 97.665 413 c 1
 50.665 413 l 2
 27.665 413 4.66504 389 4.66504 379 c 0
 4.66504 377 5.66504 376 6.66504 376 c 2
 91.665 376 l 1
 31.665 39 l 1
 0.665039 -120 -19.335 -190 -58.335 -190 c 0
 -72.335 -190 -80.335 -182 -87.335 -175 c 0
 -98.335 -163 -108.335 -152 -125.335 -152 c 0
 -147.335 -152 -155.335 -183 -155.335 -208 c 1
 -148.335 -221 -130.335 -233 -101.335 -233 c 0
 -21.335 -233 73.665 -121 105.665 43 c 0
 129.665 169 145.718 268 173.67 413 c 0
 204.333 572.064 226 642 270 642 c 0
 311 642 354 608 354 547 c 0
1138 475 m 24
EndSplineSet
Validated: 9
Substitution2: "'smcp' Lowercase to Small Capitals in Latin lookup 3-1" germandbls.sc
EndChar

StartChar: ae
Encoding: 230 230 163
Width: 553
VWidth: 0
Flags: W
HStem: -6 59<83.3706 144.257 315.412 387.808> 199 31<302 355.456> 397 38<170.724 267.5 388.898 498>
VStem: 2 76<53.2352 143.394> 63 74<304.5 355.622> 228 65<156.558 198.707> 458 74<314.992 388.983>
LayerCount: 2
Fore
SplineSet
247 435 m 3xee
 288 435 315 401 319 366 c 1
 352 404 411 435 464 435 c 0
 532 435 532 384 532 370 c 3
 532 282 371 209 297 199 c 1
 296 193 293 171 293 158 c 0
 293 95 315 53 363 53 c 3
 405 53 461 118 465 122 c 1
 468 122 476 110 477 102 c 1
 441 51 375 -6 324 -6 c 3
 283 -6 234 22 220 70 c 1
 203 48 113 -8 86 -8 c 3
 44 -8 2 18 2 80 c 0xf6
 2 126 37 164 61 180 c 0
 76 190 191 222 228 234 c 0
 235 236 234 244 237 257 c 2
 248 317 l 2
 250 325 250 334 250 338 c 3
 250 362 230 397 194 397 c 0
 164 397 150 376 137 339 c 0
 125 307 108 294 86 294 c 0
 65 294 63 314 63 323 c 0
 63 336 69 348 74 356 c 1
 103 381 182 435 247 435 c 3xee
213 108 m 2
 228 201 l 1
 100 176 78 134 78 101 c 0
 78 69 97 46 123 46 c 3
 155 46 212 99 213 108 c 2
417 394 m 3
 354 394 311 302 302 230 c 1
 341 230 458 280 458 354 c 3
 458 379 437 394 417 394 c 3
EndSplineSet
Validated: 1
Substitution2: "'smcp' Lowercase to Small Capitals in Latin lookup 3-1" ae.sc
EndChar

StartChar: eth
Encoding: 240 240 173
Width: 431
VWidth: 0
Flags: W
HStem: -7 39<134.827 218.944> 398 40<179.739 270.598> 664 24<148.992 160.18>
LayerCount: 2
Fore
SplineSet
152.552 509 m 17
 148.552 516 138.552 536 143.552 541 c 9
 393.552 705 l 17
 397.552 699 408.552 679 403.552 674 c 9
 152.552 509 l 17
140.552 664 m 1
 141.552 671 151.552 688 158.552 688 c 1
 298.552 649 419.552 496 371.552 250 c 0
 342.552 102 258.552 -7 168.552 -7 c 0
 46.5518 -7 9.55176 107 30.5518 217 c 0
 51.5518 325 137.552 438 243.552 438 c 0
 276.552 438 301.552 424 311.552 407 c 1
 313.552 487 285.552 588 140.552 664 c 1
292.552 217 m 0
 303.552 272 299.552 315 294.552 332 c 0
 283.552 367 264.552 398 225.552 398 c 0
 165.552 398 126.552 316 108.552 224 c 0
 89.5518 126 116.552 32 169.552 32 c 0
 237.552 32 273.552 119 292.552 217 c 0
EndSplineSet
Validated: 37
Substitution2: "'smcp' Lowercase to Small Capitals in Latin lookup 3-1" eth.sc
EndChar

StartChar: divide
Encoding: 247 247 180
Width: 527
VWidth: 0
Flags: W
HStem: 4 100<188.312 252.658> 215 63<38.9041 478.135> 390 100<262.312 327.228>
VStem: 178 87<15.6658 94.1914> 252 88<401.666 480.191>
LayerCount: 2
Fore
SplineSet
303 490 m 27xe8
 324 490 340 471 340 450 c 27
 340 419 317 390 286 390 c 27
 264 390 252 412 252 434 c 27
 252 464 273 490 303 490 c 27xe8
229 104 m 27
 250 104 265 85 265 64 c 27
 265 33 243 4 212 4 c 27
 190 4 178 26 178 48 c 27xf0
 178 78 199 104 229 104 c 27
52 278 m 1
 482 278 l 2
 485 278 486 275 486 269 c 3
 486 255 477 228 465 215 c 1
 35 215 l 2
 32 215 30 218 30 224 c 3
 30 238 41 264 52 278 c 1
EndSplineSet
Validated: 1
Substitution2: "'smcp' Lowercase to Small Capitals in Latin lookup 3-1" divide.sc
EndChar

StartChar: oslash
Encoding: 248 248 181
Width: 408
VWidth: 0
Flags: W
HStem: -5 32<125.829 199.828> 0 21G<49 67.4> 403 32<189.936 262.934>
VStem: 21 78<49.2289 249.363> 287 78<176.798 384.03>
LayerCount: 2
Fore
SplineSet
52 0 m 17x78
 46 3 29 14 33 20 c 9
 341 419 l 17
 347 416 364 406 360 400 c 9
 52 0 l 17x78
EndSplineSet
Refer: 78 111 N 1 0 0 1 0 0 2
Validated: 5
Substitution2: "'smcp' Lowercase to Small Capitals in Latin lookup 3-1" oslash.sc
EndChar

StartChar: thorn
Encoding: 254 254 187
Width: 443
Flags: W
HStem: -235 29<-55.9379 -15.6636> -226 27<86.0912 132.869> -5 35<143.288 222.913> 380 55<255.859 350.785> 632 21<89.5941 146.029> 666 20G<214.287 227.787>
VStem: 150.287 81<542.661 667.737> 331.287 74<198.629 368.99>
LayerCount: 2
Fore
SplineSet
218.287 592 m 2xbf
 215.287 573 171.287 353 170.287 346 c 1
 197.287 371 267.287 435 318.287 435 c 0
 382.287 435 405.287 384 405.287 314 c 0
 405.287 159 275.287 -5 153.287 -5 c 0
 136.287 -5 113.287 -2 107.287 8 c 1
 74.2871 -145 l 2
 72.2871 -154 71.2871 -163 71.2871 -173 c 0
 71.2871 -178 75.2871 -193 85.2871 -196 c 0
 102.287 -200 129.287 -199 132.287 -199 c 0
 136.287 -200 134.287 -225 129.287 -227 c 1
 116.287 -227 105.287 -226 94.2871 -226 c 0x7f
 43.2871 -226 4.28711 -228 -53.7129 -235 c 1
 -58.7129 -234 -57.7129 -209 -52.7129 -206 c 1
 -34.7129 -206 -21.7129 -201 -12.7129 -190 c 0
 -5.71289 -181 -1.71289 -170 3.28711 -147 c 2
 82.2871 250 l 1
 34.2871 202 l 1
 30.2871 207 28.2871 217 28.2871 222 c 0
 28.2871 226 30.2871 228 31.2871 229 c 2
 90.2871 292 l 1
 141.287 560 l 2
 144.287 578 150.287 602 150.287 613 c 0
 150.287 632 105.287 632 89.2871 632 c 1
 86.2871 636 89.2871 649 93.2871 653 c 1
 148.287 658 203.287 678 225.287 686 c 1
 230.287 683 231.287 673 231.287 667 c 0
 231.287 659 223.287 617 218.287 592 c 2xbf
278.287 380 m 0
 245.287 380 187.287 338 160.287 300 c 1
 127.287 131 l 2
 116.287 72 144.287 30 174.287 30 c 0
 259.287 30 331.287 184 331.287 303 c 0
 331.287 358 310.287 380 278.287 380 c 0
EndSplineSet
Validated: 33
Substitution2: "'smcp' Lowercase to Small Capitals in Latin lookup 3-1" thorn.sc
EndChar

StartChar: dagger
Encoding: 8224 8224 190
Width: 337
Flags: W
HStem: -10 21G<88 98 141.5 177.5> 371 51<55.3492 164.69 221.985 330.651>
VStem: 44 298
LayerCount: 2
Fore
SplineSet
215 371 m 2
 205 371 209 371 146 -10 c 1
 137 -6 125 -5 115 -5 c 0
 105 -5 94 -6 82 -10 c 1
 114 135 138 216 166 361 c 0
 167 366 166 371 161 371 c 2
 147 371 l 2
 112 371 83 368 44 366 c 1
 50 385 55 412 56 427 c 1
 94 425 122 422 157 422 c 2
 171 422 l 2
 183 422 179 438 206 629 c 1
 217 627 227 625 237 625 c 0
 247 625 258 627 270 629 c 1
 222 433 211 422 225 422 c 2
 238 422 l 2
 273 422 303 425 342 427 c 1
 329 379 334 403 330 366 c 1
 292 368 263 371 228 371 c 2
 215 371 l 2
EndSplineSet
Validated: 33
Substitution2: "Ordinals-1" dagger.ordn
EndChar

StartChar: daggerdbl
Encoding: 8225 8225 191
Width: 344
Flags: W
HStem: -10 21G<92 107 145.5 165.5> 191 62<25.3292 133.04 196.529 300.651> 379 51<61.3492 170.001 229.042 335.891>
VStem: 14 333
LayerCount: 2
Fore
SplineSet
14 191 m 1
 22 215 23 222 26 253 c 1
 141 248 l 2
 150 248 150 248 172 370 c 0
 173 375 171 379 166 379 c 2
 153 379 l 2
 118 379 89 376 50 374 c 1
 56 393 61 420 62 435 c 1
 101 433 127 430 162 430 c 2
 176 430 l 2
 190 430 186 464 210 629 c 1
 221 627 231 625 241 625 c 0
 251 625 262 627 274 629 c 1
 229 441 218 430 231 430 c 2
 244 430 l 2
 279 430 308 433 347 435 c 1
 337 399 336 380 335 374 c 1
 296 376 269 379 234 379 c 2
 221 379 l 2
 213 379 218 381 200 292 c 0
 195 263 187 248 199 248 c 2
 312 253 l 1
 299 204 304 229 300 191 c 1
 189 197 l 1
 176 194 181 180 150 -10 c 1
 141 -6 129 -5 119 -5 c 0
 109 -5 98 -6 86 -10 c 1
 128 158 146 197 131 197 c 2
 14 191 l 1
EndSplineSet
Validated: 33
Substitution2: "Ordinals-1" daggerdbl.ordn
EndChar

StartChar: bullet
Encoding: 8226 8226 192
Width: 287
Flags: W
HStem: 155 216<99.0752 184.964>
VStem: 42.0195 200
LayerCount: 2
Fore
SplineSet
42.0195 263 m 0
 53.0195 322 108.02 371 163.02 371 c 0
 218.02 371 253.02 322 242.02 263 c 0
 231.02 204 176.02 155 121.02 155 c 0
 66.0195 155 31.0195 204 42.0195 263 c 0
EndSplineSet
Validated: 33
EndChar

StartChar: uni2010
Encoding: 8208 8208 193
Width: 290
VWidth: 0
Flags: W
VStem: 66 254<210.346 261>
LayerCount: 2
Fore
SplineSet
87 261 m 2
 314 273 l 2
 319 273 320 266 320 261 c 0
 320 248 307 211 297 210 c 10
 71 199 l 2
 68 199 66 206 66 214 c 0
 66 225 76 260 87 261 c 2
EndSplineSet
Validated: 1
EndChar

StartChar: uni2011
Encoding: 8209 8209 194
Width: 290
VWidth: 0
Flags: W
VStem: 66 254<210.346 261>
LayerCount: 2
Fore
SplineSet
87 261 m 2
 314 273 l 2
 319 273 320 266 320 261 c 0
 320 248 307 211 297 210 c 10
 71 199 l 2
 68 199 66 206 66 214 c 0
 66 225 76 260 87 261 c 2
EndSplineSet
Validated: 1
EndChar

StartChar: figuredash
Encoding: 8210 8210 195
Width: 440
Flags: W
HStem: 200 62<70.5 455.5>
LayerCount: 2
Fore
SplineSet
456 262 m 2
 460 262 462 256 462 249 c 0
 462 235 452 207 440 200 c 1
 70 200 l 2
 66 200 64 206 64 213 c 0
 64 227 74 255 86 262 c 1
 456 262 l 2
EndSplineSet
Validated: 1
EndChar

StartChar: endash
Encoding: 8211 8211 196
Width: 560
Flags: W
HStem: 200 62<57.5 488.5>
LayerCount: 2
Fore
SplineSet
489 262 m 6
 493 262 495 256 495 249 c 4
 495 235 485 207 473 200 c 5
 57 200 l 6
 53 200 51 206 51 213 c 4
 51 227 61 255 73 262 c 5
 489 262 l 6
EndSplineSet
Validated: 1
EndChar

StartChar: emdash
Encoding: 8212 8212 197
Width: 796
Flags: W
HStem: 200 62<57.5 724.5>
LayerCount: 2
Fore
SplineSet
725 262 m 6
 729 262 731 256 731 249 c 4
 731 235 721 207 709 200 c 5
 57 200 l 6
 53 200 51 206 51 213 c 4
 51 227 61 255 73 262 c 5
 725 262 l 6
EndSplineSet
Validated: 1
EndChar

StartChar: afii00208
Encoding: 8213 8213 198
Width: 1004
Flags: W
HStem: 200 62<70.5 1007.5>
LayerCount: 2
Fore
SplineSet
1008 262 m 2
 1012 262 1014 256 1014 249 c 0
 1014 235 1004 207 992 200 c 1
 70 200 l 6
 66 200 64 206 64 213 c 4
 64 227 74 255 86 262 c 5
 1008 262 l 2
EndSplineSet
Validated: 1
EndChar

StartChar: quoteleft
Encoding: 8216 8216 199
Width: 179
Flags: W
HStem: 482 224
VStem: 100.634 87<496.757 576.344>
LayerCount: 2
Fore
SplineSet
99.6338 555 m 0
 117.634 649 223.634 706 231.634 706 c 0
 238.634 706 243.634 699 245.634 688 c 1
 182.634 652 164.634 606 162.634 597 c 0
 157.634 571 192.634 553 187.634 525 c 0
 182.634 501 148.634 482 118.634 482 c 0
 111.634 482 106.634 483 100.634 485 c 1
 94.6338 498 94.6338 530 99.6338 555 c 0
EndSplineSet
Validated: 33
EndChar

StartChar: quoteright
Encoding: 8217 8217 200
Width: 189
Flags: W
HStem: 484 224
VStem: 141 86<609.555 694.012>
LayerCount: 2
Fore
SplineSet
227 635 m 0
 209 541 104 484 96 484 c 0
 89 484 83 491 81 502 c 1
 144 538 163 584 165 593 c 0
 170 619 136 637 141 665 c 0
 146 689 179 708 209 708 c 0
 216 708 221 707 227 705 c 1
 233 692 232 660 227 635 c 0
EndSplineSet
Validated: 33
EndChar

StartChar: quotesinglbase
Encoding: 8218 8218 201
Width: 190
Flags: W
HStem: -97 223
VStem: 11 87<31.6731 111.243>
LayerCount: 2
Fore
SplineSet
98 53 m 0
 80 -41 -25 -97 -33 -97 c 0
 -40 -97 -46 -91 -48 -80 c 1
 15 -44 34 2 36 11 c 0
 41 37 6 55 11 83 c 0
 16 107 50 126 80 126 c 0
 87 126 92 125 98 123 c 1
 104 110 103 78 98 53 c 0
EndSplineSet
Validated: 33
EndChar

StartChar: quotedblleft
Encoding: 8220 8220 202
Width: 313
Flags: W
HStem: 482 224<233.634 238.634>
VStem: 100.634 87<496.757 576.344> 233.634 87<495.988 576.344>
LayerCount: 2
Fore
SplineSet
233.634 555 m 0
 251.634 649 356.634 706 364.634 706 c 0
 371.634 706 377.634 699 379.634 688 c 1
 316.634 652 297.634 606 295.634 597 c 0
 290.634 571 325.634 553 320.634 525 c 0
 315.634 501 282.634 482 252.634 482 c 0
 245.634 482 239.634 483 233.634 485 c 1
 227.634 498 228.634 530 233.634 555 c 0
99.6338 555 m 0
 117.634 649 223.634 706 231.634 706 c 0
 238.634 706 243.634 699 245.634 688 c 1
 182.634 652 164.634 606 162.634 597 c 0
 157.634 571 192.634 553 187.634 525 c 0
 182.634 501 148.634 482 118.634 482 c 0
 111.634 482 106.634 483 100.634 485 c 1
 94.6338 498 94.6338 530 99.6338 555 c 0
EndSplineSet
Validated: 33
EndChar

StartChar: quotedblright
Encoding: 8221 8221 203
Width: 323
Flags: W
HStem: 484 224<222 227>
VStem: 141 86<609.555 694.012> 274 86<609.555 694.012>
LayerCount: 2
Fore
SplineSet
361 635 m 0
 343 541 237 484 229 484 c 0
 222 484 217 491 215 502 c 1
 278 538 296 584 298 593 c 0
 303 619 269 637 274 665 c 0
 279 689 312 708 342 708 c 0
 349 708 354 707 360 705 c 1
 366 692 366 660 361 635 c 0
227 635 m 0
 209 541 104 484 96 484 c 0
 89 484 83 491 81 502 c 1
 144 538 163 584 165 593 c 0
 170 619 136 637 141 665 c 0
 146 689 179 708 209 708 c 0
 216 708 221 707 227 705 c 1
 233 692 232 660 227 635 c 0
EndSplineSet
Validated: 33
EndChar

StartChar: quotedblbase
Encoding: 8222 8222 204
Width: 323
Flags: W
HStem: -99 223
VStem: 11 87<31.6731 111.243> 144 87<25.5793 109.243>
LayerCount: 2
Fore
SplineSet
231 51 m 0
 213 -43 108 -99 100 -99 c 0
 93 -99 87 -93 85 -82 c 1
 148 -46 166 0 168 9 c 0
 173 35 139 53 144 81 c 0
 149 105 183 124 213 124 c 0
 220 124 225 123 231 121 c 1
 237 108 236 76 231 51 c 0
98 53 m 0
 80 -41 -25 -97 -33 -97 c 0
 -40 -97 -46 -91 -48 -80 c 1
 15 -44 34 2 36 11 c 0
 41 37 6 55 11 83 c 0
 16 107 50 126 80 126 c 0
 87 126 92 125 98 123 c 1
 104 110 103 78 98 53 c 0
EndSplineSet
Validated: 33
EndChar

StartChar: onedotenleader
Encoding: 8228 8228 205
Width: 638
Flags: W
HStem: -14 116<295.976 364.375>
VStem: 277 108<6.4082 83.234>
LayerCount: 2
Fore
SplineSet
277 32 m 0
 277 69 308 102 341 102 c 0
 367 102 385 83 385 57 c 0
 385 20 352 -14 319 -14 c 0
 293 -14 277 6 277 32 c 0
EndSplineSet
Validated: 1
EndChar

StartChar: ellipsis
Encoding: 8230 8230 206
Width: 674
Flags: W
HStem: -14 116<24.9761 93.375 261.976 330.375 497 565.875>
VStem: 6 108<6.4082 83.234> 243 108<6.4082 83.234> 478 109<6.94324 83.5491>
LayerCount: 2
Fore
SplineSet
478 32 m 0
 478 70 510 102 543 102 c 0
 569 102 587 83 587 57 c 0
 587 20 553 -14 520 -14 c 0
 494 -14 478 6 478 32 c 0
243 32 m 0
 243 69 274 102 307 102 c 0
 333 102 351 83 351 57 c 0
 351 20 318 -14 285 -14 c 0
 259 -14 243 6 243 32 c 0
6 32 m 0
 6 69 37 102 70 102 c 0
 96 102 114 83 114 57 c 0
 114 20 81 -14 48 -14 c 0
 22 -14 6 6 6 32 c 0
EndSplineSet
Validated: 1
EndChar

StartChar: perthousand
Encoding: 8240 8240 207
Width: 936
VWidth: 0
Flags: W
HStem: -8 28<383.061 453.221 695.061 765.221> 300 27<420.525 490.689 732.525 802.689> 338 28<171.061 241.221> 643 20G<617 628> 646 27<208.525 278.689>
VStem: 76 63<389.827 559.144> 288 63<43.8269 213.144> 306 65<451.145 624.049> 518 65<105.145 278.049> 600 63<43.8269 213.144> 830 65<105.145 278.049>
LayerCount: 2
Fore
SplineSet
772 300 m 3xe4e0
 709 300 663 210 663 132 c 27
 663 81 680 20 728 20 c 3
 791 20 830 116 830 195 c 27
 830 242 817 300 772 300 c 3xe4e0
782 327 m 3
 859 327 895 263 895 195 c 3
 895 99 814 -8 716 -8 c 3
 640 -8 600 55 600 123 c 3
 600 221 680 327 782 327 c 3
248 646 m 3xede0
 185 646 139 556 139 478 c 27
 139 427 156 366 204 366 c 3
 267 366 306 462 306 541 c 27
 306 588 293 646 248 646 c 3xede0
258 673 m 3
 335 673 371 609 371 541 c 3
 371 445 290 338 192 338 c 3
 116 338 76 401 76 469 c 3
 76 567 156 673 258 673 c 3
649 650 m 9
 53 0 l 2
 49 -4 33 -12 19 -12 c 27
 12 -12 6 -9 4 -1 c 9
 600 652 l 2
 604 656 612 663 622 663 c 27xf4e0
 634 663 645 660 649 650 c 9
460 300 m 3
 397 300 351 210 351 132 c 27xe6e0
 351 81 368 20 416 20 c 3
 479 20 518 116 518 195 c 27
 518 242 505 300 460 300 c 3
470 327 m 3
 547 327 583 263 583 195 c 3
 583 99 502 -8 404 -8 c 3
 328 -8 288 55 288 123 c 3
 288 221 368 327 470 327 c 3
EndSplineSet
Validated: 1
EndChar

StartChar: minute
Encoding: 8242 8242 208
Width: 140
Flags: W
HStem: 494 205
VStem: 63.1533 73<620.949 687.628>
LayerCount: 2
Fore
SplineSet
116.153 699 m 0
 124.153 699 136.153 696 136.153 682 c 0
 136.153 642 68.1533 541 42.1533 502 c 0
 38.1533 496 34.1533 494 30.1533 494 c 0
 24.1533 494 20.1533 499 21.1533 506 c 0
 22.1533 509 45.1533 612 63.1533 666 c 0
 67.1533 678 98.1533 699 116.153 699 c 0
EndSplineSet
Validated: 1
EndChar

StartChar: second
Encoding: 8243 8243 209
Width: 260
Flags: W
HStem: 494 205
VStem: 63.1533 73<620.949 687.628> 185.153 71<618.641 687.628>
LayerCount: 2
Fore
SplineSet
237.153 699 m 0
 245.153 699 256.153 696 256.153 682 c 0
 256.153 642 191.153 544 163.153 502 c 0
 159.153 496 155.153 494 151.153 494 c 0
 145.153 494 140.153 499 141.153 506 c 0
 142.153 509 167.153 612 185.153 666 c 0
 189.153 678 219.153 699 237.153 699 c 0
116.153 699 m 0
 124.153 699 136.153 696 136.153 682 c 0
 136.153 642 68.1533 541 42.1533 502 c 0
 38.1533 496 34.1533 494 30.1533 494 c 0
 24.1533 494 20.1533 499 21.1533 506 c 0
 22.1533 509 45.1533 612 63.1533 666 c 0
 67.1533 678 98.1533 699 116.153 699 c 0
EndSplineSet
Validated: 1
EndChar

StartChar: uni2038
Encoding: 8248 8248 210
Width: 375
Flags: W
HStem: -36 146
VStem: 75 219
LayerCount: 2
Fore
SplineSet
280 -36 m 0
 268 -36 222 11 196 47 c 1
 159 10 93 -36 81 -36 c 0
 76 -36 75 -28 75 -23 c 0
 75 -8 139 17 195 100 c 1
 199 108 201 110 206 110 c 0
 224 110 212 95 246 41 c 0
 258 21 293 -15 294 -18 c 1
 293 -22 286 -36 280 -36 c 0
EndSplineSet
Validated: 1
EndChar

StartChar: guilsinglleft
Encoding: 8249 8249 211
Width: 300
VWidth: 0
Flags: W
VStem: 25 89<219.901 267.151>
LayerCount: 2
Fore
SplineSet
218 91 m 1
 213 82 203 76 197 73 c 1
 167 112 95 182 35 228 c 0
 29 232 25 236 25 242 c 0
 25 253 33 262 40 266 c 0
 151 329 193 368 264 423 c 1
 268 422 280 417 282 408 c 1
 277 396 114 249 114 249 c 1
 114 249 218 99 218 91 c 1
EndSplineSet
Validated: 1
EndChar

StartChar: guilsinglright
Encoding: 8250 8250 212
Width: 301
VWidth: 0
Flags: W
VStem: 179 89<228.849 276.099>
LayerCount: 2
Fore
SplineSet
75 405 m 1
 80 414 90 420 96 423 c 1
 126 384 198 314 258 268 c 0
 264 264 268 260 268 254 c 0
 268 243 260 234 253 230 c 0
 142 167 100 128 29 73 c 1
 25 74 13 79 11 88 c 1
 16 100 179 247 179 247 c 1
 179 247 75 397 75 405 c 1
EndSplineSet
Validated: 1
EndChar

StartChar: uni203E
Encoding: 8254 8254 213
Width: 526
Flags: W
HStem: 739 62<134.5 688.5>
LayerCount: 2
Fore
SplineSet
689 801 m 2
 693 801 695 795 695 788 c 0
 695 774 685 746 673 739 c 1
 134 739 l 2
 130 739 128 745 128 752 c 0
 128 766 138 794 150 801 c 1
 689 801 l 2
EndSplineSet
Validated: 1
EndChar

StartChar: Euro
Encoding: 8364 8364 214
Width: 645
VWidth: 0
Flags: W
HStem: -4 41<261.231 459.863> 240 47<24.8398 82 170 375.15> 353 47<46.8398 98 200 397.15> 593 40<354.029 526.499>
VStem: 588 33<459.707 532.236>
LayerCount: 2
Fore
SplineSet
500 32 m 0
 456 4 388 -4 329 -4 c 0
 177 -4 88 114 82 240 c 1
 27 240 l 2
 24 240 22 245 22 250 c 0
 22 261 30 282 39 287 c 1
 84 287 l 1
 86 309 91 331 98 353 c 1
 49 353 l 2
 46 353 44 358 44 363 c 0
 44 374 52 395 61 400 c 1
 116 400 l 1
 173 524 294 633 439 633 c 0
 497 633 573 611 640 590 c 1
 640 590 623 482 621 473 c 0
 619 464 607 459 599 459 c 0
 593 459 590 459 588 461 c 1
 588 490 587 593 434 593 c 0
 345 593 248 514 200 400 c 1
 396 400 l 2
 399 400 400 395 400 390 c 0
 400 379 392 358 383 353 c 1
 183 353 l 1
 177 332 172 310 170 287 c 1
 374 287 l 2
 377 287 378 282 378 277 c 0
 378 266 370 245 361 240 c 1
 168 240 l 1
 170 128 225 37 348 37 c 0
 511 37 555 140 568 140 c 0
 572 140 587 126 587 117 c 1
 578 101 557 69 500 32 c 0
EndSplineSet
Validated: 1
EndChar

StartChar: arrowleft
Encoding: 8592 8592 215
Width: 672
Flags: W
HStem: 216 62<119 653.5>
LayerCount: 2
Fore
SplineSet
183 335 m 10
 119 278 l 25
 654 278 l 18
 658 278 660 272 660 265 c 0
 660 251 650 223 638 216 c 1
 109 216 l 1
 109 216 133 179 150 157 c 16
 189 106 193 105 193 94 c 0
 193 84 176 76 169 73 c 1
 168 75 126 132 8 227 c 0
 5 229 4 233 4 237 c 0
 4 244 8 259 17 268 c 1
 154 347 237 422 238 423 c 1
 250 419 258 413 256 404 c 1
 256 394 251 396 183 335 c 10
EndSplineSet
Validated: 1
EndChar

StartChar: arrowup
Encoding: 8593 8593 216
Width: 315
Flags: W
HStem: 438 21G<7 16.5 298 308>
VStem: 0 326
LayerCount: 2
Fore
SplineSet
152 556 m 1
 86 499 l 1
 19 439 20 438 13 438 c 0
 1 438 2 456 0 461 c 1
 2 462 67 520 184 667 c 0
 187 672 192 674 198 674 c 0
 207 674 216 673 222 666 c 1
 270 535 325 461 326 460 c 1
 320 446 312 437 304 437 c 0
 292 437 297 440 248 505 c 2
 210 555 l 1
 99 -21 l 2
 98 -24 93 -28 86 -28 c 0
 71 -28 47 -21 41 -13 c 1
 152 556 l 1
EndSplineSet
Validated: 1
EndChar

StartChar: arrowright
Encoding: 8594 8594 217
Width: 676
Flags: W
HStem: 217 62<13.5 549>
LayerCount: 2
Fore
SplineSet
549 217 m 1
 13 217 l 2
 9 217 7 223 7 230 c 0
 7 244 17 272 29 279 c 1
 563 279 l 1
 520 339 l 1
 473 401 477 387 477 404 c 1
 480 417 497 420 502 423 c 1
 503 421 544 363 662 268 c 0
 665 266 666 263 666 259 c 0
 666 253 663 236 654 227 c 1
 517 148 433 74 432 73 c 1
 420 77 413 82 415 91 c 1
 415 100 420 100 491 164 c 2
 549 217 l 1
EndSplineSet
Validated: 33
EndChar

StartChar: arrowdown
Encoding: 8595 8595 218
Width: 313
Flags: W
VStem: -10 325
LayerCount: 2
Fore
SplineSet
105 90 m 1
 217 667 l 2
 218 671 223 673 230 673 c 0
 244 673 266 666 274 658 c 1
 164 89 l 1
 230 146 l 1
 296 206 289 207 303 207 c 0
 315 207 313 189 315 184 c 1
 313 183 248 125 131 -22 c 0
 128 -27 123 -29 117 -29 c 0
 108 -29 99 -27 93 -20 c 1
 45 111 -9 184 -10 185 c 1
 -4 199 3 208 11 208 c 0
 22 208 17 206 68 138 c 1
 105 90 l 1
EndSplineSet
Validated: 1
EndChar

StartChar: summation
Encoding: 8721 8721 219
Width: 567
Flags: W
HStem: 2 45<90.0067 416.802> 2 29<-22.5762 8.35864> 627 31<100.579 125.204>
VStem: 519 29<523.096 586.903>
LayerCount: 2
Fore
SplineSet
403 616 m 2x70
 403 616 313 617 287 617 c 0
 254 617 226 615 223 607 c 1
 350 358 l 1
 352 346 351 335 343 327 c 0
 306 291 90 87 90 57 c 0
 90 51 99 47 158 47 c 0xb0
 190 47 226 48 257 48 c 0
 292 48 381 51 411 66 c 0
 431 76 458 109 483 162 c 0
 485 166 490 168 497 168 c 0
 506 168 518 165 520 162 c 1
 492 108 452 40 437 -4 c 1
 336 -4 173 2 88 2 c 0
 26 2 -23 -3 -23 -3 c 1
 -24 -2 -24 1 -24 5 c 0
 -24 13 -20 31 -17 31 c 0
 -7 31 17 51 28 63 c 2
 267 317 l 2
 269 320 270 323 268 327 c 0
 260 347 193 490 141 592 c 0
 132 609 110 627 99 627 c 0
 96 627 96 649 105 658 c 1
 105 658 151 656 213 656 c 0
 299 656 447 664 548 664 c 1
 547 648 547 632 547 617 c 0
 547 587 548 558 548 528 c 1
 545 525 538 523 531 523 c 0
 524 523 519 525 519 530 c 0
 516 587 494 602 486 607 c 0
 472 615 436 616 403 616 c 2x70
EndSplineSet
Validated: 1
EndChar

StartChar: minus
Encoding: 8722 8722 220
Width: 547
Flags: W
HStem: 218 56<51.4466 485.173>
LayerCount: 2
Fore
SplineSet
43.4082 228 m 1
 43.4082 228 56.4082 274 65.4082 274 c 2
 490.408 274 l 2
 493.408 274 495.408 274 495.408 269 c 0
 495.408 265 486.408 242 478.408 224 c 0
 475.408 218 471.408 218 471.408 218 c 1
 47.4082 218 l 1
 47.4082 218 41.4082 218 43.4082 228 c 1
EndSplineSet
Validated: 1
EndChar

StartChar: uni2213
Encoding: 8723 8723 221
Width: 489
Flags: W
HStem: 221 57<13.1421 187.953 259 440.358> 522 57<65.1088 492.536>
LayerCount: 2
Fore
SplineSet
496 579 m 1
 496 579 502 579 502 572 c 0
 502 571 502 569 501 567 c 0
 485 519 480 525 477 522 c 1
 61 522 l 1
 61 522 53 522 58 536 c 0
 70 572 73 579 79 579 c 2
 496 579 l 1
243 218 m 2
 206 26 l 1
 206 26 204 16 161 10 c 0
 158 10 157 9 155 9 c 0
 148 9 151 13 152 17 c 2
 191 216 l 2
 191 218 191 221 186 221 c 2
 1 221 l 1
 1 221 -3 221 -3 227 c 0
 -3 236 11 267 13 272 c 0
 16 278 21 278 21 278 c 1
 198 278 l 2
 201 278 204 281 204 283 c 2
 241 473 l 1
 241 473 241 478 247 480 c 0
 271 487 282 488 286 488 c 0
 295 488 295 482 295 482 c 1
 256 282 l 2
 255 279 256 278 259 278 c 2
 445 278 l 2
 448 278 451 278 451 274 c 0
 451 265 435 232 433 227 c 0
 430 221 425 221 425 221 c 1
 248 221 l 2
 245 221 243 220 243 218 c 2
EndSplineSet
Validated: 1
EndChar

StartChar: radical
Encoding: 8730 8730 222
Width: 449
Flags: W
LayerCount: 2
Fore
SplineSet
-28 168 m 1
 -39 174 -44 181 -44 185 c 0
 -44 193 -25 203 -19 206 c 0
 18 226 102 279 117 291 c 0
 126 298 140 298 141 290 c 0
 142 257 150 226 151 221 c 2
 211 -31 l 1
 503 791 l 1
 537 791 l 1
 200 -153 l 1
 183 -171 172 -173 166 -173 c 0
 162 -173 157 -172 157 -168 c 2
 68 220 l 1
 -28 168 l 1
EndSplineSet
Validated: 1
EndChar

StartChar: proportional
Encoding: 8733 8733 223
Width: 602
Flags: W
HStem: 41 56<113.349 218.342 511.398 535.02> 362 60<154.187 265.185 548.845 605.125>
VStem: 15 67<129.239 277.844>
LayerCount: 2
Fore
SplineSet
215 362 m 0
 138 362 82 269 82 198 c 0
 82 142 115 97 170 97 c 0
 231 97 294 172 343 218 c 0
 344 219 345 219 344 220 c 0
 321 259 280 362 215 362 c 0
602 419 m 1
 604 415 606 405 606 401 c 0
 606 388 605 367 596 367 c 0
 539 367 466 286 426 246 c 0
 425 245 424 244 425 243 c 0
 457 185 493 100 557 100 c 0
 575 100 540 47 528 43 c 1
 406 43 369 180 359 180 c 2
 358 180 l 1
 296 117 226 41 134 41 c 0
 59 41 15 104 15 182 c 0
 15 308 125 422 238 422 c 0
 328 422 377 334 406 286 c 0
 407 284 410 283 411 285 c 0
 455 332 524 404 602 419 c 1
EndSplineSet
Validated: 33
EndChar

StartChar: infinity
Encoding: 8734 8734 224
Width: 802
Flags: W
HStem: 43 57<120.45 231.894 514.794 625.388> 362 60<164.472 275.588 560.184 668.059>
VStem: 25 67<129.307 278.512> 695 69<185.93 333.226>
LayerCount: 2
Fore
SplineSet
605 367 m 0
 548 367 476 286 436 246 c 0
 435 245 434 244 435 243 c 0
 467 185 503 100 567 100 c 0
 644 100 695 197 695 264 c 0
 695 322 661 367 605 367 c 0
226 362 m 0
 155 362 92 279 92 199 c 0
 92 142 126 97 181 97 c 0
 242 97 305 172 354 218 c 0
 355 219 355 219 354 220 c 0
 331 259 291 362 226 362 c 0
248 422 m 0
 338 422 387 334 416 286 c 0
 417 284 421 283 422 285 c 0
 471 338 551 422 641 422 c 0
 717 422 764 359 764 281 c 0
 764 156 651 43 537 43 c 0
 415 43 379 180 369 180 c 2
 368 180 l 1
 306 117 235 41 144 41 c 0
 69 41 25 104 25 182 c 0
 25 308 135 422 248 422 c 0
EndSplineSet
Validated: 1
EndChar

StartChar: notequal
Encoding: 8800 8800 225
Width: 505
Flags: W
HStem: 117 56<16.2782 144 232 439.122> 259 56<51.1421 245 334 467.358>
LayerCount: 2
Fore
SplineSet
334 315 m 1
 472 315 l 2
 475 315 478 316 478 312 c 0
 478 303 462 270 460 265 c 0
 457 259 453 259 453 259 c 1
 293 259 l 1
 232 173 l 1
 444 173 l 2
 448 173 451 175 450 168 c 0
 448 159 442 145 432 123 c 0
 429 117 426 117 426 117 c 1
 192 117 l 1
 119 13 l 1
 119 13 119 11 115 11 c 0
 112 11 96 15 87 31 c 0
 84 35 88 38 88 38 c 1
 144 117 l 1
 12 117 l 1
 12 117 7 117 7 124 c 0
 7 130 11 140 24 168 c 0
 27 174 31 173 31 173 c 1
 184 173 l 1
 245 259 l 1
 39 259 l 1
 39 259 33 259 35 269 c 0
 36 273 40 286 51 310 c 0
 54 316 59 315 59 315 c 1
 284 315 l 1
 349 406 l 1
 349 406 349 409 353 409 c 0
 358 409 370 406 379 391 c 0
 383 386 380 381 380 381 c 1
 334 315 l 1
EndSplineSet
Validated: 1
EndChar

StartChar: lessequal
Encoding: 8804 8804 226
Width: 456
Flags: W
HStem: 6 56<-14.3358 349.644>
LayerCount: 2
Fore
SplineSet
0 62 m 1
 352 62 l 2
 355 62 356 59 356 53 c 3
 356 39 347 19 335 6 c 1
 -17 6 l 2
 -20 6 -22 9 -22 15 c 3
 -22 29 -11 48 0 62 c 1
433 529 m 17
 437 524 446 505 446 488 c 27
 446 483 445 477 441 475 c 2
 105 310 l 1
 381 142 l 1
 381 124 363 87 357 87 c 0
 356 87 355 87 353 88 c 2
 42 279 l 2
 34 284 31 292 31 302 c 0
 31 327 42 336 54 342 c 2
 433 529 l 17
EndSplineSet
Validated: 1
EndChar

StartChar: greaterequal
Encoding: 8805 8805 227
Width: 459
Flags: W
HStem: 6 56<12.6642 376.644>
LayerCount: 2
Fore
SplineSet
27 62 m 1
 379 62 l 2
 382 62 383 59 383 53 c 3
 383 39 374 19 362 6 c 1
 10 6 l 2
 7 6 5 9 5 15 c 3
 5 29 16 48 27 62 c 1
35 88 m 17
 29 96 22 125 22 134 c 0
 22 138 24 140 28 142 c 2
 369 310 l 1
 98 475 l 1
 98 500 114 530 120 530 c 0
 122 530 124 530 126 529 c 2
 433 342 l 2
 440 338 445 331 445 322 c 0
 445 320 444 290 421 279 c 2
 35 88 l 17
EndSplineSet
Validated: 1
EndChar

StartChar: partialdiff
Encoding: 8706 8706 228
Width: 419
Flags: W
HStem: 0 36<110.36 202.37> 330 37<155.531 262.441> 592 42<159.17 279.394>
VStem: 9 72<60.087 229.351> 336 61<341.586 530.184>
LayerCount: 2
Fore
SplineSet
203 330 m 0
 147 330 81 255 81 149 c 0
 81 109 87 36 156 36 c 0
 244 36 300 192 300 238 c 0
 300 290 261 330 203 330 c 0
336 430 m 4
 336 485 317 592 213 592 c 4
 179 592 145 578 110 552 c 5
 109 555 103 560 105 568 c 4
 108 581 162 634 245 634 c 4
 343 634 397 537 397 414 c 4
 397 286 343 0 125 0 c 0
 48 0 9 59 9 132 c 0
 9 227 81 367 223 367 c 0
 271 367 316 339 320 339 c 0
 333 339 336 410 336 430 c 4
EndSplineSet
Validated: 1
EndChar

StartChar: gravecomb
Encoding: 768 768 229
Width: 228
Flags: W
HStem: 541 144
VStem: 165 177
LayerCount: 2
Fore
SplineSet
329 541 m 0
 314 541 165 625 165 657 c 0
 165 680 201 685 214 685 c 0
 223 685 231 683 234 680 c 0
 245 668 342 567 342 559 c 0
 342 551 334 541 329 541 c 0
EndSplineSet
Validated: 1
EndChar

StartChar: acutecomb
Encoding: 769 769 230
Width: 216
Flags: W
HStem: 541 143
VStem: 157 180
LayerCount: 2
Fore
SplineSet
164 541 m 0
 162 541 157 547 157 553 c 0
 157 561 229 646 272 679 c 0
 277 682 288 684 298 684 c 0
 314 684 337 680 337 660 c 0
 337 625 172 541 164 541 c 0
EndSplineSet
Validated: 1
EndChar

StartChar: uni0302
Encoding: 770 770 231
Width: 389
Flags: W
HStem: 706 131
VStem: 237.474 212
LayerCount: 2
Fore
SplineSet
436.474 706 m 0
 425.474 706 375.474 743 350.474 764 c 1
 317.474 741 254.474 706 243.474 706 c 0
 236.474 706 236.474 722 237.474 726 c 1
 243.474 732 271.474 754 299.474 777 c 4
 320.474 794 341.474 813 353.474 828 c 0
 359.474 834 360.474 837 364.474 837 c 0
 367.474 837 369.474 834 373.474 828 c 0
 378.474 820 385.474 806 401.474 784 c 0
 423.474 755 449.474 729 449.474 726 c 0
 447.474 718 442.474 706 436.474 706 c 0
EndSplineSet
Validated: 1
EndChar

StartChar: tildecomb
Encoding: 771 771 232
Width: 373
Flags: W
HStem: 724 49<334.552 426.882> 767 49<204.572 298.862>
VStem: 166.196 5<724.048 726.911> 460.196 6<812.487 815.952>
LayerCount: 2
Fore
SplineSet
268.196 816 m 0x70
 292.196 816 309.196 809 326.196 800 c 0
 347.196 789 363.196 773 393.196 773 c 0xb0
 426.196 773 453.196 808 460.196 816 c 1x70
 463.196 815 467.196 813 466.196 805 c 0
 464.196 789 453.196 772 444.196 762 c 0
 417.196 734 392.196 724 364.196 724 c 0xb0
 340.196 724 325.196 730 307.196 740 c 0
 287.196 751 268.196 767 238.196 767 c 0x70
 205.196 767 178.196 732 171.196 724 c 1xb0
 168.196 725 165.196 728 166.196 736 c 0
 168.196 752 178.196 768 187.196 778 c 0
 214.196 806 240.196 816 268.196 816 c 0x70
EndSplineSet
Validated: 1
EndChar

StartChar: dotlessi
Encoding: 305 305 233
Width: 255
Flags: W
HStem: -6 55<72.5 136.107> 380 55<93.7782 157.5>
VStem: 49 75<46 126.683> 111 75<302.317 383>
LayerCount: 2
Fore
SplineSet
107 323 m 2xe0
 108 329 111 350 111 355 c 0
 111 364 111 380 101 380 c 0
 80 380 34 325 31 322 c 1
 28 322 21 335 21 341 c 1
 32 360 100 435 147 435 c 0
 168 435 186 413 186 383 c 0xd0
 186 375 183 351 179 330 c 2
 128 106 l 2
 126 96 124 79 124 74 c 0
 124 65 124 49 134 49 c 0
 155 49 201 104 204 107 c 1
 207 107 214 94 214 88 c 1
 203 69 130 -6 83 -6 c 0
 62 -6 49 16 49 46 c 0
 49 54 52 78 56 99 c 2
 107 323 l 2xe0
EndSplineSet
Validated: 1
Substitution2: "'smcp' Lowercase to Small Capitals in Latin lookup 3-1" dotlessi.sc
EndChar

StartChar: uniF100
Encoding: 61696 61696 234
Width: 554
VWidth: 0
Flags: W
HStem: -233 41<-95.9001 -28.4951> -224 59<94.3928 196.199> 361 46<47.3211 103.516 189.59 359.609 445.552 564.597> 645 38<296.352 407> 661 38<531.607 630>
LayerCount: 2
Fore
SplineSet
371 683 m 0xb0
 425 683 467 666 481 653 c 1
 505 676 563 699 603 699 c 0
 657 699 677 680 685 665 c 1
 685 633 678 600 649 600 c 0
 616 600 605 661 572 661 c 0
 485 661 447 438 443 413 c 0
 443 412 443 411 443 411 c 0
 443 409 444 407 446 407 c 2
 561 407 l 2
 565 407 566 400 566 395 c 27
 566 381 560 369 555 361 c 1
 438 361 l 2
 435 361 433 361 432 353 c 2
 389 106 l 0
 341 -140 190 -224 125 -224 c 0x68
 71 -224 39 -189 29 -175 c 1
 -6 -215 -53 -233 -93 -233 c 0
 -147 -233 -168 -206 -176 -191 c 1
 -176 -166 -165 -131 -136 -131 c 0
 -103 -131 -106 -192 -63 -192 c 0
 -18 -192 33 -73 44 -10 c 0
 48 12 49 21 53 46 c 0
 106 354 l 1
 106 356 l 2
 106 359 105 361 103 361 c 2
 38 361 l 2
 37 361 36 362 36 364 c 0
 36 374 61 407 84 407 c 2
 113 407 l 2
 116 407 118 412 119 416 c 0
 151 580 277 683 371 683 c 0xb0
153 -165 m 0
 230 -165 277 -102 311 60 c 0
 362 354 l 1
 362 356 l 2
 362 359 361 361 359 361 c 1
 182 361 l 2
 179 361 177 361 176 353 c 2
 121 43 l 0
 109 -19 98 -59 76 -103 c 0
 75 -104 75 -106 75 -108 c 24
 75 -111 76 -115 76 -116 c 0
 80 -136 110 -165 153 -165 c 0
350 645 m 0x30
 273 645 216 561 194 454 c 0
 190 432 191 438 187 413 c 0
 187 412 187 411 187 411 c 0
 187 409 188 407 191 407 c 2
 369 407 l 2
 372 407 374 412 375 416 c 0
 387 478 412 551 430 584 c 0
 431 585 431 587 431 589 c 24
 431 592 430 596 430 597 c 0
 426 617 393 645 350 645 c 0x30
EndSplineSet
Validated: 1
LCarets2: 1 0 
EndChar

StartChar: uniF101
Encoding: 61697 61697 235
Width: 520
VWidth: 0
Flags: W
HStem: -231 39<-120.836 -28.1097> -6 58<351.04 417.007> 361 46<47.3611 104.165 189.955 353.056> 366 52<195.381 352.096> 661 38<277.717 351.851>
VStem: 314.04 69<52.3383 159.124>
LayerCount: 2
Fore
SplineSet
347.04 699 m 0xec
 401.04 699 418.04 686 433.04 672 c 0
 449.04 657 459.04 644 465.04 630 c 1
 465.04 602 451.04 566 420.04 566 c 27
 398.04 566 388.04 584 377.04 603 c 0
 363.04 628 348.04 661 311.04 661 c 0
 275.04 661 224.04 591 194.04 450 c 0
 192.04 438 189.04 426 187.04 413 c 0
 187.04 412 187.04 411 187.04 411 c 0
 187.04 409 188.04 407 190.04 407 c 0xec
 214.04 407 313.04 410 331.04 412 c 0
 352.04 414 415.04 418 417.04 418 c 3
 421.04 418 431.04 410 431.04 401 c 3
 431.04 396 427.04 360 424.04 339 c 0
 419.04 300 390.04 150 384.04 101 c 4
 383.04 96 383.04 92 383.04 89 c 0
 383.04 61 394.04 52 405.04 52 c 0
 426.04 52 466.04 125 470.04 125 c 0
 471.04 125 479.04 111 480.04 103 c 1
 473.04 83 421.04 -6 370.04 -6 c 3
 332.04 -6 314.04 20 314.04 67 c 0
 314.04 85 317.04 105 321.04 128 c 2
 352.04 293 l 2
 353.04 300 355.04 316 355.04 321 c 0
 355.04 343 348.04 366 329.04 366 c 8xdc
 272.04 366 182.04 361 182.04 361 c 2
 179.04 361 177.04 361 176.04 353 c 2
 121.04 54 l 2
 87.04 -142 -7.95996 -231 -94.96 -231 c 0
 -145.96 -231 -169.96 -207 -175.96 -190 c 1
 -176.96 -160 -158.96 -131 -134.96 -131 c 0
 -107.96 -131 -102.96 -192 -60.96 -192 c 0
 -5.95996 -192 36.04 -42 46.04 15 c 2
 106.04 354 l 1
 106.04 356 l 2
 106.04 359 105.04 361 103.04 361 c 2
 38.04 361 l 2
 37.04 361 36.04 362 36.04 364 c 0
 36.04 374 61.04 407 84.04 407 c 2
 113.04 407 l 2
 116.04 407 118.04 412 119.04 416 c 0
 146.04 582 247.04 699 347.04 699 c 0xec
EndSplineSet
Validated: 33
LCarets2: 1 0 
EndChar

StartChar: uniF102
Encoding: 61698 61698 236
Width: 781
VWidth: 0
Flags: W
HStem: -233 41<-95.9001 -28.4951> -224 47<92.4828 193.45> -6 58<612 677.967> 361 46<47.3211 103.516 189.59 359.609 445.584 614.016> 645 38<296.352 407> 661 38<531.988 612.811>
VStem: 575 69<52.1725 209.438>
LayerCount: 2
Fore
SplineSet
76 -116 m 0x72
 80 -136 93 -177 136 -177 c 0
 194 -177 277 -102 311 60 c 0
 362 354 l 1
 362 356 l 2
 362 359 361 361 359 361 c 1
 182 361 l 2
 179 361 177 361 176 353 c 2
 121 43 l 0
 109 -19 98 -59 76 -103 c 0
 75 -104 75 -106 75 -108 c 24
 75 -111 76 -115 76 -116 c 0x72
608 699 m 0x36
 662 699 679 686 694 672 c 0
 710 657 720 644 726 630 c 1
 726 602 712 566 681 566 c 27
 659 566 649 584 638 603 c 0
 624 628 609 661 572 661 c 0
 486 661 447 438 443 413 c 0
 443 412 443 411 443 411 c 0
 443 409 444 407 446 407 c 2
 592 412 l 0
 613 414 676 418 678 418 c 3
 682 418 692 410 692 401 c 3
 692 396 688 360 685 339 c 0
 679 296 644 117 644 89 c 0
 644 61 655 52 666 52 c 0
 687 52 727 125 731 125 c 0
 732 125 740 111 741 103 c 1
 734 83 682 -6 631 -6 c 3
 593 -6 575 20 575 67 c 0
 575 85 578 105 582 128 c 2
 613 293 l 2
 614 300 616 316 616 321 c 0
 616 343 609 366 590 366 c 0
 438 361 l 2
 435 361 433 361 432 353 c 2
 389 106 l 0
 341 -140 190 -224 125 -224 c 0x76
 71 -224 39 -189 29 -175 c 1
 -6 -215 -53 -233 -93 -233 c 0
 -147 -233 -168 -206 -176 -191 c 1
 -176 -166 -165 -131 -136 -131 c 0
 -103 -131 -106 -192 -63 -192 c 0
 -18 -192 33 -73 44 -10 c 0
 48 12 49 21 53 46 c 0
 106 354 l 1
 106 356 l 2
 106 359 105 361 103 361 c 2
 38 361 l 2
 37 361 36 362 36 364 c 0
 36 374 61 407 84 407 c 2
 113 407 l 2
 116 407 118 412 119 416 c 0
 151 580 277 683 371 683 c 0xba
 425 683 467 666 481 653 c 1
 505 676 569 699 608 699 c 0x36
350 645 m 0x3a
 273 645 216 561 194 454 c 0
 190 432 191 438 187 413 c 0
 187 412 187 411 187 411 c 0
 187 409 188 407 191 407 c 2
 369 407 l 2
 372 407 374 412 375 416 c 0
 387 478 412 551 430 584 c 0
 431 585 431 587 431 589 c 24
 431 592 430 596 430 597 c 0
 426 617 393 645 350 645 c 0x3a
EndSplineSet
Validated: 1
LCarets2: 2 0 0 
EndChar

StartChar: uniF103
Encoding: 61699 61699 237
Width: 530
VWidth: 0
Flags: W
HStem: -231 39<-120.836 -28.1097> -6 58<364.04 430.007> 361 46<47.3611 104.165 189.724 308.637> 661 38<281.175 391.052> 674 20G<510.04 517.54>
VStem: 327.04 69<52.1725 206.383>
LayerCount: 2
Fore
SplineSet
347.04 699 m 0xf4
 401.04 699 430.04 678 442.04 678 c 0
 464.04 678 505.04 694 515.04 694 c 1xec
 520.04 694 520.04 682 520.04 678 c 9
 520.04 678 501.04 646 490.04 591 c 10
 397.04 106 l 2
 396.04 102 396.04 94 396.04 89 c 0
 396.04 61 407.04 52 418.04 52 c 0
 439.04 52 479.04 125 483.04 125 c 0
 484.04 125 492.04 111 493.04 103 c 1
 486.04 83 434.04 -6 383.04 -6 c 3
 345.04 -6 327.04 20 327.04 67 c 0
 327.04 85 329.04 105 334.04 128 c 1
 338.04 155 387.04 399 421.04 577 c 0
 422.04 581 422.04 585 422.04 589 c 3
 422.04 632 376.04 661 329.04 661 c 0
 263.04 661 215.04 579 187.04 413 c 0
 187.04 412 187.04 411 187.04 411 c 0
 187.04 409 189.04 407 190.04 407 c 2
 305.04 407 l 2
 309.04 407 310.04 400 310.04 395 c 27
 310.04 381 304.04 369 299.04 361 c 1
 182.04 361 l 2
 180.04 361 177.04 361 176.04 353 c 2
 121.04 54 l 2
 87.04 -142 -7.95996 -231 -94.96 -231 c 0
 -145.96 -231 -169.96 -207 -175.96 -190 c 1
 -176.96 -160 -158.96 -131 -134.96 -131 c 0
 -107.96 -131 -102.96 -192 -60.96 -192 c 0
 -5.95996 -192 36.04 -42 46.04 15 c 2
 106.04 354 l 1
 106.04 356 l 2
 106.04 359 105.04 361 103.04 361 c 2
 38.04 361 l 2
 37.04 361 36.04 362 36.04 364 c 0
 36.04 374 61.04 407 84.04 407 c 2
 113.04 407 l 2
 116.04 407 118.04 412 119.04 416 c 0
 146.04 582 247.04 699 347.04 699 c 0xf4
EndSplineSet
Validated: 33
LCarets2: 1 0 
EndChar

StartChar: uniF104
Encoding: 61700 61700 238
Width: 791
VWidth: 0
Flags: W
HStem: -233 41<-95.9001 -28.4951> -224 47<92.4828 193.527> -6 58<625 690.967> 361 46<47.3211 103.516 189.59 359.609 450.684 569.597> 645 38<296.352 407> 661 38<541.186 652.012> 674 20G<771 778.5>
VStem: 588 69<52.1725 206.383>
LayerCount: 2
Fore
SplineSet
389 106 m 2x35
 342 -140 190 -224 125 -224 c 0x75
 71 -224 39 -189 29 -175 c 1
 -6 -215 -53 -233 -93 -233 c 0
 -147 -233 -168 -206 -176 -191 c 1
 -176 -166 -165 -131 -136 -131 c 0
 -103 -131 -106 -192 -63 -192 c 0
 -18 -192 33 -73 44 -10 c 0
 48 12 49 21 53 46 c 0
 106 354 l 1
 106 356 l 2
 106 359 105 361 103 361 c 2
 38 361 l 2
 37 361 36 362 36 364 c 0
 36 374 61 407 84 407 c 2
 113 407 l 2
 116 407 118 412 119 416 c 0
 151 580 277 683 371 683 c 0xb9
 425 683 467 666 481 653 c 1
 505 676 569 699 608 699 c 0x35
 662 699 691 678 703 678 c 0
 725 678 766 694 776 694 c 1x33
 781 694 781 682 781 678 c 9
 781 678 762 646 751 591 c 10
 658 106 l 2
 657 102 657 94 657 89 c 0
 657 61 668 52 679 52 c 0
 700 52 740 125 744 125 c 0
 745 125 753 111 754 103 c 1
 747 83 695 -6 644 -6 c 3
 606 -6 588 20 588 67 c 0
 588 85 590 105 595 128 c 1
 599 155 648 399 682 577 c 0
 683 581 683 585 683 589 c 3
 683 632 637 661 590 661 c 0
 524 661 476 579 448 413 c 0
 448 412 448 411 448 411 c 0
 448 409 450 407 451 407 c 2
 566 407 l 2
 570 407 571 400 571 395 c 27
 571 381 565 369 560 361 c 1
 443 361 l 2
 441 361 439 361 437 353 c 2
 389 106 l 2x35
136 -177 m 0
 194 -177 277 -102 311 60 c 0
 362 354 l 1
 362 356 l 2
 362 359 361 361 359 361 c 1
 182 361 l 2
 179 361 177 361 176 353 c 2
 121 43 l 0
 109 -19 98 -59 76 -103 c 0
 75 -104 75 -106 75 -108 c 24
 75 -111 76 -115 76 -116 c 0
 80 -136 93 -177 136 -177 c 0
350 645 m 0x39
 273 645 216 561 194 454 c 0
 190 432 191 438 187 413 c 0
 187 412 187 411 187 411 c 0
 187 409 188 407 191 407 c 2
 369 407 l 2
 372 407 374 412 375 416 c 0
 387 478 412 551 430 584 c 0
 431 585 431 587 431 589 c 24
 431 592 430 596 430 597 c 0
 426 617 393 645 350 645 c 0x39
EndSplineSet
Validated: 1
LCarets2: 2 0 0 
EndChar

StartChar: uniF105
Encoding: 61701 61701 239
Width: 723
VWidth: 0
Flags: W
HStem: -231 39<-120.836 -28.1097> -7 50<404.187 491.135> 361 46<47.3611 104.165 189.724 308.637> 373 62<555.409 643.54> 661 38<281.175 391.052> 674 20G<510.04 517.54>
VStem: 334.04 65<47.7275 206.608> 614.04 78<235.477 370.582>
LayerCount: 2
Fore
SplineSet
692.04 327 m 3xd7
 692.04 201 536.04 -7 422.04 -7 c 3
 359.04 -7 334.04 34 334.04 79 c 3
 334.04 99 336.04 134 343.04 168 c 2
 421.04 577 l 2
 422.04 582 422.04 585 422.04 589 c 3
 422.04 632 376.04 661 329.04 661 c 0
 263.04 661 215.04 579 187.04 413 c 0
 187.04 412 187.04 411 187.04 411 c 0
 187.04 409 189.04 407 190.04 407 c 2
 305.04 407 l 2
 309.04 407 310.04 400 310.04 395 c 27
 310.04 381 304.04 369 299.04 361 c 1
 182.04 361 l 2
 180.04 361 177.04 361 176.04 353 c 2
 121.04 54 l 2
 87.04 -142 -7.95996 -231 -94.96 -231 c 0
 -145.96 -231 -169.96 -207 -175.96 -190 c 1
 -176.96 -160 -158.96 -131 -134.96 -131 c 0
 -107.96 -131 -102.96 -192 -60.96 -192 c 0
 -5.95996 -192 36.04 -42 46.04 15 c 2
 106.04 354 l 1
 106.04 356 l 2
 106.04 359 105.04 361 103.04 361 c 2
 38.04 361 l 2
 37.04 361 36.04 362 36.04 364 c 0
 36.04 374 61.04 407 84.04 407 c 2
 113.04 407 l 2
 116.04 407 118.04 412 119.04 416 c 0
 146.04 582 247.04 699 347.04 699 c 0xeb
 401.04 699 430.04 678 442.04 678 c 0
 464.04 678 505.04 694 515.04 694 c 1
 520.04 694 520.04 682 520.04 678 c 9
 520.04 678 500.04 646 490.04 591 c 10
 436.04 307 l 2
 435.04 303 436.04 301 438.04 301 c 3
 440.04 301 441.04 302 444.04 307 c 0
 484.04 372 570.04 435 618.04 435 c 0
 669.04 435 692.04 401 692.04 327 c 3xd7
583.04 373 m 3xd3
 510.04 373 427.04 245 414.04 185 c 2
 406.04 150 l 2
 401.04 128 399.04 88 399.04 83 c 3
 399.04 61 415.04 43 439.04 43 c 3
 530.04 43 614.04 174 614.04 323 c 3
 614.04 342 606.04 373 583.04 373 c 3xd3
EndSplineSet
Validated: 33
EndChar

StartChar: uniF106
Encoding: 61702 61702 240
Width: 985
VWidth: 0
Flags: W
HStem: -233 41<-95.9001 -28.4951> -224 47<92.4828 193.527> -7 50<666.147 753.095> 361 46<47.3211 103.516 189.59 359.609 450.684 569.597> 373 62<817.369 905.5> 645 38<296.352 407> 661 38<541.186 652.069> 674 20G<771 778.5>
VStem: 596 65<47.7275 206.608> 876 78<235.477 370.582>
LayerCount: 2
Fore
SplineSet
954 327 m 3x29c0
 954 201 798 -7 684 -7 c 3
 621 -7 596 34 596 79 c 3
 596 99 598 134 605 168 c 2
 683 577 l 2
 684 582 684 585 684 589 c 0
 683 632 637 661 590 661 c 0
 524 661 476 579 448 413 c 0
 448 412 448 411 448 411 c 0
 448 409 450 407 451 407 c 2
 566 407 l 2
 570 407 571 400 571 395 c 27
 571 381 565 369 560 361 c 1
 443 361 l 2
 441 361 439 361 437 353 c 2
 389 106 l 2
 342 -140 190 -224 125 -224 c 0x72c0
 71 -224 39 -189 29 -175 c 1
 -6 -215 -53 -233 -93 -233 c 0
 -147 -233 -168 -206 -176 -191 c 1
 -176 -166 -165 -131 -136 -131 c 0
 -103 -131 -106 -192 -63 -192 c 0
 -18 -192 33 -73 44 -10 c 0
 48 12 49 21 53 46 c 0
 106 354 l 1
 106 356 l 2
 106 359 105 361 103 361 c 2
 38 361 l 2
 37 361 36 362 36 364 c 0
 36 374 61 407 84 407 c 2
 113 407 l 2
 116 407 118 412 119 416 c 0
 151 580 277 683 371 683 c 0xb4c0
 425 683 467 666 481 653 c 1
 505 676 569 699 608 699 c 0x22c0
 662 699 691 678 703 678 c 0
 725 678 766 694 776 694 c 1
 781 694 781 682 781 678 c 9
 781 678 762 646 752 591 c 10
 698 307 l 2
 697 303 698 301 700 301 c 3
 702 301 703 302 706 307 c 0
 746 372 832 435 880 435 c 0
 931 435 954 401 954 327 c 3x29c0
845 373 m 3x28c0
 772 373 689 245 676 185 c 2
 668 150 l 2
 663 128 661 88 661 83 c 3
 661 61 677 43 701 43 c 3
 792 43 876 174 876 323 c 3
 876 342 868 373 845 373 c 3x28c0
136 -177 m 0x70c0
 194 -177 277 -102 311 60 c 0
 362 354 l 1
 362 356 l 2
 362 359 361 361 359 361 c 1
 182 361 l 2
 179 361 177 361 176 353 c 2
 121 43 l 0
 109 -19 98 -59 76 -103 c 0
 75 -104 75 -106 75 -108 c 24
 75 -111 76 -115 76 -116 c 0
 80 -136 93 -177 136 -177 c 0x70c0
350 645 m 0x34c0
 273 645 216 561 194 454 c 0
 190 432 191 438 187 413 c 0
 187 412 187 411 187 411 c 0
 187 409 188 407 191 407 c 2
 369 407 l 2
 372 407 374 412 375 416 c 0
 387 478 412 551 430 584 c 0
 431 585 431 587 431 589 c 24
 431 592 430 596 430 597 c 0
 426 617 393 645 350 645 c 0x34c0
EndSplineSet
Validated: 1
EndChar

StartChar: uniF107
Encoding: 61703 61703 241
Width: 743
VWidth: 0
Flags: W
HStem: -231 39<-120.836 -28.1097> 0 55<583.626 659.232> 361 46<47.3611 104.165 189.724 308.637> 388 47<536.611 603.785> 661 38<281.175 391.052> 674 20G<510.04 517.54>
VStem: 611.04 71<287.604 383.647> 688.04 18<88.9793 101.627>
LayerCount: 2
Fore
SplineSet
421.04 577 m 22xd7
 422.04 582 422.04 585 422.04 589 c 7
 422.04 632 376.04 661 329.04 661 c 4
 263.04 661 215.04 579 187.04 413 c 0
 187.04 412 187.04 411 187.04 411 c 0
 187.04 409 189.04 407 190.04 407 c 2
 305.04 407 l 2
 309.04 407 310.04 400 310.04 395 c 27
 310.04 381 304.04 369 299.04 361 c 1
 182.04 361 l 2
 180.04 361 177.04 361 176.04 353 c 2
 121.04 54 l 2
 87.04 -142 -7.95996 -231 -94.96 -231 c 0
 -145.96 -231 -169.96 -207 -175.96 -190 c 1
 -176.96 -160 -158.96 -131 -134.96 -131 c 0
 -107.96 -131 -102.96 -192 -60.96 -192 c 0
 -5.95996 -192 36.04 -42 46.04 15 c 2
 106.04 354 l 1
 106.04 356 l 2
 106.04 359 105.04 361 103.04 361 c 2
 38.04 361 l 2
 37.04 361 36.04 362 36.04 364 c 0
 36.04 374 61.04 407 84.04 407 c 2
 113.04 407 l 2
 116.04 407 118.04 412 119.04 416 c 0
 146.04 582 247.04 699 347.04 699 c 4xeb
 401.04 699 430.04 678 442.04 678 c 4
 464.04 678 505.04 694 515.04 694 c 5
 520.04 694 520.04 682 520.04 678 c 13
 520.04 678 501.04 646 490.04 591 c 6
 438.04 327 l 6
 437.04 323 438.04 321 440.04 321 c 7
 445.04 321 522.04 435 599.04 435 c 15
 644.04 435 682.04 399 682.04 354 c 31
 682.04 256 592.04 224 481.04 205 c 5
 575.04 66 605.04 55 636.04 55 c 4
 663.04 55 680.04 91 688.04 102 c 4
 689.04 103 690.04 103 692.04 103 c 7
 697.04 103 705.04 98 706.04 91 c 5
 700.04 71 659.04 0 612.04 0 c 4
 533.04 0 465.04 121 414.04 191 c 5
 413.04 193 l 6
 412.04 193 412.04 192 412.04 191 c 6
 375.04 0 l 21
 364.04 -3 353.04 -5 342.04 -5 c 4
 331.04 -5 321.04 -3 309.04 0 c 5
 421.04 577 l 22xd7
430.04 230 m 4
 430.04 230 611.04 248 611.04 333 c 7
 611.04 362 599.04 388 571.04 388 c 7xd3
 524.04 388 428.04 256 428.04 232 c 7
 428.04 231 428.04 230 430.04 230 c 4
EndSplineSet
Validated: 33
EndChar

StartChar: uniF108
Encoding: 61704 61704 242
Width: 1004
VWidth: 0
Flags: W
HStem: -233 41<-95.9001 -28.4951> -224 47<92.4828 193.527> 0 55<844.586 920.192> 361 46<47.3211 103.516 189.59 359.609 450.684 569.597> 388 47<797.571 864.745> 645 38<296.352 407> 661 38<541.186 652.012> 674 20G<771 778.5>
VStem: 872 71<287.604 383.647> 949 18<88.9793 101.627>
LayerCount: 2
Fore
SplineSet
590 661 m 0x2ac0
 524 661 476 579 448 413 c 0
 448 412 448 411 448 411 c 0
 448 409 450 407 451 407 c 2
 566 407 l 2
 570 407 571 400 571 395 c 27
 571 381 565 369 560 361 c 1
 443 361 l 2
 441 361 439 361 437 353 c 2
 389 106 l 2
 342 -140 190 -224 125 -224 c 0x72c0
 71 -224 39 -189 29 -175 c 1
 -6 -215 -53 -233 -93 -233 c 0
 -147 -233 -168 -206 -176 -191 c 1
 -176 -166 -165 -131 -136 -131 c 0
 -103 -131 -106 -192 -63 -192 c 0
 -18 -192 33 -73 44 -10 c 0
 48 12 49 21 53 46 c 0
 106 354 l 1
 106 356 l 2
 106 359 105 361 103 361 c 2
 38 361 l 2
 37 361 36 362 36 364 c 0
 36 374 61 407 84 407 c 2
 113 407 l 2
 116 407 118 412 119 416 c 0
 151 580 277 683 371 683 c 0xb4c0
 425 683 467 666 481 653 c 1
 505 676 569 699 608 699 c 0x22c0
 662 699 691 678 703 678 c 0
 725 678 766 694 776 694 c 1x21c0
 781 694 781 682 781 678 c 9
 781 678 762 646 751 591 c 2
 699 327 l 2
 698 323 699 321 701 321 c 3
 706 321 783 435 860 435 c 11
 905 435 943 399 943 354 c 27
 943 256 853 224 742 205 c 1
 836 66 866 55 897 55 c 0
 924 55 941 91 949 102 c 0
 950 103 951 103 953 103 c 3
 958 103 966 98 967 91 c 1
 961 71 920 0 873 0 c 0
 794 0 726 121 675 191 c 1
 674 193 l 2
 673 193 673 192 673 191 c 2
 636 0 l 17
 625 -3 614 -5 603 -5 c 0
 592 -5 582 -3 570 0 c 1
 682 577 l 18
 683 582 683 585 683 589 c 3
 683 632 637 661 590 661 c 0x2ac0
691 230 m 0
 691 230 872 248 872 333 c 3
 872 362 860 388 832 388 c 3x28c0
 785 388 689 256 689 232 c 3
 689 231 689 230 691 230 c 0
136 -177 m 0x70c0
 194 -177 277 -102 311 60 c 0
 362 354 l 1
 362 356 l 2
 362 359 361 361 359 361 c 1
 182 361 l 2
 179 361 177 361 176 353 c 2
 121 43 l 0
 109 -19 98 -59 76 -103 c 0
 75 -104 75 -106 75 -108 c 24
 75 -111 76 -115 76 -116 c 0
 80 -136 93 -177 136 -177 c 0x70c0
350 645 m 0x34c0
 273 645 216 561 194 454 c 0
 190 432 191 438 187 413 c 0
 187 412 187 411 187 411 c 0
 187 409 188 407 191 407 c 2
 369 407 l 2
 372 407 374 412 375 416 c 0
 387 478 412 551 430 584 c 0
 431 585 431 587 431 589 c 24
 431 592 430 596 430 597 c 0
 426 617 393 645 350 645 c 0x34c0
EndSplineSet
Validated: 1
EndChar

StartChar: uniF109
Encoding: 61705 61705 243
Width: 752
VWidth: 0
Flags: W
HStem: -231 39<-120.836 -28.1097> -6 58<588.04 654.007> 361 74<566.439 622.614> 361 46<47.3611 104.165 189.724 308.637> 661 38<281.175 391.052> 674 20G<510.04 517.54>
VStem: 551.04 68<52.1725 205.553> 592.04 73<222.543 398.534>
LayerCount: 2
Fore
SplineSet
421.04 577 m 6xe5
 422.04 582 422.04 585 422.04 589 c 7
 422.04 632 376.04 661 329.04 661 c 4
 263.04 661 215.04 579 187.04 413 c 0
 187.04 412 187.04 411 187.04 411 c 0
 187.04 409 189.04 407 190.04 407 c 2
 305.04 407 l 2
 309.04 407 310.04 400 310.04 395 c 27
 310.04 381 304.04 369 299.04 361 c 1
 182.04 361 l 2
 180.04 361 177.04 361 176.04 353 c 2
 121.04 54 l 2
 87.04 -142 -7.95996 -231 -94.96 -231 c 0
 -145.96 -231 -169.96 -207 -175.96 -190 c 1
 -176.96 -160 -158.96 -131 -134.96 -131 c 0
 -107.96 -131 -102.96 -192 -60.96 -192 c 0
 -5.95996 -192 36.04 -42 46.04 15 c 2
 106.04 354 l 1
 106.04 356 l 2
 106.04 359 105.04 361 103.04 361 c 2
 38.04 361 l 2
 37.04 361 36.04 362 36.04 364 c 0
 36.04 374 61.04 407 84.04 407 c 2
 113.04 407 l 2
 116.04 407 118.04 412 119.04 416 c 0
 146.04 582 247.04 699 347.04 699 c 4xd9
 401.04 699 430.04 678 442.04 678 c 4
 464.04 678 505.04 694 515.04 694 c 5
 520.04 694 520.04 682 520.04 678 c 13
 520.04 678 500.04 646 489.04 591 c 6
 489.04 591 421.04 244 421.04 241 c 4
 421.04 240 422.04 240 422.04 240 c 6
 423.04 240 423.04 241 423.04 241 c 20
 436.04 266 549.04 435 615.04 435 c 4
 654.04 435 665.04 407 665.04 369 c 4xe5
 665.04 332 655.04 286 648.04 251 c 6
 621.04 106 l 6
 620.04 103 619.04 94 619.04 89 c 4
 619.04 61 631.04 52 642.04 52 c 4
 663.04 52 703.04 125 707.04 125 c 4
 708.04 125 716.04 111 717.04 103 c 5
 710.04 83 658.04 -6 607.04 -6 c 7
 569.04 -6 551.04 20 551.04 67 c 4xe6
 551.04 127 592.04 268 592.04 318 c 4
 592.04 341 591.04 361 574.04 361 c 4
 538.04 361 419.04 216 390.04 78 c 13
 373.04 0 l 21
 363.04 -3 352.04 -4 342.04 -4 c 4
 332.04 -4 320.04 -3 308.04 0 c 5
 421.04 577 l 6xe5
EndSplineSet
Validated: 33
EndChar

StartChar: uniF10A
Encoding: 61706 61706 244
Width: 1013
VWidth: 0
Flags: W
HStem: -233 41<-95.9001 -28.4951> -224 47<92.4828 193.527> -6 58<849 914.967> 361 74<827.399 883.574> 361 46<47.3211 103.516 189.59 359.609 450.684 569.597> 645 38<296.352 407> 661 38<541.186 652.012> 674 20G<771 778.5>
VStem: 812 68<52.1725 205.553> 853 73<222.543 398.534>
LayerCount: 2
Fore
SplineSet
590 661 m 0x3240
 524 661 476 579 448 413 c 0
 448 412 448 411 448 411 c 0
 448 409 450 407 451 407 c 2
 566 407 l 2
 570 407 571 400 571 395 c 27
 571 381 565 369 560 361 c 1
 443 361 l 2
 441 361 439 361 437 353 c 2
 389 106 l 2
 342 -140 190 -224 125 -224 c 0x6a40
 71 -224 39 -189 29 -175 c 1
 -6 -215 -53 -233 -93 -233 c 0
 -147 -233 -168 -206 -176 -191 c 1
 -176 -166 -165 -131 -136 -131 c 0
 -103 -131 -106 -192 -63 -192 c 0
 -18 -192 33 -73 44 -10 c 0
 48 12 49 21 53 46 c 0
 106 354 l 1
 106 356 l 2
 106 359 105 361 103 361 c 2
 38 361 l 2
 37 361 36 362 36 364 c 0
 36 374 61 407 84 407 c 2
 113 407 l 2
 116 407 118 412 119 416 c 0
 151 580 277 683 371 683 c 0xac40
 425 683 467 666 481 653 c 1
 505 676 569 699 608 699 c 0x2240
 662 699 691 678 703 678 c 0
 725 678 766 694 776 694 c 1
 781 694 781 682 781 678 c 9
 781 678 761 646 750 591 c 2
 750 591 682 244 682 241 c 0
 682 240 683 240 683 240 c 2
 684 240 684 241 684 241 c 16
 697 266 810 435 876 435 c 0
 915 435 926 407 926 369 c 0x3140
 926 332 916 286 909 251 c 2
 882 106 l 2
 881 103 880 94 880 89 c 0
 880 61 892 52 903 52 c 0
 924 52 964 125 968 125 c 0
 969 125 977 111 978 103 c 1
 971 83 919 -6 868 -6 c 3
 830 -6 812 20 812 67 c 0x3180
 812 127 853 268 853 318 c 0
 853 341 852 361 835 361 c 0
 799 361 680 216 651 78 c 9
 634 0 l 17
 624 -3 613 -4 603 -4 c 0
 593 -4 581 -3 569 0 c 1
 682 577 l 2
 683 582 683 585 683 589 c 3
 683 632 637 661 590 661 c 0x3240
136 -177 m 0
 194 -177 277 -102 311 60 c 0
 362 354 l 1
 362 356 l 2
 362 359 361 361 359 361 c 1
 182 361 l 2
 179 361 177 361 176 353 c 2
 121 43 l 0
 109 -19 98 -59 76 -103 c 0
 75 -104 75 -106 75 -108 c 24
 75 -111 76 -115 76 -116 c 0
 80 -136 93 -177 136 -177 c 0
350 645 m 0x2c
 273 645 216 561 194 454 c 0
 190 432 191 438 187 413 c 0
 187 412 187 411 187 411 c 0
 187 409 188 407 191 407 c 2
 369 407 l 2
 372 407 374 412 375 416 c 0
 387 478 412 551 430 584 c 0
 431 585 431 587 431 589 c 24
 431 592 430 596 430 597 c 0
 426 617 393 645 350 645 c 0x2c
EndSplineSet
Validated: 1
EndChar

StartChar: uniF10B
Encoding: 61707 61707 245
Width: 483
VWidth: 0
Flags: W
HStem: -231 39<-120.836 -28.1097> 361 46<47.3611 104.165 189.749 353.056> 366 52<195.381 352.096> 661 38<277.281 351.851>
VStem: 355.04 76<258.921 401>
LayerCount: 2
Fore
SplineSet
370.04 45 m 4xb8
 363.04 9 346.04 -67 304.04 -124 c 28
 263.04 -180 200.04 -221 165.04 -235 c 5
 161.04 -231 156.04 -224 156.04 -215 c 31
 156.04 -211 162.04 -210 165.04 -208 c 4
 240.04 -152 276.04 -89 298.04 22 c 6
 352.04 293 l 6
 354.04 301 355.04 316 355.04 321 c 4
 355.04 343 348.04 366 329.04 366 c 12xb8
 272.04 366 182.04 361 182.04 361 c 2
 179.04 361 177.04 361 176.04 353 c 2
 121.04 54 l 2
 87.04 -142 -7.95996 -231 -94.96 -231 c 0
 -145.96 -231 -169.96 -207 -175.96 -190 c 1
 -176.96 -160 -158.96 -131 -134.96 -131 c 0
 -107.96 -131 -102.96 -192 -60.96 -192 c 0
 -5.95996 -192 36.04 -42 46.04 15 c 2
 106.04 354 l 1
 106.04 356 l 2
 106.04 359 105.04 361 103.04 361 c 2
 38.04 361 l 2
 37.04 361 36.04 362 36.04 364 c 0
 36.04 374 61.04 407 84.04 407 c 2
 113.04 407 l 2
 116.04 407 118.04 412 119.04 416 c 0
 146.04 582 247.04 699 347.04 699 c 4
 401.04 699 418.04 686 433.04 672 c 4
 449.04 657 459.04 644 465.04 630 c 5
 465.04 602 451.04 566 420.04 566 c 31
 398.04 566 388.04 584 377.04 603 c 4
 363.04 628 348.04 661 311.04 661 c 4
 272.04 661 215.04 579 187.04 413 c 0
 187.04 412 187.04 411 187.04 411 c 0
 187.04 409 188.04 407 190.04 407 c 0xd8
 214.04 407 313.04 410 331.04 412 c 4
 352.04 414 415.04 418 417.04 418 c 7
 421.04 418 431.04 410 431.04 401 c 7
 431.04 396 427.04 360 424.04 339 c 4
 418.04 296 375.04 72 370.04 45 c 4xb8
EndSplineSet
Validated: 33
EndChar

StartChar: uniF10C
Encoding: 61708 61708 246
Width: 743
VWidth: 0
Flags: W
HStem: -233 41<-95.9001 -28.4951> -224 47<92.4828 193.45> 361 46<47.3211 103.516 189.59 359.609 445.584 614.016> 645 38<296.352 407> 661 38<531.988 612.811>
VStem: 616 76<251.11 408.224>
LayerCount: 2
Fore
SplineSet
371 683 m 0xb4
 425 683 467 666 481 653 c 1
 505 676 569 699 608 699 c 0
 662 699 679 686 694 672 c 0
 710 657 720 644 726 630 c 1
 726 602 712 566 681 566 c 27
 659 566 649 584 638 603 c 0
 624 628 609 661 572 661 c 0
 486 661 447 438 443 413 c 0
 443 412 443 411 443 411 c 0
 443 409 444 407 446 407 c 0
 472 407 574 410 592 412 c 0
 613 414 676 418 678 418 c 3
 682 418 692 410 692 401 c 3
 692 396 688 360 685 339 c 0
 679 296 636 72 631 45 c 0
 624 9 607 -67 565 -124 c 24
 524 -180 461 -221 426 -235 c 1
 422 -231 417 -224 417 -215 c 27
 417 -211 423 -210 426 -208 c 0
 501 -152 537 -89 559 22 c 2
 613 293 l 2
 615 301 616 316 616 321 c 0
 616 343 609 366 590 366 c 0
 581 366 438 361 438 361 c 0
 435 361 433 361 432 353 c 2
 389 106 l 0
 341 -140 190 -224 125 -224 c 0x6c
 71 -224 39 -189 29 -175 c 1
 -6 -215 -53 -233 -93 -233 c 0
 -147 -233 -168 -206 -176 -191 c 1
 -176 -166 -165 -131 -136 -131 c 0
 -103 -131 -106 -192 -63 -192 c 0
 -18 -192 33 -73 44 -10 c 0
 48 12 49 21 53 46 c 0
 106 354 l 1
 106 356 l 2
 106 359 105 361 103 361 c 2
 38 361 l 2
 37 361 36 362 36 364 c 0
 36 374 61 407 84 407 c 2
 113 407 l 2
 116 407 118 412 119 416 c 0
 151 580 277 683 371 683 c 0xb4
76 -116 m 0
 80 -136 93 -177 136 -177 c 0
 194 -177 277 -102 311 60 c 0
 362 354 l 1
 362 356 l 2
 362 359 361 361 359 361 c 1
 182 361 l 2
 179 361 177 361 176 353 c 2
 121 43 l 0
 109 -19 98 -59 76 -103 c 0
 75 -104 75 -106 75 -108 c 24
 75 -111 76 -115 76 -116 c 0
350 645 m 0x34
 273 645 216 561 194 454 c 0
 190 432 191 438 187 413 c 0
 187 412 187 411 187 411 c 0
 187 409 188 407 191 407 c 2
 369 407 l 2
 372 407 374 412 375 416 c 0
 387 478 412 551 430 584 c 0
 431 585 431 587 431 589 c 24
 431 592 430 596 430 597 c 0
 426 617 393 645 350 645 c 0x34
EndSplineSet
Validated: 1
EndChar

StartChar: T_h
Encoding: 61709 61709 247
Width: 982
VWidth: 0
Flags: W
HStem: -6 58<824.688 883.967> -3 27<130.428 190.016 304.438 350.422> 361 74<796.399 864.5> 615 39<132.76 309.003 403.211 628.794> 651 20G<95.8462 109> 674 20G<738.5 746.5>
VStem: 58 30<521.522 551.296> 130 166<3.5 63.5> 781 68<52.1725 205.553> 822 73<222.543 398.534>
LayerCount: 2
Fore
SplineSet
367 654 m 0x3740
 442 654 483 658 555 660 c 0
 645 662 733 694 744 694 c 1
 749 694 749 682 749 678 c 9
 749 678 730 646 719 591 c 2
 719 591 651 244 651 241 c 0
 651 240 652 240 652 240 c 2
 653 240 653 241 653 241 c 16
 666 266 779 435 845 435 c 0
 884 435 895 407 895 369 c 0x3740
 895 332 885 286 878 251 c 2
 851 106 l 2
 850 103 849 94 849 89 c 0
 849 61 861 52 872 52 c 0
 893 52 933 125 937 125 c 0
 938 125 946 111 947 103 c 1
 940 83 888 -6 837 -6 c 3
 799 -6 781 20 781 67 c 0xb780
 781 127 822 268 822 318 c 0
 822 341 821 361 804 361 c 0
 768 361 649 216 620 78 c 9
 603 0 l 17
 593 -3 582 -4 572 -4 c 0
 562 -4 550 -3 538 0 c 1
 637 530 l 2
 638 536 639 539 639 543 c 0
 639 614 629 615 511 615 c 0
 452 615 410 610 405 600 c 0
 392 572 385 540 377 500 c 2
 307 139 l 2
 300 104 296 78 296 49 c 0
 296 30 350 24 350 24 c 2
 351 24 352 22 352 20 c 0
 352 14 348 1 346 -3 c 1
 309 -1 283 2 242 2 c 0
 199 2 175 -1 132 -3 c 1
 131 -2 130 2 130 5 c 0
 130 13 133 24 137 24 c 0
 148 24 195 33 201 46 c 0
 213 74 220 104 227 142 c 2
 296 497 l 2
 303 534 309 563 309 594 c 0
 309 604 313 615 210 615 c 0x7740
 138 615 121 599 88 526 c 0
 86 522 83 521 78 521 c 0
 70 521 61 525 58 528 c 1
 102 671 l 1x2f40
 116 667 152 660 165 660 c 0
 248 659 292 654 367 654 c 0x3740
EndSplineSet
Validated: 33
EndChar

StartChar: uni0304
Encoding: 772 772 261
Width: 352
Flags: W
HStem: 550 46<184.613 390.774>
VStem: 180.408 216
LayerCount: 2
Fore
SplineSet
180.408 559 m 0
 180.408 561 189.408 596 199.408 596 c 2
 392.408 596 l 2
 394.408 596 397.408 595 396.408 589 c 0
 395.408 584 392.408 575 384.408 557 c 0
 381.408 551 376.408 550 376.408 550 c 1
 184.408 550 l 1
 184.408 550 178.408 549 180.408 559 c 0
EndSplineSet
Validated: 1
EndChar

StartChar: uni0305
Encoding: 773 773 262
Width: 526
Flags: W
HStem: 739 63<140.455 683.265>
LayerCount: 2
Fore
SplineSet
131.408 749 m 0
 131.408 751 144.408 802 154.408 802 c 2
 696.408 802 l 2
 698.408 802 701.408 801 699.408 793 c 0
 696.408 775 685.408 750 683.408 746 c 0
 680.408 740 674.408 739 674.408 739 c 1
 135.408 739 l 1
 135.408 739 129.408 739 131.408 749 c 0
EndSplineSet
Validated: 1
EndChar

StartChar: uni0306
Encoding: 774 774 263
Width: 232
Flags: W
HStem: 520 46<175.859 277.466> 621 20G<152.184 156.184 323.184 327.184>
VStem: 135.184 23<597.811 637.994> 320.184 18<620.732 639.513>
LayerCount: 2
Fore
SplineSet
225.184 566 m 0
 264.184 566 302.184 595 320.184 638 c 0
 320.184 640 322.184 641 324.184 641 c 0
 330.184 641 339.184 633 338.184 628 c 0
 338.184 627 336.184 622 336.184 620 c 0
 317.184 567 266.184 520 216.184 520 c 0
 166.184 520 132.184 564 135.184 621 c 0
 135.184 623 136.184 627 136.184 628 c 0
 137.184 633 149.184 641 155.184 641 c 0
 157.184 641 158.184 640 158.184 638 c 0
 159.184 595 186.184 566 225.184 566 c 0
EndSplineSet
Validated: 33
EndChar

StartChar: uni0307
Encoding: 775 775 264
Width: 240
Flags: W
HStem: 495 100<185.289 251.852>
VStem: 171.912 93<507.854 581.333>
LayerCount: 2
Fore
SplineSet
171.912 545 m 0
 176.912 573 202.912 595 228.912 595 c 0
 254.912 595 269.912 573 264.912 545 c 0
 259.912 517 234.912 495 208.912 495 c 0
 182.912 495 166.912 517 171.912 545 c 0
EndSplineSet
Validated: 33
EndChar

StartChar: uni0308
Encoding: 776 776 265
Width: 308
Flags: W
HStem: 471 92<139.624 203.798 309.624 373.798>
VStem: 127.877 87<481.924 550.908> 297.877 87<481.924 550.455>
LayerCount: 2
Fore
SplineSet
351.877 563 m 27
 374.877 563 389.877 541 384.877 516 c 24
 379.877 491 355.877 471 332.877 471 c 27
 309.877 471 292.877 492 297.877 517 c 24
 302.877 542 328.877 563 351.877 563 c 27
180.877 563 m 27
 203.877 563 219.877 541 214.877 516 c 24
 209.877 491 185.877 471 162.877 471 c 27
 139.877 471 122.877 492 127.877 517 c 24
 132.877 542 157.877 563 180.877 563 c 27
EndSplineSet
Validated: 33
EndChar

StartChar: hookabovecomb
Encoding: 777 777 266
Width: 165
Flags: W
HStem: 626 29<182.938 245.596>
VStem: 128.096 45<571.152 614.867>
LayerCount: 2
Fore
SplineSet
229.096 655 m 0
 262.096 655 275.096 634 269.096 604 c 0
 263.096 571 232.096 548 209.096 538 c 0
 191.096 530 184.096 525 182.096 513 c 0
 180.096 505 184.096 497 186.096 494 c 1
 185.096 489 173.096 480 168.096 480 c 1
 163.096 482 139.096 493 143.096 513 c 0
 148.096 538 178.096 550 193.096 557 c 0
 213.096 566 226.096 577 229.096 594 c 0
 232.096 610 227.096 626 210.096 626 c 0
 191.096 626 178.096 617 173.096 590 c 0
 170.096 575 152.096 570 141.096 570 c 0
 134.096 570 127.096 574 128.096 579 c 0
 135.096 613 189.096 655 229.096 655 c 0
EndSplineSet
Validated: 33
EndChar

StartChar: uni030A
Encoding: 778 778 267
Width: 224
Flags: W
HStem: 502 34<188.994 260.771> 647 34<203.833 276.706>
VStem: 150.927 163
LayerCount: 2
Fore
SplineSet
181.927 592 m 0
 175.927 561 193.927 536 221.927 536 c 0
 249.927 536 277.927 561 283.927 592 c 0
 289.927 623 271.927 647 243.927 647 c 0
 215.927 647 187.927 623 181.927 592 c 0
150.927 592 m 0
 160.927 641 205.927 681 250.927 681 c 0
 295.927 681 323.927 641 313.927 592 c 0
 303.927 543 260.927 502 215.927 502 c 0
 170.927 502 140.927 543 150.927 592 c 0
EndSplineSet
Validated: 33
EndChar

StartChar: uni030B
Encoding: 779 779 268
Width: 282
Flags: W
HStem: 541 143<252 262>
VStem: 119 308
LayerCount: 2
Fore
SplineSet
254 541 m 0
 252 541 247 547 247 553 c 0
 247 561 319 646 362 679 c 0
 367 682 378 684 388 684 c 0
 404 684 427 680 427 660 c 0
 427 625 262 541 254 541 c 0
126 541 m 0
 124 541 119 547 119 553 c 0
 119 561 191 646 234 679 c 0
 239 682 250 684 260 684 c 0
 276 684 299 680 299 660 c 0
 299 625 134 541 126 541 c 0
EndSplineSet
Validated: 1
EndChar

StartChar: uni030C
Encoding: 780 780 269
Width: 389
Flags: W
HStem: 493 148
VStem: 193 186
LayerCount: 2
Fore
SplineSet
379 618 m 1
 366 608 298 542 272 502 c 0
 268 496 266 493 262 493 c 0
 259 493 257 495 255 502 c 0
 248 521 212 595 193 620 c 1
 194 625 201 638 206 641 c 1
 216 641 257 601 277 575 c 1
 307 599 366 641 376 641 c 1
 380 638 381 627 379 618 c 1
EndSplineSet
Validated: 1
EndChar

StartChar: uni0312
Encoding: 786 786 270
Width: 147
Flags: W
HStem: 458 180
VStem: 111 99<477.748 543.702>
LayerCount: 2
Fore
SplineSet
210 513 m 0
 210 481 163 458 124 458 c 1
 111 468 111 491 111 499 c 0
 111 554 172 618 205 636 c 1
 206 637 209 638 213 638 c 0
 225 638 231 634 231 631 c 0
 231 625 188 611 180 570 c 0
 174 540 210 539 210 513 c 0
EndSplineSet
Validated: 33
EndChar

StartChar: uni0315
Encoding: 789 789 271
Width: 147
Flags: W
HStem: 465 187
VStem: 173 68<546.578 633.614>
LayerCount: 2
Fore
SplineSet
162 592 m 0
 162 630 196 652 236 652 c 1
 240 645 241 636 241 624 c 0
 241 614 240 603 238 590 c 0
 229 545 169 480 144 466 c 0
 143 465 139 465 137 465 c 0
 132 465 127 472 127 477 c 0
 127 481 173 504 173 551 c 0
 173 562 162 574 162 592 c 0
EndSplineSet
Validated: 1
EndChar

StartChar: dotbelowcomb
Encoding: 803 803 272
Width: 239
Flags: W
HStem: -132 100<83.0166 149.579>
VStem: 69.9561 93<-118.333 -44.854>
LayerCount: 2
Fore
SplineSet
69.9561 -82 m 0
 74.9561 -54 99.9561 -32 125.956 -32 c 0
 151.956 -32 167.956 -54 162.956 -82 c 0
 157.956 -110 131.956 -132 105.956 -132 c 0
 79.9561 -132 64.9561 -110 69.9561 -82 c 0
EndSplineSet
Validated: 33
EndChar

StartChar: uni0326
Encoding: 806 806 273
Width: 147
Flags: W
HStem: -193 180
VStem: 18 99<-98.7024 -32.7479>
LayerCount: 2
Fore
SplineSet
18 -68 m 0
 18 -36 65 -13 104 -13 c 1
 117 -23 117 -46 117 -54 c 0
 117 -109 56 -173 23 -191 c 1
 22 -192 19 -193 15 -193 c 0
 3 -193 -3 -189 -3 -186 c 0
 -3 -180 40 -166 48 -125 c 0
 54 -95 18 -94 18 -68 c 0
EndSplineSet
Validated: 33
EndChar

StartChar: uni0327
Encoding: 807 807 274
Width: 403
Flags: W
HStem: -152 24<138.731 199.608> -61 34<195.444 212.429> -24 20G<192.444 216.444>
VStem: 118.444 132
LayerCount: 2
Fore
SplineSet
195.444 -27 m 1
 218.444 -27 l 2
 242.444 -27 255.444 -50 250.444 -76 c 0
 241.444 -123 196.444 -152 148.444 -152 c 0
 137.444 -152 123.444 -147 118.444 -143 c 1
 118.444 -138 117.444 -135 118.444 -129 c 0
 119.444 -122 127.444 -115 133.444 -115 c 0
 144.444 -115 150.444 -128 165.444 -128 c 0
 191.444 -128 209.444 -112 212.444 -95 c 0
 217.444 -71 202.444 -61 190.444 -61 c 0
 180.444 -61 174.444 -64 164.444 -68 c 0
 162.444 -68 154.444 -59 157.444 -55 c 0
 168.444 -40 187.444 -18 197.444 -4 c 1
 216.444 -4 l 1
 195.444 -27 l 1
EndSplineSet
Validated: 33
EndChar

StartChar: uni0328
Encoding: 808 808 275
Width: 202
Flags: W
HStem: -218 59<11.6094 97.693>
LayerCount: 2
Fore
SplineSet
165.609 42 m 3
 181.609 42 202.609 37 189.609 25 c 0
 163.609 3 53.6094 -52 41.6094 -116 c 0
 38.6094 -131 39.6094 -159 71.6094 -159 c 3
 118.609 -159 148.609 -121 154.609 -121 c 3
 155.609 -121 158.609 -126 156.609 -134 c 0
 155.609 -139 152.609 -147 148.609 -151 c 0
 122.609 -180 79.6094 -218 37.6094 -218 c 0
 -14.3906 -218 -18.3906 -168 -13.3906 -141 c 0
 -0.390625 -75 138.609 42 165.609 42 c 3
EndSplineSet
Validated: 33
EndChar

StartChar: gravecomb.cap
Encoding: 63632 63632 284
Width: 222
Flags: W
HStem: 694 98
VStem: 170 174
LayerCount: 2
Fore
SplineSet
331 694 m 0
 314 694 170 742 170 768 c 0
 170 779 190 792 228 792 c 0
 235 792 242 791 245 790 c 0
 274 771 344 712 344 704 c 0
 344 697 334 694 331 694 c 0
EndSplineSet
Validated: 1
EndChar

StartChar: acutecomb.cap
Encoding: 63633 63633 285
Width: 208
Flags: W
HStem: 694 98
VStem: 150 174
LayerCount: 2
Fore
SplineSet
163 694 m 0
 160 694 150 697 150 704 c 0
 150 712 220 771 249 790 c 0
 252 791 259 792 266 792 c 0
 304 792 324 779 324 768 c 0
 324 742 180 694 163 694 c 0
EndSplineSet
Validated: 1
EndChar

StartChar: uni0302.cap
Encoding: 63634 63634 286
Width: 296
Flags: W
HStem: 728 130
VStem: 163.667 243
LayerCount: 2
Fore
SplineSet
391.667 728 m 0
 378.667 728 321.667 765 292.667 786 c 1
 254.667 763 182.667 728 169.667 728 c 0
 161.667 728 162.667 744 163.667 748 c 1
 173.667 757 206.667 778 240.667 804 c 0
 260.667 818 279.667 833 295.667 850 c 0
 302.667 856 303.667 858 308.667 858 c 0
 314.667 858 317.667 855 319.667 850 c 0
 328.667 834 338.667 817 351.667 802 c 0
 376.667 773 406.667 751 406.667 748 c 1
 404.667 740 398.667 728 391.667 728 c 0
EndSplineSet
Validated: 1
EndChar

StartChar: uni030A.cap
Encoding: 63635 63635 287
Width: 387
Flags: W
HStem: 502 34<240.637 312.476> 647 34<255.379 328.4>
VStem: 201.882 164
LayerCount: 2
Fore
SplineSet
232.882 592 m 0
 226.882 561 245.882 536 273.882 536 c 0
 301.882 536 328.882 561 334.882 592 c 0
 340.882 623 323.882 647 295.882 647 c 0
 267.882 647 238.882 623 232.882 592 c 0
201.882 592 m 0
 211.882 641 257.882 681 302.882 681 c 0
 347.882 681 375.882 641 365.882 592 c 0
 355.882 543 312.882 502 267.882 502 c 0
 222.882 502 191.882 543 201.882 592 c 0
EndSplineSet
Validated: 33
EndChar

StartChar: tildecomb.cap
Encoding: 63636 63636 288
Width: 374
Flags: W
HStem: 725 47<342.21 449.342> 767 47<208.658 315.79>
VStem: 173 312
LayerCount: 2
Fore
SplineSet
273 814 m 4x60
 298 814 314 811 336 798 c 4
 358 785 379 772 411 772 c 4xa0
 446 772 472 806 478 814 c 5x60
 481 813 485 811 485 803 c 4
 485 788 475 772 466 762 c 4
 440 735 415 725 385 725 c 4xa0
 360 725 344 728 322 741 c 4
 300 754 279 767 247 767 c 4x60
 212 767 186 733 180 725 c 5xa0
 177 726 173 728 173 736 c 4
 173 751 183 767 192 777 c 4
 218 804 243 814 273 814 c 4x60
EndSplineSet
Validated: 1
EndChar

StartChar: uni0304.cap
Encoding: 63637 63637 289
Width: 353
Flags: W
HStem: 548 48<165.025 411.422>
VStem: 160.359 257
LayerCount: 2
Fore
SplineSet
160.359 557 m 0
 160.359 559 169.359 596 181.359 596 c 2
 413.359 596 l 2
 415.359 596 418.359 595 417.359 589 c 0
 416.359 584 413.359 573 404.359 555 c 0
 401.359 549 395.359 548 395.359 548 c 1
 165.359 548 l 1
 165.359 548 158.359 547 160.359 557 c 0
EndSplineSet
Validated: 1
EndChar

StartChar: uni0306.cap
Encoding: 63638 63638 290
Width: 232
Flags: W
HStem: 525 48<170.285 280.468>
VStem: 134.021 23<598.719 630.925> 318.021 19<615.095 631.975>
LayerCount: 2
Fore
SplineSet
226.021 573 m 0
 265.021 573 302.021 594 318.021 631 c 0
 318.021 633 321.021 633 323.021 633 c 0
 329.021 633 338.021 626 337.021 622 c 0
 337.021 621 335.021 617 335.021 615 c 0
 318.021 569 267.021 525 217.021 525 c 0
 167.021 525 133.021 566 134.021 616 c 0
 134.021 618 134.021 621 134.021 622 c 0
 135.021 626 147.021 633 153.021 633 c 0
 155.021 633 157.021 633 157.021 631 c 0
 159.021 594 187.021 573 226.021 573 c 0
EndSplineSet
Validated: 33
EndChar

StartChar: uni0327.cap
Encoding: 63639 63639 291
Width: 404
Flags: W
HStem: -174 28<125.698 196.833> -67 40<192.444 211.735> -20 20G<188.444 217.444>
VStem: 101.444 156
LayerCount: 2
Fore
SplineSet
192.444 -27 m 1
 220.444 -27 l 2
 249.444 -27 263.444 -54 257.444 -85 c 0
 246.444 -140 193.444 -174 136.444 -174 c 0
 123.444 -174 107.444 -169 101.444 -164 c 1
 101.444 -158 100.444 -154 101.444 -147 c 0
 103.444 -139 112.444 -131 119.444 -131 c 0
 132.444 -131 139.444 -146 157.444 -146 c 0
 188.444 -146 208.444 -127 212.444 -107 c 0
 217.444 -79 200.444 -67 186.444 -67 c 0
 174.444 -67 167.444 -70 155.444 -75 c 0
 153.444 -75 144.444 -65 147.444 -60 c 0
 161.444 -42 182.444 -17 194.444 0 c 1
 217.444 0 l 1
 192.444 -27 l 1
EndSplineSet
Validated: 33
EndChar

StartChar: uni0307.cap
Encoding: 63640 63640 292
Width: 240
Flags: W
HStem: 711 100<246.289 312.852>
VStem: 232.912 93<723.854 797.333>
LayerCount: 2
Fore
SplineSet
232.912 761 m 0
 237.912 789 263.912 811 289.912 811 c 0
 315.912 811 330.912 789 325.912 761 c 0
 320.912 733 295.912 711 269.912 711 c 0
 243.912 711 227.912 733 232.912 761 c 0
EndSplineSet
Validated: 33
EndChar

StartChar: uni0323.cap
Encoding: 63641 63641 293
Width: 239
Flags: W
HStem: -136 100<81.9727 148.852>
VStem: 68.9121 93<-123.146 -48.854>
LayerCount: 2
Fore
SplineSet
68.9121 -86 m 0
 73.9121 -58 98.9121 -36 124.912 -36 c 0
 150.912 -36 166.912 -58 161.912 -86 c 0
 156.912 -114 131.912 -136 105.912 -136 c 0
 79.9121 -136 63.9121 -114 68.9121 -86 c 0
EndSplineSet
Validated: 33
EndChar

StartChar: uni0305.cap
Encoding: 63642 63642 294
Width: 526
Flags: W
HStem: 739 63<140.455 683.265>
LayerCount: 2
Fore
SplineSet
131.408 749 m 0
 131.408 751 144.408 802 154.408 802 c 2
 696.408 802 l 2
 698.408 802 701.408 801 699.408 793 c 0
 696.408 775 685.408 750 683.408 746 c 0
 680.408 740 674.408 739 674.408 739 c 1
 135.408 739 l 1
 135.408 739 129.408 739 131.408 749 c 0
EndSplineSet
Validated: 1
EndChar

StartChar: hookabovecomb.cap
Encoding: 63643 63643 295
Width: 165
Flags: W
HStem: 626 29<182.938 245.596>
VStem: 128.096 45<571.152 614.867> 143.096 39<499.612 534.432>
LayerCount: 2
Fore
SplineSet
229.096 655 m 0xc0
 262.096 655 275.096 634 269.096 604 c 0
 263.096 571 232.096 548 209.096 538 c 0
 191.096 530 184.096 525 182.096 513 c 0
 182.096 511 182.096 509 182.096 506 c 1
 181.096 503 159.096 498 148.096 498 c 1
 145.096 501 142.096 510 143.096 513 c 0xa0
 148.096 538 178.096 550 193.096 557 c 0
 213.096 566 226.096 577 229.096 594 c 0
 232.096 610 227.096 626 210.096 626 c 0
 191.096 626 178.096 617 173.096 590 c 0
 170.096 575 152.096 570 141.096 570 c 0
 134.096 570 127.096 574 128.096 579 c 0
 135.096 613 189.096 655 229.096 655 c 0xc0
EndSplineSet
Validated: 33
EndChar

StartChar: uni030B.cap
Encoding: 63644 63644 296
Width: 360
Flags: W
HStem: 704 133<304.455 322.455>
VStem: 160.455 333
LayerCount: 2
Fore
SplineSet
300.455 717 m 0
 302.455 727 395.455 808 433.455 834 c 0
 437.455 836 443.455 837 450.455 837 c 0
 486.455 837 495.455 819 493.455 807 c 0
 486.455 772 322.455 704 306.455 704 c 0
 302.455 704 298.455 708 300.455 717 c 0
160.455 717 m 0
 162.455 727 256.455 808 294.455 834 c 0
 298.455 836 304.455 837 311.455 837 c 0
 347.455 837 355.455 819 353.455 807 c 0
 346.455 772 183.455 704 167.455 704 c 0
 163.455 704 158.455 708 160.455 717 c 0
EndSplineSet
Validated: 33
EndChar

StartChar: uni0308.cap
Encoding: 63645 63645 297
Width: 312
Flags: W
HStem: 712 100<187.017 253.579 355.017 421.896>
VStem: 173.956 93<725.667 799.146> 341.956 93<724.854 799.146>
LayerCount: 2
Fore
SplineSet
341.956 762 m 0
 346.956 790 371.956 812 397.956 812 c 0
 423.956 812 439.956 790 434.956 762 c 0
 429.956 734 404.956 712 378.956 712 c 0
 352.956 712 336.956 734 341.956 762 c 0
173.956 762 m 0
 178.956 790 203.956 812 229.956 812 c 0
 255.956 812 271.956 790 266.956 762 c 0
 261.956 734 235.956 712 209.956 712 c 0
 183.956 712 168.956 734 173.956 762 c 0
EndSplineSet
Validated: 33
EndChar

StartChar: uni0308.narrow
Encoding: 63646 63646 298
Width: 269
VWidth: 0
Flags: W
HStem: 477 100<144.312 209.228 277.312 342.228>
VStem: 134 88<488.666 567.191> 267 88<488.666 567.191>
LayerCount: 2
Fore
SplineSet
318 577 m 27
 339 577 355 558 355 537 c 27
 355 506 332 477 301 477 c 27
 279 477 267 499 267 521 c 27
 267 551 288 577 318 577 c 27
185 577 m 27
 206 577 222 558 222 537 c 27
 222 506 199 477 168 477 c 27
 146 477 134 499 134 521 c 27
 134 551 155 577 185 577 c 27
EndSplineSet
Validated: 1
EndChar

